<svg width="300" height="300" viewBox="0 0 300 300" fill="none" xmlns="http://www.w3.org/2000/svg">
<path d="M78 39C78 32.3726 83.3726 27 90 27H222C228.627 27 234 32.3726 234 39V226.5C234 233.127 228.627 238.5 222 238.5H90C83.3726 238.5 78 233.127 78 226.5V39Z" fill="white"/>
<path fill-rule="evenodd" clip-rule="evenodd" d="M90 29.625C89.2789 29.625 88.5799 29.7059 87.9105 29.8581C86.4968 30.1795 85.0902 29.2941 84.7689 27.8804C84.4475 26.4667 85.3329 25.0602 86.7466 24.7388C87.7953 24.5003 88.8846 24.375 90 24.375H93.1429C94.5926 24.375 95.7679 25.5503 95.7679 27C95.7679 28.4497 94.5926 29.625 93.1429 29.625H90ZM106.232 27C106.232 25.5503 107.407 24.375 108.857 24.375H115.143C116.593 24.375 117.768 25.5503 117.768 27C117.768 28.4497 116.593 29.625 115.143 29.625H108.857C107.407 29.625 106.232 28.4497 106.232 27ZM128.232 27C128.232 25.5503 129.407 24.375 130.857 24.375H137.143C138.593 24.375 139.768 25.5503 139.768 27C139.768 28.4497 138.593 29.625 137.143 29.625H130.857C129.407 29.625 128.232 28.4497 128.232 27ZM150.232 27C150.232 25.5503 151.407 24.375 152.857 24.375H159.143C160.593 24.375 161.768 25.5503 161.768 27C161.768 28.4497 160.593 29.625 159.143 29.625H152.857C151.407 29.625 150.232 28.4497 150.232 27ZM172.232 27C172.232 25.5503 173.407 24.375 174.857 24.375H181.143C182.593 24.375 183.768 25.5503 183.768 27C183.768 28.4497 182.593 29.625 181.143 29.625H174.857C173.407 29.625 172.232 28.4497 172.232 27ZM194.232 27C194.232 25.5503 195.407 24.375 196.857 24.375H203.143C204.593 24.375 205.768 25.5503 205.768 27C205.768 28.4497 204.593 29.625 203.143 29.625H196.857C195.407 29.625 194.232 28.4497 194.232 27ZM216.232 27C216.232 25.5503 217.407 24.375 218.857 24.375H222C223.115 24.375 224.205 24.5003 225.253 24.7388C226.667 25.0602 227.553 26.4667 227.231 27.8804C226.91 29.2941 225.503 30.1795 224.09 29.8581C223.42 29.7059 222.721 29.625 222 29.625H218.857C217.407 29.625 216.232 28.4497 216.232 27ZM233.12 33.7689C234.533 33.4475 235.94 34.3329 236.261 35.7466C236.5 36.7953 236.625 37.8846 236.625 39V41.9762C236.625 43.4259 235.45 44.6012 234 44.6012C232.55 44.6012 231.375 43.4259 231.375 41.9762V39C231.375 38.2789 231.294 37.5799 231.142 36.9105C230.82 35.4968 231.706 34.0902 233.12 33.7689ZM78.8804 33.7689C80.2941 34.0902 81.1795 35.4968 80.8581 36.9105C80.7059 37.5799 80.625 38.2789 80.625 39V41.9762C80.625 43.426 79.4497 44.6012 78 44.6012C76.5503 44.6012 75.375 43.426 75.375 41.9762V39C75.375 37.8846 75.5003 36.7953 75.7388 35.7466C76.0602 34.3329 77.4667 33.4475 78.8804 33.7689ZM78 54.2321C79.4497 54.2321 80.625 55.4074 80.625 56.8571V62.8095C80.625 64.2593 79.4497 65.4345 78 65.4345C76.5503 65.4345 75.375 64.2593 75.375 62.8095V56.8571C75.375 55.4074 76.5503 54.2321 78 54.2321ZM234 54.2321C235.45 54.2321 236.625 55.4074 236.625 56.8571V62.8095C236.625 64.2593 235.45 65.4345 234 65.4345C232.55 65.4345 231.375 64.2593 231.375 62.8095V56.8571C231.375 55.4074 232.55 54.2321 234 54.2321ZM78 75.0655C79.4497 75.0655 80.625 76.2407 80.625 77.6905V83.6429C80.625 85.0926 79.4497 86.2679 78 86.2679C76.5503 86.2679 75.375 85.0926 75.375 83.6429V77.6905C75.375 76.2407 76.5503 75.0655 78 75.0655ZM234 75.0655C235.45 75.0655 236.625 76.2407 236.625 77.6905V83.6429C236.625 85.0926 235.45 86.2679 234 86.2679C232.55 86.2679 231.375 85.0926 231.375 83.6429V77.6905C231.375 76.2407 232.55 75.0655 234 75.0655ZM78 95.8988C79.4497 95.8988 80.625 97.0741 80.625 98.5238V104.476C80.625 105.926 79.4497 107.101 78 107.101C76.5503 107.101 75.375 105.926 75.375 104.476V98.5238C75.375 97.0741 76.5503 95.8988 78 95.8988ZM234 95.8988C235.45 95.8988 236.625 97.0741 236.625 98.5238V104.476C236.625 105.926 235.45 107.101 234 107.101C232.55 107.101 231.375 105.926 231.375 104.476V98.5238C231.375 97.0741 232.55 95.8988 234 95.8988ZM78 116.732C79.4497 116.732 80.625 117.907 80.625 119.357V125.31C80.625 126.759 79.4497 127.935 78 127.935C76.5503 127.935 75.375 126.759 75.375 125.31V119.357C75.375 117.907 76.5503 116.732 78 116.732ZM234 116.732C235.45 116.732 236.625 117.907 236.625 119.357V125.31C236.625 126.759 235.45 127.935 234 127.935C232.55 127.935 231.375 126.759 231.375 125.31V119.357C231.375 117.907 232.55 116.732 234 116.732ZM78 137.565C79.4497 137.565 80.625 138.741 80.625 140.19V146.143C80.625 147.593 79.4497 148.768 78 148.768C76.5503 148.768 75.375 147.593 75.375 146.143V140.19C75.375 138.741 76.5503 137.565 78 137.565ZM234 137.565C235.45 137.565 236.625 138.741 236.625 140.19V146.143C236.625 147.593 235.45 148.768 234 148.768C232.55 148.768 231.375 147.593 231.375 146.143V140.19C231.375 138.741 232.55 137.565 234 137.565ZM78 158.399C79.4497 158.399 80.625 159.574 80.625 161.024V166.976C80.625 168.426 79.4497 169.601 78 169.601C76.5503 169.601 75.375 168.426 75.375 166.976V161.024C75.375 159.574 76.5503 158.399 78 158.399ZM234 158.399C235.45 158.399 236.625 159.574 236.625 161.024V166.976C236.625 168.426 235.45 169.601 234 169.601C232.55 169.601 231.375 168.426 231.375 166.976V161.024C231.375 159.574 232.55 158.399 234 158.399ZM78 179.232C79.4497 179.232 80.625 180.407 80.625 181.857V187.81C80.625 189.259 79.4497 190.435 78 190.435C76.5503 190.435 75.375 189.259 75.375 187.81V181.857C75.375 180.407 76.5503 179.232 78 179.232ZM234 179.232C235.45 179.232 236.625 180.407 236.625 181.857V187.81C236.625 189.259 235.45 190.435 234 190.435C232.55 190.435 231.375 189.259 231.375 187.81V181.857C231.375 180.407 232.55 179.232 234 179.232ZM78 200.065C79.4497 200.065 80.625 201.241 80.625 202.69V208.643C80.625 210.093 79.4497 211.268 78 211.268C76.5503 211.268 75.375 210.093 75.375 208.643V202.69C75.375 201.241 76.5503 200.065 78 200.065ZM234 200.065C235.45 200.065 236.625 201.241 236.625 202.69V208.643C236.625 210.093 235.45 211.268 234 211.268C232.55 211.268 231.375 210.093 231.375 208.643V202.69C231.375 201.241 232.55 200.065 234 200.065ZM78 220.899C79.4497 220.899 80.625 222.074 80.625 223.524V226.5C80.625 227.221 80.7059 227.92 80.8581 228.59C81.1795 230.003 80.2941 231.41 78.8804 231.731C77.4667 232.053 76.0602 231.167 75.7388 229.753C75.5003 228.705 75.375 227.615 75.375 226.5V223.524C75.375 222.074 76.5503 220.899 78 220.899ZM234 220.899C235.45 220.899 236.625 222.074 236.625 223.524V226.5C236.625 227.615 236.5 228.705 236.261 229.753C235.94 231.167 234.533 232.053 233.12 231.731C231.706 231.41 230.82 230.003 231.142 228.59C231.294 227.92 231.375 227.221 231.375 226.5V223.524C231.375 222.074 232.55 220.899 234 220.899ZM84.7689 237.62C85.0902 236.206 86.4968 235.32 87.9105 235.642C88.5799 235.794 89.2789 235.875 90 235.875H93.1429C94.5926 235.875 95.7679 237.05 95.7679 238.5C95.7679 239.95 94.5926 241.125 93.1429 241.125H90C88.8846 241.125 87.7953 241 86.7466 240.761C85.3329 240.44 84.4475 239.033 84.7689 237.62ZM227.231 237.62C227.553 239.033 226.667 240.44 225.253 240.761C224.205 241 223.115 241.125 222 241.125H218.857C217.407 241.125 216.232 239.95 216.232 238.5C216.232 237.05 217.407 235.875 218.857 235.875H222C222.721 235.875 223.42 235.794 224.09 235.642C225.503 235.32 226.91 236.206 227.231 237.62ZM106.232 238.5C106.232 237.05 107.407 235.875 108.857 235.875H115.143C116.593 235.875 117.768 237.05 117.768 238.5C117.768 239.95 116.593 241.125 115.143 241.125H108.857C107.407 241.125 106.232 239.95 106.232 238.5ZM128.232 238.5C128.232 237.05 129.407 235.875 130.857 235.875H137.143C138.593 235.875 139.768 237.05 139.768 238.5C139.768 239.95 138.593 241.125 137.143 241.125H130.857C129.407 241.125 128.232 239.95 128.232 238.5ZM150.232 238.5C150.232 237.05 151.407 235.875 152.857 235.875H159.143C160.593 235.875 161.768 237.05 161.768 238.5C161.768 239.95 160.593 241.125 159.143 241.125H152.857C151.407 241.125 150.232 239.95 150.232 238.5ZM172.232 238.5C172.232 237.05 173.407 235.875 174.857 235.875H181.143C182.593 235.875 183.768 237.05 183.768 238.5C183.768 239.95 182.593 241.125 181.143 241.125H174.857C173.407 241.125 172.232 239.95 172.232 238.5ZM194.232 238.5C194.232 237.05 195.407 235.875 196.857 235.875H203.143C204.593 235.875 205.768 237.05 205.768 238.5C205.768 239.95 204.593 241.125 203.143 241.125H196.857C195.407 241.125 194.232 239.95 194.232 238.5Z" fill="#D9D9D9"/>
<path d="M9 39C9 32.3726 14.3726 27 21 27H153C159.627 27 165 32.3726 165 39V226.5C165 233.127 159.627 238.5 153 238.5H21C14.3726 238.5 9 233.127 9 226.5V39Z" fill="white"/>
<path fill-rule="evenodd" clip-rule="evenodd" d="M21 29.625C20.2789 29.625 19.5799 29.7059 18.9105 29.8581C17.4968 30.1795 16.0902 29.2941 15.7689 27.8804C15.4475 26.4667 16.3329 25.0602 17.7466 24.7388C18.7953 24.5003 19.8846 24.375 21 24.375H24.1429C25.5926 24.375 26.7679 25.5503 26.7679 27C26.7679 28.4497 25.5926 29.625 24.1429 29.625H21ZM37.2321 27C37.2321 25.5503 38.4074 24.375 39.8571 24.375H46.1429C47.5926 24.375 48.7679 25.5503 48.7679 27C48.7679 28.4497 47.5926 29.625 46.1429 29.625H39.8571C38.4074 29.625 37.2321 28.4497 37.2321 27ZM59.2321 27C59.2321 25.5503 60.4074 24.375 61.8571 24.375H68.1429C69.5926 24.375 70.7679 25.5503 70.7679 27C70.7679 28.4497 69.5926 29.625 68.1429 29.625H61.8571C60.4074 29.625 59.2321 28.4497 59.2321 27ZM81.2321 27C81.2321 25.5503 82.4074 24.375 83.8571 24.375H90.1429C91.5926 24.375 92.7679 25.5503 92.7679 27C92.7679 28.4497 91.5926 29.625 90.1429 29.625H83.8571C82.4074 29.625 81.2321 28.4497 81.2321 27ZM103.232 27C103.232 25.5503 104.407 24.375 105.857 24.375H112.143C113.593 24.375 114.768 25.5503 114.768 27C114.768 28.4497 113.593 29.625 112.143 29.625H105.857C104.407 29.625 103.232 28.4497 103.232 27ZM125.232 27C125.232 25.5503 126.407 24.375 127.857 24.375H134.143C135.593 24.375 136.768 25.5503 136.768 27C136.768 28.4497 135.593 29.625 134.143 29.625H127.857C126.407 29.625 125.232 28.4497 125.232 27ZM147.232 27C147.232 25.5503 148.407 24.375 149.857 24.375H153C154.115 24.375 155.205 24.5003 156.253 24.7388C157.667 25.0602 158.553 26.4667 158.231 27.8804C157.91 29.2941 156.503 30.1795 155.09 29.8581C154.42 29.7059 153.721 29.625 153 29.625H149.857C148.407 29.625 147.232 28.4497 147.232 27ZM164.12 33.7689C165.533 33.4475 166.94 34.3329 167.261 35.7466C167.5 36.7953 167.625 37.8846 167.625 39V41.9762C167.625 43.4259 166.45 44.6012 165 44.6012C163.55 44.6012 162.375 43.4259 162.375 41.9762V39C162.375 38.2789 162.294 37.5799 162.142 36.9105C161.82 35.4968 162.706 34.0902 164.12 33.7689ZM9.88038 33.7689C11.2941 34.0902 12.1795 35.4968 11.8581 36.9105C11.7059 37.5799 11.625 38.2789 11.625 39V41.9762C11.625 43.426 10.4497 44.6012 9 44.6012C7.55025 44.6012 6.375 43.426 6.375 41.9762V39C6.375 37.8846 6.50034 36.7953 6.73876 35.7466C7.06016 34.3329 8.46671 33.4475 9.88038 33.7689ZM9 54.2321C10.4497 54.2321 11.625 55.4074 11.625 56.8571V62.8095C11.625 64.2593 10.4497 65.4345 9 65.4345C7.55025 65.4345 6.375 64.2593 6.375 62.8095V56.8571C6.375 55.4074 7.55025 54.2321 9 54.2321ZM165 54.2321C166.45 54.2321 167.625 55.4074 167.625 56.8571V62.8095C167.625 64.2593 166.45 65.4345 165 65.4345C163.55 65.4345 162.375 64.2593 162.375 62.8095V56.8571C162.375 55.4074 163.55 54.2321 165 54.2321ZM9 75.0655C10.4497 75.0655 11.625 76.2407 11.625 77.6905V83.6429C11.625 85.0926 10.4497 86.2679 9 86.2679C7.55025 86.2679 6.375 85.0926 6.375 83.6429V77.6905C6.375 76.2407 7.55025 75.0655 9 75.0655ZM165 75.0655C166.45 75.0655 167.625 76.2407 167.625 77.6905V83.6429C167.625 85.0926 166.45 86.2679 165 86.2679C163.55 86.2679 162.375 85.0926 162.375 83.6429V77.6905C162.375 76.2407 163.55 75.0655 165 75.0655ZM9 95.8988C10.4497 95.8988 11.625 97.0741 11.625 98.5238V104.476C11.625 105.926 10.4497 107.101 9 107.101C7.55025 107.101 6.375 105.926 6.375 104.476V98.5238C6.375 97.0741 7.55025 95.8988 9 95.8988ZM165 95.8988C166.45 95.8988 167.625 97.0741 167.625 98.5238V104.476C167.625 105.926 166.45 107.101 165 107.101C163.55 107.101 162.375 105.926 162.375 104.476V98.5238C162.375 97.0741 163.55 95.8988 165 95.8988ZM9 116.732C10.4497 116.732 11.625 117.907 11.625 119.357V125.31C11.625 126.759 10.4497 127.935 9 127.935C7.55025 127.935 6.375 126.759 6.375 125.31V119.357C6.375 117.907 7.55025 116.732 9 116.732ZM165 116.732C166.45 116.732 167.625 117.907 167.625 119.357V125.31C167.625 126.759 166.45 127.935 165 127.935C163.55 127.935 162.375 126.759 162.375 125.31V119.357C162.375 117.907 163.55 116.732 165 116.732ZM9 137.565C10.4497 137.565 11.625 138.741 11.625 140.19V146.143C11.625 147.593 10.4497 148.768 9 148.768C7.55025 148.768 6.375 147.593 6.375 146.143V140.19C6.375 138.741 7.55025 137.565 9 137.565ZM165 137.565C166.45 137.565 167.625 138.741 167.625 140.19V146.143C167.625 147.593 166.45 148.768 165 148.768C163.55 148.768 162.375 147.593 162.375 146.143V140.19C162.375 138.741 163.55 137.565 165 137.565ZM9 158.399C10.4497 158.399 11.625 159.574 11.625 161.024V166.976C11.625 168.426 10.4497 169.601 9 169.601C7.55025 169.601 6.375 168.426 6.375 166.976V161.024C6.375 159.574 7.55025 158.399 9 158.399ZM165 158.399C166.45 158.399 167.625 159.574 167.625 161.024V166.976C167.625 168.426 166.45 169.601 165 169.601C163.55 169.601 162.375 168.426 162.375 166.976V161.024C162.375 159.574 163.55 158.399 165 158.399ZM9 179.232C10.4497 179.232 11.625 180.407 11.625 181.857V187.81C11.625 189.259 10.4497 190.435 9 190.435C7.55025 190.435 6.375 189.259 6.375 187.81V181.857C6.375 180.407 7.55025 179.232 9 179.232ZM165 179.232C166.45 179.232 167.625 180.407 167.625 181.857V187.81C167.625 189.259 166.45 190.435 165 190.435C163.55 190.435 162.375 189.259 162.375 187.81V181.857C162.375 180.407 163.55 179.232 165 179.232ZM9 200.065C10.4497 200.065 11.625 201.241 11.625 202.69V208.643C11.625 210.093 10.4497 211.268 9 211.268C7.55025 211.268 6.375 210.093 6.375 208.643V202.69C6.375 201.241 7.55025 200.065 9 200.065ZM165 200.065C166.45 200.065 167.625 201.241 167.625 202.69V208.643C167.625 210.093 166.45 211.268 165 211.268C163.55 211.268 162.375 210.093 162.375 208.643V202.69C162.375 201.241 163.55 200.065 165 200.065ZM9 220.899C10.4497 220.899 11.625 222.074 11.625 223.524V226.5C11.625 227.221 11.7059 227.92 11.8581 228.59C12.1795 230.003 11.2941 231.41 9.88038 231.731C8.4667 232.053 7.06015 231.167 6.73876 229.753C6.50034 228.705 6.375 227.615 6.375 226.5V223.524C6.375 222.074 7.55025 220.899 9 220.899ZM165 220.899C166.45 220.899 167.625 222.074 167.625 223.524V226.5C167.625 227.615 167.5 228.705 167.261 229.753C166.94 231.167 165.533 232.053 164.12 231.731C162.706 231.41 161.82 230.003 162.142 228.59C162.294 227.92 162.375 227.221 162.375 226.5V223.524C162.375 222.074 163.55 220.899 165 220.899ZM15.7689 237.62C16.0902 236.206 17.4968 235.32 18.9105 235.642C19.5799 235.794 20.2789 235.875 21 235.875H24.1429C25.5926 235.875 26.7679 237.05 26.7679 238.5C26.7679 239.95 25.5926 241.125 24.1429 241.125H21C19.8846 241.125 18.7953 241 17.7466 240.761C16.3329 240.44 15.4475 239.033 15.7689 237.62ZM158.231 237.62C158.553 239.033 157.667 240.44 156.253 240.761C155.205 241 154.115 241.125 153 241.125H149.857C148.407 241.125 147.232 239.95 147.232 238.5C147.232 237.05 148.407 235.875 149.857 235.875H153C153.721 235.875 154.42 235.794 155.09 235.642C156.503 235.32 157.91 236.206 158.231 237.62ZM37.2321 238.5C37.2321 237.05 38.4074 235.875 39.8571 235.875H46.1429C47.5926 235.875 48.7679 237.05 48.7679 238.5C48.7679 239.95 47.5926 241.125 46.1429 241.125H39.8571C38.4074 241.125 37.2321 239.95 37.2321 238.5ZM59.2321 238.5C59.2321 237.05 60.4074 235.875 61.8571 235.875H68.1429C69.5926 235.875 70.7679 237.05 70.7679 238.5C70.7679 239.95 69.5926 241.125 68.1429 241.125H61.8571C60.4074 241.125 59.2321 239.95 59.2321 238.5ZM81.2321 238.5C81.2321 237.05 82.4074 235.875 83.8571 235.875H90.1429C91.5926 235.875 92.7679 237.05 92.7679 238.5C92.7679 239.95 91.5926 241.125 90.1429 241.125H83.8571C82.4074 241.125 81.2321 239.95 81.2321 238.5ZM103.232 238.5C103.232 237.05 104.407 235.875 105.857 235.875H112.143C113.593 235.875 114.768 237.05 114.768 238.5C114.768 239.95 113.593 241.125 112.143 241.125H105.857C104.407 241.125 103.232 239.95 103.232 238.5ZM125.232 238.5C125.232 237.05 126.407 235.875 127.857 235.875H134.143C135.593 235.875 136.768 237.05 136.768 238.5C136.768 239.95 135.593 241.125 134.143 241.125H127.857C126.407 241.125 125.232 239.95 125.232 238.5Z" fill="#D9D9D9"/>
<path d="M36 27C36 20.3726 41.3726 15 48 15H196.5C203.127 15 208.5 20.3726 208.5 27V238.5C208.5 245.127 203.127 250.5 196.5 250.5H48C41.3726 250.5 36 245.127 36 238.5V27Z" fill="#FAFAFA"/>
<path fill-rule="evenodd" clip-rule="evenodd" d="M48 17.625C47.2789 17.625 46.5799 17.7059 45.9105 17.8581C44.4968 18.1795 43.0902 17.2941 42.7689 15.8804C42.4475 14.4667 43.3329 13.0602 44.7466 12.7388C45.7953 12.5003 46.8846 12.375 48 12.375H51.0306C52.4804 12.375 53.6556 13.5503 53.6556 15C53.6556 16.4497 52.4804 17.625 51.0306 17.625H48ZM63.5587 15C63.5587 13.5503 64.7339 12.375 66.1837 12.375H72.2449C73.6946 12.375 74.8699 13.5503 74.8699 15C74.8699 16.4497 73.6946 17.625 72.2449 17.625H66.1837C64.7339 17.625 63.5587 16.4497 63.5587 15ZM84.773 15C84.773 13.5503 85.9482 12.375 87.398 12.375H93.4592C94.9089 12.375 96.0842 13.5503 96.0842 15C96.0842 16.4497 94.9089 17.625 93.4592 17.625H87.398C85.9482 17.625 84.773 16.4497 84.773 15ZM105.987 15C105.987 13.5503 107.162 12.375 108.612 12.375H114.673C116.123 12.375 117.298 13.5503 117.298 15C117.298 16.4497 116.123 17.625 114.673 17.625H108.612C107.162 17.625 105.987 16.4497 105.987 15ZM127.202 15C127.202 13.5503 128.377 12.375 129.827 12.375H135.888C137.338 12.375 138.513 13.5503 138.513 15C138.513 16.4497 137.338 17.625 135.888 17.625H129.827C128.377 17.625 127.202 16.4497 127.202 15ZM148.416 15C148.416 13.5503 149.591 12.375 151.041 12.375H157.102C158.552 12.375 159.727 13.5503 159.727 15C159.727 16.4497 158.552 17.625 157.102 17.625H151.041C149.591 17.625 148.416 16.4497 148.416 15ZM169.63 15C169.63 13.5503 170.805 12.375 172.255 12.375H178.316C179.766 12.375 180.941 13.5503 180.941 15C180.941 16.4497 179.766 17.625 178.316 17.625H172.255C170.805 17.625 169.63 16.4497 169.63 15ZM190.844 15C190.844 13.5503 192.02 12.375 193.469 12.375H196.5C197.615 12.375 198.705 12.5003 199.753 12.7388C201.167 13.0602 202.053 14.4667 201.731 15.8804C201.41 17.2941 200.003 18.1795 198.59 17.8581C197.92 17.7059 197.221 17.625 196.5 17.625H193.469C192.02 17.625 190.844 16.4497 190.844 15ZM36.8804 21.7689C38.2941 22.0902 39.1795 23.4968 38.8581 24.9105C38.7059 25.5799 38.625 26.2789 38.625 27V30.0214C38.625 31.4712 37.4497 32.6464 36 32.6464C34.5503 32.6464 33.375 31.4712 33.375 30.0214V27C33.375 25.8846 33.5003 24.7953 33.7388 23.7466C34.0602 22.3329 35.4667 21.4475 36.8804 21.7689ZM207.62 21.7689C209.033 21.4475 210.44 22.3329 210.761 23.7466C211 24.7953 211.125 25.8846 211.125 27V30.0214C211.125 31.4712 209.95 32.6464 208.5 32.6464C207.05 32.6464 205.875 31.4712 205.875 30.0214V27C205.875 26.2789 205.794 25.5799 205.642 24.9105C205.32 23.4968 206.206 22.0902 207.62 21.7689ZM208.5 42.5036C209.95 42.5036 211.125 43.6788 211.125 45.1286V51.1714C211.125 52.6212 209.95 53.7964 208.5 53.7964C207.05 53.7964 205.875 52.6212 205.875 51.1714V45.1286C205.875 43.6788 207.05 42.5036 208.5 42.5036ZM36 42.5036C37.4497 42.5036 38.625 43.6788 38.625 45.1286V51.1714C38.625 52.6212 37.4497 53.7964 36 53.7964C34.5503 53.7964 33.375 52.6212 33.375 51.1714V45.1286C33.375 43.6788 34.5503 42.5036 36 42.5036ZM208.5 63.6536C209.95 63.6536 211.125 64.8288 211.125 66.2786V72.3214C211.125 73.7712 209.95 74.9464 208.5 74.9464C207.05 74.9464 205.875 73.7712 205.875 72.3214V66.2786C205.875 64.8288 207.05 63.6536 208.5 63.6536ZM36 63.6536C37.4497 63.6536 38.625 64.8288 38.625 66.2786V72.3214C38.625 73.7712 37.4497 74.9464 36 74.9464C34.5503 74.9464 33.375 73.7712 33.375 72.3214V66.2786C33.375 64.8288 34.5503 63.6536 36 63.6536ZM208.5 84.8036C209.95 84.8036 211.125 85.9788 211.125 87.4286V93.4714C211.125 94.9212 209.95 96.0964 208.5 96.0964C207.05 96.0964 205.875 94.9212 205.875 93.4714V87.4286C205.875 85.9788 207.05 84.8036 208.5 84.8036ZM36 84.8036C37.4497 84.8036 38.625 85.9788 38.625 87.4286V93.4714C38.625 94.9212 37.4497 96.0964 36 96.0964C34.5503 96.0964 33.375 94.9212 33.375 93.4714V87.4286C33.375 85.9788 34.5503 84.8036 36 84.8036ZM208.5 105.954C209.95 105.954 211.125 107.129 211.125 108.579V114.621C211.125 116.071 209.95 117.246 208.5 117.246C207.05 117.246 205.875 116.071 205.875 114.621V108.579C205.875 107.129 207.05 105.954 208.5 105.954ZM36 105.954C37.4497 105.954 38.625 107.129 38.625 108.579V114.621C38.625 116.071 37.4497 117.246 36 117.246C34.5503 117.246 33.375 116.071 33.375 114.621V108.579C33.375 107.129 34.5503 105.954 36 105.954ZM208.5 127.104C209.95 127.104 211.125 128.279 211.125 129.729V135.771C211.125 137.221 209.95 138.396 208.5 138.396C207.05 138.396 205.875 137.221 205.875 135.771V129.729C205.875 128.279 207.05 127.104 208.5 127.104ZM36 127.104C37.4497 127.104 38.625 128.279 38.625 129.729V135.771C38.625 137.221 37.4497 138.396 36 138.396C34.5503 138.396 33.375 137.221 33.375 135.771V129.729C33.375 128.279 34.5503 127.104 36 127.104ZM208.5 148.254C209.95 148.254 211.125 149.429 211.125 150.879V156.921C211.125 158.371 209.95 159.546 208.5 159.546C207.05 159.546 205.875 158.371 205.875 156.921V150.879C205.875 149.429 207.05 148.254 208.5 148.254ZM36 148.254C37.4497 148.254 38.625 149.429 38.625 150.879V156.921C38.625 158.371 37.4497 159.546 36 159.546C34.5503 159.546 33.375 158.371 33.375 156.921V150.879C33.375 149.429 34.5503 148.254 36 148.254ZM208.5 169.404C209.95 169.404 211.125 170.579 211.125 172.029V178.071C211.125 179.521 209.95 180.696 208.5 180.696C207.05 180.696 205.875 179.521 205.875 178.071V172.029C205.875 170.579 207.05 169.404 208.5 169.404ZM36 169.404C37.4497 169.404 38.625 170.579 38.625 172.029V178.071C38.625 179.521 37.4497 180.696 36 180.696C34.5503 180.696 33.375 179.521 33.375 178.071V172.029C33.375 170.579 34.5503 169.404 36 169.404ZM208.5 190.554C209.95 190.554 211.125 191.729 211.125 193.179V199.221C211.125 200.671 209.95 201.846 208.5 201.846C207.05 201.846 205.875 200.671 205.875 199.221V193.179C205.875 191.729 207.05 190.554 208.5 190.554ZM36 190.554C37.4497 190.554 38.625 191.729 38.625 193.179V199.221C38.625 200.671 37.4497 201.846 36 201.846C34.5503 201.846 33.375 200.671 33.375 199.221V193.179C33.375 191.729 34.5503 190.554 36 190.554ZM36 211.704C37.4497 211.704 38.625 212.879 38.625 214.329V220.371C38.625 221.821 37.4497 222.996 36 222.996C34.5503 222.996 33.375 221.821 33.375 220.371V214.329C33.375 212.879 34.5503 211.704 36 211.704ZM208.5 211.704C209.95 211.704 211.125 212.879 211.125 214.329V220.371C211.125 221.821 209.95 222.996 208.5 222.996C207.05 222.996 205.875 221.821 205.875 220.371V214.329C205.875 212.879 207.05 211.704 208.5 211.704ZM208.5 232.854C209.95 232.854 211.125 234.029 211.125 235.479V238.5C211.125 239.615 211 240.705 210.761 241.753C210.44 243.167 209.033 244.053 207.62 243.731C206.206 243.41 205.32 242.003 205.642 240.59C205.794 239.92 205.875 239.221 205.875 238.5V235.479C205.875 234.029 207.05 232.854 208.5 232.854ZM36 232.854C37.4497 232.854 38.625 234.029 38.625 235.479V238.5C38.625 239.221 38.7059 239.92 38.8581 240.59C39.1795 242.003 38.2941 243.41 36.8804 243.731C35.4667 244.053 34.0602 243.167 33.7388 241.753C33.5003 240.705 33.375 239.615 33.375 238.5V235.479C33.375 234.029 34.5503 232.854 36 232.854ZM42.7689 249.62C43.0902 248.206 44.4968 247.32 45.9105 247.642C46.5799 247.794 47.2789 247.875 48 247.875H51.0306C52.4803 247.875 53.6556 249.05 53.6556 250.5C53.6556 251.95 52.4803 253.125 51.0306 253.125H48C46.8846 253.125 45.7953 253 44.7466 252.761C43.3329 252.44 42.4475 251.033 42.7689 249.62ZM201.731 249.62C202.053 251.033 201.167 252.44 199.753 252.761C198.705 253 197.615 253.125 196.5 253.125H193.469C192.02 253.125 190.844 251.95 190.844 250.5C190.844 249.05 192.02 247.875 193.469 247.875H196.5C197.221 247.875 197.92 247.794 198.59 247.642C200.003 247.32 201.41 248.206 201.731 249.62ZM63.5587 250.5C63.5587 249.05 64.7339 247.875 66.1837 247.875H72.2449C73.6946 247.875 74.8699 249.05 74.8699 250.5C74.8699 251.95 73.6946 253.125 72.2449 253.125H66.1837C64.7339 253.125 63.5587 251.95 63.5587 250.5ZM84.7729 250.5C84.7729 249.05 85.9482 247.875 87.3979 247.875H93.4592C94.9089 247.875 96.0842 249.05 96.0842 250.5C96.0842 251.95 94.9089 253.125 93.4592 253.125H87.3979C85.9482 253.125 84.7729 251.95 84.7729 250.5ZM105.987 250.5C105.987 249.05 107.162 247.875 108.612 247.875H114.673C116.123 247.875 117.298 249.05 117.298 250.5C117.298 251.95 116.123 253.125 114.673 253.125H108.612C107.162 253.125 105.987 251.95 105.987 250.5ZM127.202 250.5C127.202 249.05 128.377 247.875 129.827 247.875H135.888C137.338 247.875 138.513 249.05 138.513 250.5C138.513 251.95 137.338 253.125 135.888 253.125H129.827C128.377 253.125 127.202 251.95 127.202 250.5ZM148.416 250.5C148.416 249.05 149.591 247.875 151.041 247.875H157.102C158.552 247.875 159.727 249.05 159.727 250.5C159.727 251.95 158.552 253.125 157.102 253.125H151.041C149.591 253.125 148.416 251.95 148.416 250.5ZM169.63 250.5C169.63 249.05 170.805 247.875 172.255 247.875H178.316C179.766 247.875 180.941 249.05 180.941 250.5C180.941 251.95 179.766 253.125 178.316 253.125H172.255C170.805 253.125 169.63 251.95 169.63 250.5Z" fill="#8C8C8C"/>
<path fill-rule="evenodd" clip-rule="evenodd" d="M194.343 189.843C220.372 163.814 220.372 121.613 194.343 95.5847C168.314 69.556 126.114 69.556 100.085 95.5847C74.0563 121.613 74.0563 163.814 100.085 189.843C126.114 215.871 168.314 215.871 194.343 189.843ZM186.321 181.821C207.919 160.222 207.919 125.205 186.321 103.607C164.723 82.0084 129.705 82.0084 108.107 103.607C86.5088 125.205 86.5088 160.222 108.107 181.821C129.705 203.419 164.723 203.419 186.321 181.821Z" fill="#D9D9D9"/>
<path opacity="0.2" d="M186.321 103.607C207.919 125.205 207.919 160.223 186.321 181.821C164.723 203.419 129.705 203.419 108.107 181.821C86.5088 160.223 86.5088 125.205 108.107 103.607C129.705 82.0088 164.723 82.0088 186.321 103.607Z" fill="#BFBFBF"/>
<path d="M203.112 215.869L223.206 195.775L281.346 253.914C286.895 259.463 286.895 268.46 281.346 274.008C275.797 279.557 266.8 279.557 261.252 274.008L203.112 215.869Z" fill="#D9D9D9"/>
<path d="M189.093 193.789L201.126 181.756L217.17 197.8L205.137 209.833L189.093 193.789Z" fill="#D9D9D9"/>
<path d="M197.346 218.086C195.003 215.743 195.003 211.944 197.346 209.601L216.938 190.009C219.281 187.666 223.08 187.666 225.423 190.009L226.965 191.552C229.309 193.895 229.309 197.694 226.965 200.037L207.374 219.628C205.031 221.972 201.232 221.972 198.889 219.628L197.346 218.086Z" fill="#D9D9D9"/>
<path fill-rule="evenodd" clip-rule="evenodd" d="M172.714 144C172.714 158.202 161.202 169.714 147 169.714C132.798 169.714 121.286 158.202 121.286 144C121.286 129.798 132.798 118.286 147 118.286C161.202 118.286 172.714 129.798 172.714 144ZM177 144C177 160.569 163.569 174 147 174C130.431 174 117 160.569 117 144C117 127.431 130.431 114 147 114C163.569 114 177 127.431 177 144ZM139.798 134.416C139.108 133.726 137.988 133.726 137.298 134.416C136.608 135.107 136.608 136.226 137.298 136.916L144.382 144L137.298 151.084C136.608 151.774 136.608 152.893 137.298 153.584C137.988 154.274 139.108 154.274 139.798 153.584L146.882 146.5L153.965 153.584C154.656 154.274 155.775 154.274 156.466 153.584C157.156 152.893 157.156 151.774 156.466 151.084L149.382 144L156.466 136.916C157.156 136.226 157.156 135.107 156.466 134.416C155.775 133.726 154.656 133.726 153.965 134.416L146.882 141.5L139.798 134.416Z" fill="#8C8C8C"/>
</svg>
