<svg width="237" height="257" viewBox="0 0 237 257" fill="none" xmlns="http://www.w3.org/2000/svg">
<path d="M76.2521 240.671C90.8781 228.035 92.3451 207.226 89.8266 188.923C89.4048 185.869 89.4111 182.601 87.6733 180.058C85.9356 177.52 82.3405 176.028 79.7339 177.608C77.568 178.918 76.8502 181.669 75.7987 183.986C74.4073 187.078 72.1281 189.747 69.3137 191.599C67.4626 192.814 65.1141 193.683 63.0742 192.82C60.2786 191.636 59.5924 188.01 59.2964 184.956C58.7487 179.271 58.1946 173.579 57.6468 167.893C57.3509 164.84 57.0361 161.729 55.7895 158.928C54.5428 156.132 52.1692 153.658 49.1848 153.141C46.2004 152.631 42.7815 154.671 42.4793 157.719C42.3534 158.984 42.7375 160.25 42.7815 161.528C42.8256 162.806 42.3849 164.267 41.2138 164.739C40.0364 165.224 38.7268 164.481 37.7194 163.688C34.2565 160.93 31.7065 157.184 29.3077 153.45C26.9026 149.71 24.5478 145.869 21.3493 142.809C18.1446 139.743 13.9198 137.489 9.52508 137.697C5.13034 137.898 0.754494 141.078 0.0933948 145.479C-0.567705 149.893 2.3915 153.998 5.47663 157.196C10.0603 161.943 15.3239 166.017 21.0471 169.247C22.0797 169.833 23.1941 170.462 23.6789 171.551C24.5541 173.516 22.8352 175.732 20.896 176.607C18.6986 177.602 16.2116 177.615 13.8632 178.144C11.5147 178.666 9.04657 179.982 8.37918 182.324C7.45364 185.573 10.394 188.57 13.1832 190.446C18.7616 194.205 24.9759 196.982 31.4736 198.631C33.8032 199.223 36.2398 199.695 38.2105 201.087C40.1812 202.478 41.5601 205.104 40.6849 207.364C39.8097 209.631 37.0772 210.607 34.6846 210.412C32.2921 210.216 30.0569 209.159 27.7274 208.548C23.3704 207.396 17.9872 208.246 15.6765 212.143C14.1591 214.706 14.3417 218.036 15.5316 220.781C16.7153 223.526 18.7805 225.787 20.9338 227.839C28.464 235.03 37.7194 240.488 47.787 242.856C57.8483 245.217 66.9526 245.198 76.2521 240.671Z" fill="#F5F5F5"/>
<path d="M77.8956 254.264C76.4789 247.055 73.9982 238.625 70.3213 229.64C66.6632 220.649 61.834 211.123 56.4382 201.339C55.0782 198.896 53.7371 196.484 52.4149 194.104C51.0927 191.737 49.7768 189.382 48.3476 187.16C45.5143 182.708 42.4481 178.641 39.4133 174.87C36.3848 171.098 33.369 167.629 30.5294 164.412C27.6835 161.194 24.9698 158.248 22.3821 155.666C17.2255 150.478 12.5789 146.801 9.28604 144.402C7.64273 143.2 6.33312 142.306 5.43907 141.714C5.01093 141.43 4.67093 141.21 4.41908 141.046C4.18612 140.902 4.0665 140.826 4.0602 140.839C4.0539 140.845 4.16724 140.933 4.3876 141.097C4.63315 141.273 4.96056 141.512 5.3761 141.808C6.24498 142.432 7.5357 143.351 9.15382 144.585C12.4026 147.034 16.9926 150.749 22.0988 155.956C24.6613 158.55 27.3498 161.503 30.1768 164.733C32.9975 167.969 35.9945 171.438 39.0103 175.21C42.0199 178.975 45.0673 183.036 47.8817 187.468C49.2983 189.678 50.5953 192.008 51.9238 194.388C53.246 196.761 54.5808 199.179 55.9408 201.616C61.3303 211.394 66.1595 220.888 69.8365 229.842C73.526 238.788 76.0382 247.169 77.4989 254.34" fill="#E0E0E0"/>
<path d="M48.1898 187.16C48.2276 187.16 48.2842 186.687 48.3535 185.825C48.4291 184.969 48.492 183.722 48.5487 182.179C48.6683 179.101 48.6872 174.838 48.6872 170.141C48.6872 165.438 48.7691 161.194 48.9328 158.122C49.0083 156.585 49.0839 155.345 49.1468 154.489C49.2035 153.632 49.2224 153.154 49.1783 153.148C49.1405 153.141 49.0524 153.614 48.9265 154.464C48.7942 155.314 48.662 156.56 48.5298 158.096C48.2591 161.169 48.1205 165.438 48.1205 170.141C48.1331 174.775 48.1394 178.968 48.1457 182.173C48.1394 183.621 48.1331 184.843 48.1268 185.819C48.1331 186.681 48.152 187.16 48.1898 187.16Z" fill="#E0E0E0"/>
<path d="M8.22175 183.873C8.22175 183.911 8.7884 183.917 9.80209 183.898C10.8158 183.886 12.2891 183.854 14.1024 183.879C17.7353 183.898 22.747 184.093 28.2751 184.559C33.8032 185.032 38.7834 185.674 42.3723 186.24C44.173 186.511 45.6211 186.769 46.6222 186.939C47.6233 187.116 48.1836 187.197 48.1899 187.16C48.1962 187.122 47.6548 186.971 46.6663 186.725C45.6778 186.486 44.2359 186.165 42.4415 185.844C38.859 185.176 33.8661 184.465 28.3255 183.993C22.7848 183.533 17.7479 183.395 14.1087 183.483C12.2891 183.514 10.8158 183.602 9.80209 183.684C8.77581 183.766 8.21545 183.835 8.22175 183.873Z" fill="#E0E0E0"/>
<path d="M69.767 228.973C69.7858 228.979 69.8614 228.803 69.9873 228.469C70.1321 228.066 70.3021 227.575 70.5099 226.983C70.9569 225.692 71.5614 223.797 72.2728 221.455C73.7021 216.771 75.4713 210.229 77.3224 202.995C79.1798 195.754 80.886 189.206 82.2145 184.496C82.8693 182.205 83.4045 180.322 83.8012 178.924C83.9712 178.32 84.1097 177.816 84.223 177.407C84.3112 177.061 84.3552 176.872 84.3363 176.865C84.3174 176.859 84.2419 177.035 84.116 177.375C83.9712 177.778 83.8012 178.269 83.5934 178.861C83.1464 180.158 82.5419 182.047 81.8305 184.389C80.4012 189.074 78.632 195.615 76.7746 202.856C74.9172 210.097 73.211 216.638 71.8825 221.348C71.2277 223.64 70.6925 225.522 70.2958 226.92C70.1258 227.531 69.9873 228.028 69.874 228.437C69.7859 228.777 69.7481 228.966 69.767 228.973Z" fill="#E0E0E0"/>
<path d="M15.9284 217.551C15.9284 217.57 16.111 217.627 16.4699 217.709C16.8917 217.803 17.408 217.917 18.0376 218.061C19.4795 218.37 21.4313 218.785 23.8049 219.295C28.6719 220.341 35.3836 221.852 42.7942 223.539C50.2048 225.226 56.9355 226.681 61.8276 227.625C64.2705 228.097 66.2538 228.456 67.6327 228.677C68.2686 228.777 68.7912 228.853 69.2193 228.922C69.5845 228.973 69.7734 228.992 69.7797 228.966C69.7797 228.947 69.5971 228.891 69.2382 228.803C68.8164 228.708 68.3001 228.595 67.6705 228.45C66.2286 228.142 64.2768 227.726 61.9032 227.216C57.0362 226.177 50.3245 224.66 42.9139 222.972C35.5033 221.285 28.7726 219.831 23.8868 218.892C21.4439 218.42 19.4606 218.061 18.0817 217.841C17.4458 217.74 16.9232 217.658 16.4951 217.595C16.1236 217.551 15.9284 217.532 15.9284 217.551Z" fill="#E0E0E0"/>
<path d="M61.286 101.525C60.8138 101.525 60.3605 101.261 60.1464 100.808L57.4139 95.1221C57.2439 94.7632 57.2502 94.3477 57.4265 93.9951C57.6091 93.6425 57.9428 93.3969 58.3331 93.3277C59.3594 93.1514 60.2975 92.5092 60.9083 91.5647C61.4749 90.6959 61.6701 89.6948 61.4497 88.807C61.2294 87.9255 60.5872 87.1196 59.6742 86.6033C58.7046 86.0493 57.5461 85.8856 56.5828 86.1752C54.6121 86.7607 53.2017 89.0714 53.504 91.2121C53.5984 91.9047 53.1199 92.5469 52.4273 92.6414C51.7221 92.7358 51.0925 92.2573 50.9981 91.5647C50.5259 88.1963 52.7043 84.6893 55.865 83.7449C57.502 83.2538 59.3531 83.493 60.9335 84.3997C62.4382 85.2623 63.5212 86.6411 63.9115 88.1963C64.3019 89.7577 63.9808 91.4892 63.0301 92.9436C62.3438 93.9951 61.3994 94.8199 60.3164 95.3236L62.4194 99.7057C62.7216 100.335 62.4571 101.091 61.8275 101.393C61.6512 101.481 61.4686 101.525 61.286 101.525Z" fill="#E0E0E0"/>
<path d="M64.0061 103.156C64.2643 103.666 64.0628 104.289 63.5591 104.547C63.0491 104.806 62.4258 104.604 62.1676 104.1C61.9095 103.59 62.111 102.967 62.6146 102.709C63.1183 102.451 63.7417 102.646 64.0061 103.156Z" fill="#E0E0E0"/>
<path d="M26.6821 82.4793C26.3547 82.4793 26.0399 82.2967 25.8825 81.9756L23.9748 78.009C23.8551 77.7572 23.8614 77.4676 23.9874 77.222C24.1133 76.9765 24.3462 76.8002 24.6233 76.7561C25.341 76.6302 25.9958 76.1831 26.424 75.522C26.8206 74.9176 26.9592 74.2187 26.8018 73.5954C26.6506 72.9784 26.1973 72.418 25.5614 72.0528C24.8814 71.6625 24.0755 71.5554 23.4018 71.7569C22.023 72.1662 21.0407 73.778 21.2485 75.2765C21.3178 75.7613 20.9778 76.2083 20.4993 76.2776C20.0082 76.3468 19.5674 76.0068 19.4982 75.522C19.1708 73.1673 20.6945 70.718 22.8981 70.0632C24.0377 69.7233 25.3347 69.8869 26.4366 70.5229C27.488 71.121 28.2436 72.0906 28.5143 73.1736C28.7851 74.2691 28.5647 75.4717 27.9036 76.4917C27.4251 77.222 26.764 77.8013 26.0084 78.1538L27.4817 81.2138C27.6958 81.6545 27.5069 82.1834 27.0662 82.3912C26.9403 82.4541 26.8081 82.4793 26.6821 82.4793Z" fill="#F5F5F5"/>
<path d="M28.5775 83.6251C28.7601 83.9777 28.6216 84.4185 28.2627 84.601C27.9101 84.7836 27.4694 84.6451 27.2868 84.2862C27.1042 83.9274 27.2427 83.4929 27.6016 83.3103C27.9605 83.1277 28.3949 83.2663 28.5775 83.6251Z" fill="#F5F5F5"/>
<path d="M183.785 84.6201C183.923 84.916 183.892 85.2812 183.671 85.5582L180.901 88.977C180.725 89.1911 180.46 89.3107 180.183 89.3044C179.906 89.2981 179.648 89.1596 179.491 88.9329C179.069 88.3411 178.383 87.9381 177.608 87.8311C176.89 87.7304 176.198 87.9067 175.707 88.3096C175.216 88.7126 174.901 89.3611 174.844 90.0851C174.781 90.8659 175.027 91.6403 175.499 92.1629C176.462 93.2332 178.339 93.4347 179.598 92.6036C180.007 92.3329 180.555 92.4462 180.819 92.8555C181.09 93.271 180.977 93.8125 180.567 94.0832C178.584 95.3865 175.719 95.0591 174.177 93.3466C173.377 92.4588 172.974 91.2185 173.075 89.9529C173.169 88.7441 173.717 87.6485 174.58 86.9433C175.449 86.2319 176.639 85.9171 177.841 86.0808C178.71 86.2004 179.51 86.553 180.158 87.0819L182.293 84.4438C182.601 84.066 183.155 84.003 183.539 84.3115C183.646 84.3997 183.728 84.5067 183.785 84.6201Z" fill="#F5F5F5"/>
<path d="M184.005 82.4164C184.251 82.1016 184.704 82.0386 185.019 82.2842C185.334 82.5297 185.397 82.983 185.151 83.2978C184.906 83.6126 184.452 83.6756 184.137 83.4301C183.816 83.1845 183.76 82.7312 184.005 82.4164Z" fill="#F5F5F5"/>
<path d="M174.554 2.49249C174.693 2.78841 174.661 3.15359 174.441 3.43062L171.671 6.84945C171.494 7.06352 171.23 7.18315 170.953 7.17686C170.676 7.17056 170.418 7.03204 170.26 6.80538C169.838 6.21354 169.152 5.81058 168.378 5.70355C167.66 5.60281 166.967 5.7791 166.476 6.18206C165.985 6.58501 165.67 7.23352 165.614 7.95758C165.551 8.73831 165.796 9.51274 166.268 10.0353C167.232 11.1057 169.108 11.3072 170.367 10.4761C170.777 10.2053 171.324 10.3187 171.589 10.7279C171.859 11.1435 171.746 11.6849 171.337 11.9557C169.354 13.259 166.489 12.9316 164.946 11.219C164.147 10.3312 163.744 9.0909 163.844 7.82536C163.939 6.6165 164.487 5.52096 165.349 4.81579C166.218 4.10432 167.408 3.78951 168.611 3.95321C169.48 4.07284 170.279 4.42542 170.928 4.9543L173.062 2.3162C173.371 1.93843 173.925 1.87547 174.309 2.18398C174.416 2.27213 174.498 2.37287 174.554 2.49249Z" fill="#F5F5F5"/>
<path d="M174.775 0.282581C175.02 -0.0322279 175.474 -0.0951892 175.788 0.150362C176.103 0.395913 176.166 0.849238 175.921 1.16405C175.675 1.47886 175.222 1.54182 174.907 1.29627C174.586 1.05701 174.529 0.603687 174.775 0.282581Z" fill="#F5F5F5"/>
<path d="M104.654 15.1163C105.082 15.1163 105.492 15.3556 105.693 15.7711L108.174 20.9277C108.331 21.2551 108.325 21.6329 108.161 21.9477C107.997 22.2688 107.689 22.4892 107.336 22.5521C106.405 22.7158 105.555 23.2951 104.994 24.1514C104.484 24.9384 104.302 25.8513 104.503 26.6509C104.698 27.4506 105.29 28.1809 106.115 28.6531C106.996 29.1568 108.048 29.3016 108.923 29.0435C110.711 28.5083 111.989 26.418 111.719 24.4725C111.63 23.8428 112.065 23.2636 112.694 23.1755C113.337 23.0873 113.903 23.528 113.991 24.1514C114.42 27.2113 112.443 30.3909 109.578 31.2472C108.092 31.6879 106.411 31.4738 104.975 30.6553C103.609 29.8746 102.627 28.6217 102.274 27.2113C101.922 25.7884 102.211 24.2206 103.074 22.9047C103.697 21.954 104.553 21.2047 105.536 20.7451L103.628 16.7722C103.351 16.1993 103.596 15.513 104.169 15.236C104.314 15.1541 104.484 15.1163 104.654 15.1163Z" fill="#E0E0E0"/>
<path d="M102.186 13.6305C101.947 13.1709 102.13 12.6042 102.595 12.3649C103.055 12.1257 103.622 12.3083 103.861 12.7742C104.1 13.2338 103.918 13.8005 103.452 14.0397C102.986 14.279 102.419 14.0964 102.186 13.6305Z" fill="#E0E0E0"/>
<path d="M190.068 116.989C190.496 116.989 190.906 117.228 191.107 117.643L193.582 122.8C193.739 123.127 193.733 123.505 193.569 123.82C193.405 124.141 193.097 124.361 192.744 124.424C191.812 124.588 190.962 125.167 190.402 126.024C189.892 126.811 189.709 127.724 189.911 128.523C190.106 129.323 190.698 130.053 191.523 130.525C192.404 131.029 193.456 131.174 194.331 130.916C196.119 130.381 197.397 128.29 197.126 126.345C197.038 125.715 197.473 125.136 198.102 125.048C198.744 124.96 199.311 125.4 199.399 126.024C199.827 129.084 197.85 132.263 194.986 133.119C193.5 133.56 191.819 133.346 190.383 132.528C189.017 131.747 188.035 130.494 187.682 129.084C187.329 127.667 187.619 126.093 188.482 124.777C189.105 123.826 189.961 123.077 190.944 122.617L189.036 118.645C188.759 118.072 189.004 117.385 189.577 117.108C189.728 117.026 189.898 116.989 190.068 116.989Z" fill="#E0E0E0"/>
<path d="M187.6 115.503C187.361 115.043 187.543 114.477 188.009 114.237C188.475 113.998 189.036 114.181 189.275 114.647C189.514 115.106 189.332 115.673 188.866 115.912C188.4 116.151 187.833 115.969 187.6 115.503Z" fill="#E0E0E0"/>
<path d="M207.251 150.321C207.251 150.321 202.409 146.6 195.351 158.311C188.293 170.021 185.447 176.859 185.447 176.859C185.447 176.859 183.627 179.289 181.997 177.501C180.366 175.713 178.307 170.821 175.272 171.457C172.124 172.118 170.865 175.487 171.092 180.586C171.318 185.686 171.406 196.868 171.413 197.882C171.419 198.877 170.745 200.287 169.442 199.248C168.139 198.21 160.867 188.847 156.629 192.562C152.392 196.277 155.357 210.374 155.653 211.923C155.949 213.471 155.603 214.095 154.854 214.422C154.105 214.75 151.958 211.369 149.779 208.793C147.601 206.218 144.629 203.612 142.362 205.96C140.096 208.309 138.691 218.628 147.355 236.169L151.901 244.033L161.024 244.178C180.567 243.297 188.929 237.082 189.892 233.966C190.855 230.849 187.134 229.502 183.829 228.84C180.523 228.179 176.525 227.928 176.45 227.115C176.374 226.303 176.758 225.699 178.257 225.214C179.755 224.723 193.531 220.517 194.74 215.014C195.949 209.511 184.244 207.66 182.702 207.024C181.159 206.382 182.078 205.116 182.947 204.638C183.835 204.153 193.676 198.827 198.247 196.566C202.818 194.306 205.16 191.573 204.222 188.501C203.316 185.535 198.039 186.096 195.685 185.529C193.33 184.962 194.583 182.198 194.583 182.198C194.583 182.198 199.198 176.406 206.048 164.569C212.892 152.732 207.144 150.258 207.144 150.258" fill="#EBEBEB"/>
<path d="M200.91 160.791C200.91 160.791 200.873 160.879 200.778 161.049C200.677 161.226 200.545 161.471 200.369 161.786C199.997 162.441 199.462 163.385 198.77 164.6C197.378 167.043 195.345 170.557 192.813 174.895C187.751 183.565 180.656 195.49 172.779 208.63C164.902 221.776 157.781 233.682 152.675 242.327C150.132 246.646 148.073 250.14 146.637 252.571C145.926 253.773 145.378 254.705 144.994 255.354C144.805 255.662 144.667 255.901 144.559 256.071C144.459 256.235 144.402 256.311 144.402 256.311C144.402 256.311 144.44 256.223 144.534 256.053C144.629 255.876 144.767 255.631 144.944 255.316C145.315 254.661 145.85 253.717 146.543 252.508C147.934 250.071 149.968 246.552 152.499 242.22C157.561 233.55 164.657 221.625 172.533 208.479C180.41 195.338 187.531 183.432 192.637 174.788C195.181 170.469 197.24 166.974 198.675 164.544C199.387 163.341 199.934 162.403 200.319 161.761C200.507 161.452 200.646 161.213 200.753 161.043C200.854 160.873 200.91 160.791 200.91 160.791Z" fill="#E0E0E0"/>
<path d="M177.879 178.414C177.898 178.408 177.961 178.635 178.062 179.044C178.162 179.453 178.295 180.051 178.452 180.788C178.76 182.268 179.132 184.32 179.503 186.593C179.862 188.835 180.183 190.862 180.429 192.411C180.542 193.11 180.643 193.695 180.719 194.174C180.788 194.589 180.819 194.822 180.8 194.828C180.782 194.835 180.712 194.608 180.612 194.199C180.511 193.79 180.379 193.191 180.234 192.449C179.944 190.969 179.598 188.91 179.226 186.637C178.855 184.402 178.515 182.375 178.263 180.826C178.143 180.127 178.043 179.541 177.961 179.063C177.892 178.647 177.86 178.414 177.879 178.414Z" fill="#E0E0E0"/>
<path d="M181.619 195.042C181.6 194.967 185.8 194.01 190.994 192.914C196.188 191.813 200.413 190.988 200.426 191.063C200.444 191.139 196.245 192.096 191.051 193.191C185.863 194.287 181.638 195.118 181.619 195.042Z" fill="#E0E0E0"/>
<path d="M168.611 214.68C168.611 214.661 168.85 214.668 169.285 214.699C169.769 214.737 170.38 214.781 171.104 214.838C172.64 214.951 174.762 215.096 177.104 215.171C179.453 215.253 181.575 215.253 183.117 215.241C183.841 215.234 184.452 215.228 184.943 215.228C185.371 215.228 185.611 215.234 185.611 215.253C185.611 215.272 185.371 215.304 184.943 215.335C184.515 215.367 183.892 215.411 183.124 215.436C181.581 215.499 179.453 215.53 177.098 215.448C174.743 215.373 172.622 215.197 171.092 215.033C170.323 214.945 169.706 214.869 169.278 214.806C168.844 214.743 168.611 214.699 168.611 214.68Z" fill="#E0E0E0"/>
<path d="M161.918 200.382C161.937 200.375 162.05 200.564 162.239 200.917C162.447 201.326 162.712 201.824 163.014 202.415C163.656 203.687 164.525 205.45 165.476 207.402C166.42 209.354 167.264 211.136 167.862 212.426C168.133 213.031 168.365 213.547 168.554 213.963C168.712 214.328 168.794 214.536 168.775 214.542C168.756 214.548 168.643 214.359 168.454 214.007C168.246 213.597 167.981 213.1 167.679 212.508C167.037 211.236 166.168 209.473 165.217 207.522C164.273 205.57 163.429 203.788 162.831 202.497C162.56 201.893 162.327 201.377 162.139 200.961C161.981 200.596 161.899 200.388 161.918 200.382Z" fill="#E0E0E0"/>
<path d="M148.237 216.261C148.255 216.254 148.394 216.494 148.64 216.947C148.898 217.444 149.238 218.087 149.641 218.861C150.472 220.485 151.605 222.733 152.845 225.226C154.079 227.72 155.188 229.986 155.975 231.63C156.346 232.417 156.655 233.078 156.894 233.588C157.108 234.054 157.215 234.312 157.196 234.324C157.177 234.331 157.039 234.091 156.793 233.638C156.535 233.141 156.195 232.498 155.792 231.724C154.961 230.1 153.828 227.852 152.587 225.359C151.353 222.865 150.245 220.599 149.458 218.955C149.087 218.168 148.778 217.507 148.539 216.997C148.325 216.531 148.218 216.267 148.237 216.261Z" fill="#E0E0E0"/>
<path d="M157.095 233.827C157.095 233.808 157.397 233.808 157.945 233.827C158.543 233.852 159.318 233.877 160.256 233.915C162.208 233.991 164.902 234.079 167.88 234.098C170.859 234.117 173.56 234.066 175.511 234.016C176.45 233.991 177.23 233.972 177.822 233.959C178.37 233.947 178.672 233.953 178.672 233.972C178.672 233.991 178.37 234.029 177.828 234.073C177.281 234.117 176.494 234.173 175.518 234.224C173.566 234.324 170.865 234.413 167.88 234.387C164.896 234.368 162.195 234.249 160.249 234.123C159.274 234.06 158.487 233.997 157.939 233.947C157.391 233.884 157.095 233.846 157.095 233.827Z" fill="#E0E0E0"/>
<path d="M237 254.233C237 254.321 185.951 254.397 122.995 254.397C60.0143 254.397 8.97739 254.321 8.97739 254.233C8.97739 254.145 60.0143 254.069 122.995 254.069C185.951 254.069 237 254.139 237 254.233Z" fill="#00476F"/>
<path d="M181.732 215.31L172.143 169.574C172.143 169.574 166.521 147.532 147.172 139.938L145.838 139.529C145.806 139.516 143.999 138.969 143.974 138.956C143.193 138.654 140.02 137.647 139.182 137.388C113.091 128.341 106.165 130.696 78.9783 139.976C78.9783 139.976 66.8959 143.225 61.0468 158.984C55.1913 174.744 43.9841 199.387 43.9841 199.387L71.1081 208.963L76.3087 201.238V229.753V254.076H108.501H150.919L148.86 229.753L148.501 199.79" fill="#F26522"/>
<path d="M105.794 142.778C105.806 142.797 105.586 142.998 105.17 143.357C104.963 143.54 104.704 143.754 104.39 143.974C104.075 144.201 103.722 144.472 103.3 144.723C102.476 145.259 101.443 145.8 100.247 146.31C99.0441 146.795 97.6779 147.236 96.2109 147.531C94.7376 147.808 93.3083 147.922 92.0113 147.922C90.7143 147.903 89.5495 147.79 88.5862 147.601C88.1014 147.531 87.6732 147.406 87.2955 147.317C86.9177 147.236 86.5966 147.129 86.3384 147.04C85.8222 146.864 85.5388 146.763 85.5451 146.738C85.564 146.675 86.7099 147.072 88.624 147.368C89.581 147.525 90.7332 147.607 92.0113 147.613C93.2894 147.594 94.6935 147.475 96.1479 147.204C97.596 146.914 98.9434 146.493 100.133 146.027C101.317 145.542 102.35 145.026 103.181 144.522C104.843 143.527 105.75 142.721 105.794 142.778Z" fill="#FAFAFA"/>
<g opacity="0.3">
<path opacity="0.3" d="M76.3087 221.342L82.4223 228.406H88.4351V236.1L150.61 250.474L150.106 244.486L91.6084 224.402H81.8052L77.0768 220.624L76.3087 221.342Z" fill="black"/>
</g>
<path d="M94.618 215.052L89.4299 214.089C89.4299 214.089 77.1398 200.646 74.8291 200.451C72.9339 200.294 62.476 200.394 58.8305 200.438C58.1379 200.445 57.5775 201.011 57.5775 201.704C57.5775 202.384 58.1127 202.944 58.7927 202.969L71.1458 203.448L71.2025 204.443L58.8305 204.606C57.5712 204.701 56.7653 206.697 60.7949 207.056L71.1458 207.421V208.063L60.6501 209.53C60.1212 209.606 58.7234 209.876 58.7108 210.412C58.7108 210.412 58.0749 211.727 61.0656 212.099C62.0919 212.225 71.2025 211.923 71.2025 211.923L70.8499 212.741L61.4182 214.775C60.7319 214.926 60.2786 215.574 60.373 216.273C60.4738 216.985 61.1097 217.488 61.8274 217.419L71.9013 216.487L81.7864 224.383H95.0083L94.618 215.052Z" fill="#FFBE9D"/>
<path d="M181.732 215.31L151.561 221.247L148.495 199.79" fill="#F26522"/>
<path d="M147.537 216.129L91.6083 214.322L91.6146 233.651L128.724 241.024L154.778 245.186C170.972 245.186 183.923 230.32 181.417 214.322L181.348 214.341L147.537 216.129Z" fill="#F26522"/>
<path d="M162.938 215.776C162.938 215.788 162.686 215.807 162.214 215.826C161.698 215.839 161.005 215.858 160.136 215.883C158.285 215.914 155.685 215.965 152.486 216.021C146.026 216.116 137.105 216.223 127.251 216.128C117.391 216.034 108.47 215.675 102.022 215.241C98.7988 215.027 96.1921 214.819 94.3977 214.636C93.5289 214.548 92.8426 214.479 92.3263 214.422C91.8541 214.372 91.6085 214.334 91.6085 214.321C91.6085 214.309 91.8604 214.315 92.3326 214.334C92.8489 214.366 93.5352 214.41 94.4103 214.466C96.211 214.592 98.8177 214.756 102.041 214.932C108.489 215.291 117.404 215.593 127.258 215.694C137.105 215.788 146.026 215.726 152.486 215.713C155.685 215.713 158.285 215.713 160.136 215.713C161.011 215.726 161.704 215.732 162.214 215.738C162.686 215.744 162.938 215.757 162.938 215.776Z" fill="#00476F"/>
<path d="M91.6085 214.498C91.6148 214.498 91.6211 214.617 91.6274 214.844C91.6337 215.09 91.64 215.423 91.6463 215.845C91.6526 216.746 91.6714 218.03 91.684 219.654C91.6966 222.96 91.7218 227.663 91.747 233.317L91.64 233.185C97.955 234.539 105.529 236.213 113.677 237.926C124.852 240.287 135.021 242.157 142.419 243.297C146.115 243.863 149.118 244.279 151.189 244.556C152.209 244.688 153.009 244.795 153.576 244.871C153.834 244.908 154.041 244.94 154.199 244.959C154.337 244.984 154.407 244.997 154.407 245.003C154.407 245.009 154.331 245.003 154.193 244.997C154.035 244.984 153.827 244.965 153.569 244.94C153.003 244.877 152.197 244.795 151.17 244.688C149.093 244.455 146.083 244.071 142.381 243.53C134.97 242.447 124.783 240.614 113.607 238.247C105.454 236.534 97.8858 234.841 91.577 233.456L91.47 233.43V233.317C91.4889 227.663 91.5077 222.96 91.5203 219.654C91.5329 218.03 91.5455 216.746 91.5581 215.845C91.5644 215.423 91.5707 215.09 91.577 214.844C91.5959 214.617 91.6022 214.498 91.6085 214.498Z" fill="#00476F"/>
<path d="M86.8358 161.622C86.8106 161.622 86.8295 161.282 86.8735 160.678C86.9113 160.074 86.9743 159.198 86.9932 158.115C87.0561 155.956 86.9554 152.953 86.4076 149.697C85.8347 146.455 85.1106 143.502 83.9836 141.67C83.4358 140.751 82.7936 140.14 82.3151 139.787C81.824 139.441 81.5092 139.309 81.5281 139.277C81.5344 139.265 81.6099 139.296 81.761 139.353C81.9122 139.41 82.1262 139.517 82.3907 139.68C82.9069 140.008 83.5932 140.612 84.1851 141.544C84.7832 142.469 85.2932 143.685 85.6962 145.07C86.0991 146.455 86.4643 147.998 86.735 149.641C87.2891 152.921 87.3521 155.95 87.2261 158.122C87.1758 159.211 87.075 160.086 86.9995 160.691C86.9176 161.295 86.8547 161.629 86.8358 161.622Z" fill="#00476F"/>
<path d="M148.343 144.635C148.431 144.635 148.507 157.486 148.507 173.333C148.507 189.187 148.431 202.038 148.343 202.038C148.255 202.038 148.18 189.187 148.18 173.333C148.18 157.486 148.255 144.635 148.343 144.635Z" fill="#00476F"/>
<path d="M167.648 209.19C167.648 209.253 166.697 209.222 165.186 209.41C164.43 209.499 163.536 209.669 162.567 209.92C161.597 210.185 160.552 210.544 159.488 211.016C158.43 211.501 157.473 212.055 156.636 212.603C155.804 213.169 155.087 213.723 154.52 214.233C153.38 215.247 152.776 215.977 152.732 215.94C152.713 215.927 152.852 215.732 153.122 215.398C153.387 215.058 153.809 214.599 154.363 214.063C154.917 213.528 155.628 212.943 156.466 212.351C157.309 211.778 158.279 211.205 159.356 210.714C160.432 210.235 161.503 209.876 162.491 209.625C163.486 209.385 164.392 209.234 165.161 209.178C165.929 209.115 166.552 209.096 166.986 209.127C167.408 209.146 167.648 209.165 167.648 209.19Z" fill="#00476F"/>
<g opacity="0.3">
<g opacity="0.3">
<path opacity="0.3" d="M87.3586 211.866C96.784 206.237 102.671 196.913 108.419 187.563C114.168 178.213 119.526 168.391 127.497 160.842C131.161 157.372 135.443 154.451 136.79 149.597L122.46 160.986L82.542 206.892L87.3586 211.866Z" fill="black"/>
</g>
</g>
<path d="M61.4811 187.235C61.4937 187.361 59.2271 187.273 56.6519 188.148C55.3675 188.589 54.2657 189.149 53.466 189.552C52.6727 189.962 52.1753 190.22 52.1501 190.182C52.1313 190.144 52.5783 189.817 53.3527 189.351C54.1271 188.891 55.229 188.287 56.5449 187.84C57.8608 187.393 59.1137 187.223 60.0204 187.179C60.9207 187.141 61.4811 187.197 61.4811 187.235Z" fill="#00476F"/>
<path d="M61.4811 187.235C61.4937 187.361 59.2271 187.273 56.6519 188.148C55.3675 188.589 54.2657 189.149 53.466 189.552C52.6727 189.962 52.1753 190.22 52.1501 190.182C52.1313 190.144 52.5783 189.817 53.3527 189.351C54.1271 188.891 55.229 188.287 56.5449 187.84C57.8608 187.393 59.1137 187.223 60.0204 187.179C60.9207 187.141 61.4811 187.197 61.4811 187.235Z" fill="#00476F"/>
<path d="M148.104 207.811C148.073 207.868 147.424 207.238 145.926 206.81C144.446 206.351 142.123 206.357 139.491 207.213C136.821 208 134.051 209.889 130.632 211.312C128.926 211.998 126.987 212.54 124.94 212.401C122.894 212.3 120.898 211.52 118.997 210.575C117.089 209.625 115.307 208.548 113.5 207.71C111.699 206.861 109.836 206.338 108.023 206.162C104.377 205.815 101.065 206.659 98.5908 207.868C96.0787 209.045 94.3913 210.607 93.3398 211.727C93.088 212.017 92.855 212.275 92.6535 212.502C92.4772 212.735 92.3261 212.936 92.2002 213.106C92.0869 213.257 91.9924 213.377 91.9169 213.478C91.8539 213.56 91.8161 213.604 91.8098 213.597C91.8035 213.597 91.8287 213.547 91.8854 213.459C91.9547 213.358 92.0365 213.226 92.1435 213.069C92.2632 212.892 92.408 212.684 92.5717 212.439C92.7669 212.206 92.9872 211.942 93.2391 211.646C94.2716 210.487 95.9527 208.888 98.4838 207.666C99.7304 207.031 101.191 206.514 102.803 206.174C104.415 205.834 106.19 205.689 108.041 205.866C109.892 206.029 111.8 206.565 113.626 207.421C115.458 208.265 117.24 209.341 119.129 210.286C121.012 211.224 122.97 211.979 124.947 212.086C126.924 212.225 128.813 211.715 130.506 211.041C133.887 209.656 136.689 207.773 139.409 206.999C142.085 206.162 144.459 206.187 145.951 206.697C146.7 206.93 147.241 207.226 147.588 207.446C147.745 207.553 147.865 207.648 147.972 207.717C148.066 207.773 148.104 207.805 148.104 207.811Z" fill="#FAFAFA"/>
<path d="M175.455 184.528C175.442 184.572 175.064 184.339 174.322 184.314C173.585 184.27 172.502 184.534 171.362 185.221C170.198 185.869 169.077 187.053 167.49 187.947C166.703 188.381 165.746 188.709 164.732 188.639C163.725 188.583 162.749 188.18 161.83 187.72C160.904 187.254 160.048 186.732 159.16 186.379C158.279 186.014 157.378 185.775 156.51 185.636C155.641 185.491 154.803 185.46 154.016 185.498C153.236 185.529 152.505 185.636 151.857 185.781C150.553 186.071 149.552 186.505 148.885 186.845C148.218 187.179 147.871 187.418 147.852 187.386C147.846 187.38 147.928 187.311 148.092 187.198C148.255 187.084 148.495 186.908 148.828 186.732C149.483 186.354 150.484 185.882 151.806 185.554C152.467 185.391 153.204 185.265 154.004 185.227C154.803 185.176 155.666 185.195 156.554 185.334C157.448 185.466 158.367 185.705 159.28 186.077C160.199 186.436 161.062 186.965 161.975 187.418C162.881 187.878 163.807 188.255 164.745 188.312C165.683 188.381 166.571 188.085 167.339 187.676C168.875 186.839 170.028 185.668 171.236 185.019C172.42 184.339 173.553 184.1 174.322 184.188C174.706 184.219 174.989 184.314 175.178 184.389C175.367 184.465 175.455 184.515 175.455 184.528Z" fill="#FAFAFA"/>
<path d="M147.764 175.908C147.758 175.921 147.613 175.896 147.336 175.833C147.198 175.808 147.028 175.757 146.826 175.726C146.618 175.701 146.379 175.669 146.121 175.631C145.057 175.512 143.483 175.575 141.632 176.091C139.781 176.607 137.697 177.577 135.499 178.855C133.302 180.127 130.941 181.695 128.189 182.828C126.817 183.388 125.413 183.816 124.015 183.974C122.617 184.138 121.238 184.037 119.985 183.697C118.732 183.363 117.618 182.847 116.598 182.343C115.578 181.839 114.646 181.342 113.777 180.933C112.046 180.095 110.529 179.686 109.458 179.63C108.923 179.623 108.507 179.617 108.224 179.667C107.941 179.699 107.79 179.705 107.79 179.692C107.79 179.68 107.934 179.648 108.212 179.598C108.489 179.529 108.91 179.51 109.458 179.497C110.547 179.516 112.109 179.9 113.865 180.719C114.747 181.115 115.691 181.6 116.711 182.091C117.731 182.576 118.833 183.08 120.055 183.395C121.27 183.716 122.605 183.81 123.971 183.646C125.337 183.495 126.71 183.074 128.063 182.519C130.777 181.405 133.126 179.856 135.348 178.591C137.571 177.319 139.692 176.362 141.575 175.864C143.458 175.367 145.063 175.342 146.14 175.506C146.404 175.55 146.637 175.594 146.851 175.631C147.053 175.676 147.223 175.732 147.361 175.77C147.626 175.852 147.764 175.896 147.764 175.908Z" fill="#FAFAFA"/>
<path d="M167.257 156.541C167.27 156.56 167.03 156.699 166.583 156.932C166.136 157.165 165.494 157.486 164.669 157.845C163.851 158.204 162.85 158.594 161.685 158.877C160.533 159.167 159.192 159.299 157.819 159.142C156.447 158.997 155.181 158.707 154.016 158.55C152.858 158.38 151.8 158.367 150.925 158.493C149.156 158.732 148.293 159.538 148.268 159.475C148.262 159.469 148.312 159.419 148.406 159.331C148.507 159.242 148.664 159.123 148.879 158.991C149.307 158.726 149.993 158.418 150.887 158.267C151.781 158.109 152.87 158.097 154.054 158.254C155.238 158.399 156.51 158.682 157.851 158.821C160.552 159.142 162.944 158.279 164.581 157.637C165.406 157.31 166.067 157.014 166.527 156.818C166.993 156.617 167.251 156.516 167.257 156.541Z" fill="#FAFAFA"/>
<path d="M85.8475 167.025C85.835 167.069 85.4761 166.785 84.7331 166.754C83.9965 166.716 82.9198 167.018 81.8495 167.824C81.3017 168.208 80.7413 168.687 80.0613 169.127C79.3877 169.574 78.5691 169.908 77.6751 170.084C75.8744 170.431 73.847 170.097 71.9015 169.398C69.9497 168.693 68.2056 167.799 66.5308 167.207C65.6997 166.905 64.8875 166.678 64.1194 166.546C63.345 166.42 62.6146 166.382 61.9535 166.414C60.6187 166.483 59.5798 166.855 58.9376 167.22C58.2891 167.585 57.9869 167.881 57.9617 167.856C57.9554 167.849 58.0247 167.774 58.1695 167.635C58.3143 167.497 58.5473 167.308 58.8684 167.113C59.5106 166.703 60.5684 166.282 61.9346 166.187C62.6146 166.137 63.3702 166.162 64.1635 166.282C64.9568 166.407 65.7879 166.628 66.6316 166.924C68.3315 167.503 70.0882 168.397 72.0085 169.09C73.9163 169.776 75.8933 170.103 77.6184 169.789C78.4747 169.631 79.2554 169.323 79.9102 168.901C80.5713 168.485 81.1443 168.019 81.7109 167.635C82.8191 166.836 83.9713 166.546 84.7331 166.628C85.1172 166.659 85.4068 166.766 85.5831 166.855C85.772 166.949 85.8538 167.018 85.8475 167.025Z" fill="#FAFAFA"/>
<path d="M121.32 215.247C121.327 215.241 121.396 215.297 121.522 215.423C121.654 215.543 121.818 215.738 122.019 216.003C122.403 216.538 122.875 217.419 123.045 218.609C123.215 219.78 123.083 221.304 122.208 222.664C121.371 224.018 119.948 225.094 119.142 226.649C118.758 227.43 118.663 228.293 118.827 229.099C118.984 229.905 119.312 230.654 119.645 231.346C120.332 232.719 120.968 234.054 120.942 235.288C120.924 236.522 120.307 237.41 119.765 237.8C119.494 238.001 119.236 238.09 119.072 238.134C118.896 238.165 118.808 238.171 118.808 238.165C118.795 238.127 119.186 238.109 119.69 237.699C120.174 237.303 120.728 236.44 120.716 235.288C120.709 234.129 120.086 232.857 119.375 231.479C119.028 230.78 118.682 230.018 118.512 229.155C118.33 228.299 118.43 227.336 118.846 226.498C119.261 225.667 119.86 224.987 120.42 224.358C120.987 223.728 121.534 223.13 121.95 222.488C122.794 221.21 122.951 219.761 122.812 218.628C122.674 217.476 122.252 216.607 121.906 216.059C121.559 215.53 121.295 215.272 121.32 215.247Z" fill="#FAFAFA"/>
<path d="M147.714 242.887C147.707 242.894 147.626 242.824 147.475 242.68C147.336 242.528 147.141 242.283 146.99 241.924C146.656 241.206 146.612 239.978 147.147 238.675C147.405 238.027 147.821 237.353 148.369 236.742C148.904 236.119 149.54 235.521 150.176 234.879C150.812 234.236 151.454 233.531 151.926 232.681C152.398 231.838 152.663 230.849 152.77 229.816C152.977 227.745 152.606 225.749 152.499 223.923C152.367 222.097 152.524 220.385 153.11 219.1C153.67 217.81 154.507 216.966 155.181 216.563C155.515 216.355 155.798 216.242 155.993 216.179C156.188 216.122 156.295 216.097 156.295 216.11C156.308 216.147 155.88 216.242 155.25 216.67C154.621 217.092 153.84 217.923 153.324 219.188C152.789 220.441 152.656 222.097 152.801 223.904C152.921 225.711 153.311 227.714 153.097 229.854C152.99 230.918 152.713 231.951 152.209 232.839C151.712 233.726 151.038 234.45 150.396 235.093C149.093 236.371 147.865 237.485 147.367 238.77C146.826 240.016 146.832 241.181 147.116 241.886C147.374 242.591 147.752 242.862 147.714 242.887Z" fill="#FAFAFA"/>
<path d="M150.944 251.242C150.944 251.242 150.723 251.431 150.245 251.683C149.766 251.941 148.998 252.237 147.959 252.338C146.927 252.445 145.636 252.332 144.219 251.916C142.796 251.519 141.285 250.751 139.692 249.826C138.093 248.919 136.374 247.83 134.334 247.144C132.301 246.457 129.94 246.401 127.579 246.911C125.205 247.402 122.838 248.378 120.388 249.398C117.945 250.405 115.402 251.519 112.613 252.08C111.221 252.369 109.804 252.458 108.419 252.313C107.034 252.18 105.706 251.752 104.509 251.154C102.098 249.952 100.178 248.208 98.2132 246.785C97.231 246.073 96.2488 245.406 95.2225 244.915C94.9644 244.789 94.7062 244.669 94.4544 244.549C94.1962 244.436 93.9318 244.354 93.6673 244.254C93.1511 244.046 92.6159 243.926 92.0996 243.788C90.0093 243.278 87.9693 243.29 86.1623 243.548C84.349 243.813 82.756 244.329 81.4464 244.959C81.1127 245.104 80.8105 245.292 80.5146 245.444C80.2124 245.595 79.9354 245.765 79.6772 245.941C79.4191 246.111 79.1609 246.268 78.928 246.432C78.7013 246.608 78.4935 246.772 78.292 246.936C77.8765 247.238 77.5617 247.572 77.2721 247.836C76.9761 248.101 76.7558 248.352 76.5795 248.554C76.4095 248.743 76.271 248.894 76.1639 249.013C76.0695 249.114 76.0191 249.165 76.0128 249.165C76.0065 249.158 76.0506 249.102 76.1388 248.995C76.2395 248.875 76.3654 248.711 76.5291 248.516C76.6991 248.302 76.9132 248.044 77.2028 247.773C77.4924 247.496 77.8009 247.156 78.2102 246.841C78.4117 246.678 78.6257 246.508 78.8461 246.325C79.0791 246.155 79.3309 245.991 79.5954 245.815C79.8535 245.632 80.1305 245.456 80.4328 245.299C80.735 245.141 81.0372 244.946 81.3709 244.795C82.6931 244.14 84.2986 243.611 86.1371 243.322C87.9693 243.045 90.0407 243.02 92.1751 243.53C92.704 243.668 93.2518 243.788 93.7744 243.995C94.0388 244.096 94.3096 244.178 94.574 244.291C94.8321 244.411 95.0966 244.537 95.361 244.663C96.4125 245.167 97.4136 245.834 98.4021 246.552C100.385 247.975 102.306 249.706 104.66 250.877C105.832 251.456 107.116 251.872 108.463 251.998C109.804 252.13 111.19 252.048 112.556 251.765C115.295 251.211 117.826 250.115 120.275 249.108C122.724 248.094 125.11 247.118 127.522 246.621C129.921 246.105 132.345 246.174 134.429 246.892C136.507 247.603 138.225 248.711 139.818 249.631C141.399 250.569 142.878 251.337 144.282 251.746C145.674 252.174 146.939 252.3 147.959 252.212C148.979 252.136 149.741 251.859 150.226 251.626C150.704 251.393 150.937 251.223 150.944 251.242Z" fill="#FAFAFA"/>
<path d="M115.918 146.216C122.945 146.562 128.989 141.292 129.606 134.284C129.971 130.129 130.261 126.578 130.261 126.578C130.261 126.578 140.99 126.307 142.482 115.811C143.974 105.316 145.284 80.9367 145.284 80.9367C133.793 74.1306 119.513 74.0739 107.966 80.7919L106.254 81.7867L103.489 132.427C103.099 139.674 108.671 145.857 115.918 146.216Z" fill="#FFBE9D"/>
<path d="M131.74 108.558C131.747 108.445 132.666 108.382 134.145 108.363C134.53 108.369 134.838 108.325 134.895 108.124C134.995 107.903 134.901 107.482 134.763 107.003C134.517 105.996 134.265 104.982 134.001 103.912C132.962 99.5168 132.301 95.9091 132.527 95.8525C132.748 95.8021 133.774 99.3217 134.813 103.716C135.052 104.787 135.285 105.813 135.512 106.82C135.594 107.274 135.789 107.822 135.512 108.42C135.367 108.722 135.04 108.904 134.781 108.942C134.523 108.986 134.309 108.955 134.127 108.942C132.647 108.816 131.74 108.671 131.74 108.558Z" fill="#00476F"/>
<path d="M130.292 126.433C130.292 126.433 123.58 126.112 117.089 120.76C117.089 120.76 119.349 128.75 129.965 129.159L130.292 126.433Z" fill="#EB996E"/>
<path d="M145.157 83.6127C145.157 83.6127 138.546 86.3767 130.393 81.7301C125.041 78.6828 118.707 76.9828 117.234 78.0154C115.761 79.0416 115.15 84.6956 109.609 86.0493C109.609 86.0493 109.389 96.885 105.095 96.2617C100.807 95.6384 104.421 79.0353 104.421 79.0353L115.257 74.4643L126.886 72.9218L137.646 75.0499L145.913 77.8076L145.157 83.6127Z" fill="#00476F"/>
<path d="M106.134 92.8429C105.964 92.7421 99.1891 89.7703 98.4839 96.9857C97.7788 104.201 105.171 103.42 105.208 103.213C105.24 103.011 106.134 92.8429 106.134 92.8429Z" fill="#FFBE9D"/>
<path d="M103.269 100.266C103.238 100.241 103.137 100.342 102.91 100.417C102.696 100.493 102.331 100.524 101.966 100.348C101.229 99.9953 100.707 98.7234 100.801 97.4138C100.845 96.7527 101.047 96.142 101.33 95.6446C101.601 95.1409 101.978 94.8009 102.369 94.7694C102.759 94.719 103.011 94.9772 103.08 95.185C103.156 95.399 103.099 95.5375 103.137 95.5501C103.156 95.569 103.301 95.4431 103.275 95.1409C103.257 94.9961 103.194 94.8135 103.036 94.6624C102.879 94.505 102.627 94.4105 102.356 94.4105C101.796 94.3979 101.248 94.8576 100.933 95.399C100.593 95.9405 100.354 96.6268 100.304 97.3697C100.209 98.8305 100.82 100.26 101.834 100.663C102.331 100.845 102.765 100.732 103.005 100.581C103.238 100.442 103.294 100.285 103.269 100.266Z" fill="#EB996E"/>
<path d="M114.394 79.1676C112.921 80.7416 111.422 82.3282 109.59 83.4679C107.758 84.6075 105.523 85.256 103.426 84.7712C101.323 84.2864 99.466 82.4668 99.3841 80.3135C99.296 78.1602 101.405 76.0572 103.508 76.5169C102.079 76.542 100.883 74.9239 101.33 73.5639C101.777 72.204 103.697 71.6121 104.83 72.481C103.004 72.141 102.797 69.2385 104.251 68.08C105.706 66.9215 107.846 67.1733 109.565 67.8722C111.29 68.5711 112.871 69.654 114.69 70.0444C117.542 70.6551 120.47 69.4714 122.995 68.0044C125.52 66.5374 127.918 64.743 130.727 63.9686C134.177 63.0115 137.911 63.7104 141.21 65.0956C143.949 66.2478 146.549 67.91 148.331 70.2899C150.113 72.6699 150.994 75.8306 150.201 78.6953C149.407 81.5601 146.744 83.9401 143.766 83.9527C143.766 83.9527 137.086 84.6264 131.646 80.5905C126.206 76.5546 114.741 77.0898 114.741 77.0898L114.394 79.1676Z" fill="#00476F"/>
<path d="M104.339 70.762C104.327 70.7872 104.471 70.9005 104.755 71.0957C105.038 71.2972 105.479 71.5616 106.052 71.889C107.204 72.5312 108.961 73.3372 111.259 73.9605C113.544 74.5775 116.39 74.9742 119.538 74.7475C122.699 74.5397 126.017 73.5198 129.474 72.6761C132.918 71.8261 136.343 71.4042 139.296 72.1346C142.249 72.8146 144.578 74.6027 145.598 76.6238C146.637 78.6637 146.511 80.6596 146.146 81.8622C145.768 83.0962 145.245 83.644 145.315 83.6881C145.334 83.707 145.466 83.5748 145.693 83.3103C145.894 83.027 146.203 82.5925 146.429 81.9566C146.908 80.7226 147.141 78.6071 146.089 76.3782C145.044 74.1557 142.576 72.1976 139.466 71.4357C136.343 70.6298 132.779 71.0579 129.291 71.9205C125.79 72.7768 122.541 73.7968 119.481 74.036C116.428 74.2942 113.645 73.9668 111.391 73.4253C106.851 72.3298 104.408 70.6109 104.339 70.762Z" fill="#00476F"/>
<path d="M101.097 81.9189C101.015 81.963 101.248 82.6682 102.028 83.5623C102.79 84.45 104.175 85.4763 105.976 85.873C107.777 86.2633 109.464 85.8981 110.528 85.4007C111.605 84.9096 112.115 84.3619 112.058 84.2926C111.989 84.1919 111.385 84.5633 110.333 84.8908C109.294 85.2244 107.758 85.4637 106.14 85.1174C104.522 84.7648 103.225 83.9148 102.419 83.1782C101.6 82.4415 101.204 81.856 101.097 81.9189Z" fill="#00476F"/>
<path d="M103.351 78.3554C103.168 78.4436 103.722 79.7532 105.12 80.7102C106.512 81.6798 107.935 81.7365 107.947 81.535C107.991 81.3146 106.789 80.9432 105.555 80.0743C104.314 79.2306 103.54 78.2358 103.351 78.3554Z" fill="#00476F"/>
<path d="M148.702 88.4229C148.797 88.4481 149.004 88.0892 149.055 87.4407C149.111 86.8048 148.973 85.8667 148.419 85.0167C147.865 84.1667 147.065 83.6567 146.461 83.4489C145.85 83.2349 145.441 83.2789 145.422 83.3734C145.359 83.5812 146.845 83.9967 147.77 85.4322C148.708 86.8678 148.488 88.3914 148.702 88.4229Z" fill="#00476F"/>
<path d="M152.442 78.0719C152.228 77.9838 151.435 79.8978 149.546 81.4718C147.688 83.0837 145.674 83.5622 145.73 83.7826C145.724 83.984 148.003 83.814 150.05 82.0574C152.108 80.3196 152.644 78.0971 152.442 78.0719Z" fill="#00476F"/>
<path d="M141.499 96.9353C141.417 97.7915 140.63 98.4274 139.736 98.3582C138.842 98.2889 138.188 97.546 138.263 96.6897C138.345 95.8334 139.132 95.1975 140.026 95.2668C140.92 95.3297 141.581 96.079 141.499 96.9353Z" fill="#00476F"/>
<path d="M142.777 96.7904C142.551 96.973 141.449 95.9153 139.711 95.6886C137.98 95.4431 136.595 96.1671 136.431 95.9342C136.349 95.8271 136.601 95.4745 137.212 95.1471C137.81 94.8197 138.792 94.549 139.869 94.6938C140.945 94.8386 141.802 95.3549 142.274 95.8334C142.759 96.3056 142.891 96.7086 142.777 96.7904Z" fill="#00476F"/>
<path d="M125.728 94.7442C125.646 95.6005 124.859 96.2364 123.965 96.1671C123.071 96.0979 122.416 95.3549 122.491 94.4987C122.573 93.6424 123.36 93.0065 124.254 93.0757C125.148 93.1387 125.809 93.8879 125.728 94.7442Z" fill="#00476F"/>
<path d="M126.854 94.6939C126.628 94.8765 125.526 93.8187 123.788 93.592C122.057 93.3465 120.672 94.0706 120.508 93.8376C120.426 93.7306 120.678 93.378 121.289 93.0506C121.887 92.7232 122.869 92.4524 123.946 92.5973C125.022 92.7421 125.879 93.2583 126.351 93.7369C126.836 94.2091 126.968 94.6183 126.854 94.6939Z" fill="#00476F"/>
<path d="M126.187 89.9278C125.847 90.23 124.544 89.2856 122.793 89.1219C121.043 88.9141 119.576 89.5689 119.305 89.1975C119.179 89.0212 119.412 88.5741 120.055 88.146C120.684 87.7178 121.761 87.3653 122.963 87.4912C124.166 87.6171 125.142 88.1901 125.671 88.7441C126.212 89.2982 126.351 89.783 126.187 89.9278Z" fill="#00476F"/>
<path d="M142.664 92.8051C142.74 93.0129 142.444 93.3529 141.808 93.6299C141.184 93.9069 140.221 94.0643 139.182 93.9069C138.143 93.7432 137.281 93.2962 136.771 92.8429C136.255 92.3896 136.078 91.9677 136.21 91.7977C136.513 91.4451 137.803 92.0559 139.44 92.2888C141.071 92.5595 142.488 92.3707 142.664 92.8051Z" fill="#00476F"/>
<path d="M130.412 111.442C130.594 111.454 130.72 111.782 130.695 112.172C130.67 112.563 130.506 112.871 130.324 112.858C130.141 112.846 130.015 112.518 130.04 112.128C130.065 111.738 130.235 111.429 130.412 111.442Z" fill="#00476F"/>
<path d="M104.849 105.964C104.868 105.97 104.843 106.134 104.692 106.386C104.547 106.638 104.258 106.978 103.779 107.217C103.313 107.463 102.621 107.582 101.941 107.324C101.273 107.085 100.637 106.506 100.36 105.719C100.096 104.925 100.241 104.094 100.581 103.477C100.921 102.848 101.462 102.451 101.941 102.243C102.425 102.029 102.86 101.985 103.143 101.991C103.433 101.998 103.59 102.042 103.59 102.061C103.596 102.124 102.929 102.016 102.041 102.451C101.607 102.671 101.135 103.049 100.845 103.616C100.555 104.176 100.436 104.919 100.669 105.612C100.902 106.298 101.462 106.814 102.041 107.041C102.633 107.28 103.231 107.198 103.672 107.003C104.591 106.6 104.805 105.92 104.849 105.964Z" fill="#00476F"/>
<path d="M111.819 149.087C111.819 149.087 115.332 144.125 117.536 141.336C120.212 137.961 121.805 135.046 121.805 133.472C121.805 131.892 121.805 125.111 121.805 125.111C121.805 125.111 125.135 124.324 125.607 128.108C126.086 131.892 125.607 132.842 125.607 132.842C125.607 132.842 139.585 123.43 140.536 124.11C142.204 125.312 139.043 127.824 139.043 127.824L130.525 135.525L135.379 133.988C136.556 133.617 137.822 134.253 138.219 135.418C138.546 136.375 138.193 137.432 137.35 138.005L134.479 140.492L135.927 139.913C136.997 139.485 138.219 139.945 138.735 140.971C139.151 141.796 139.006 142.79 138.376 143.464L135.757 146.253L136.985 145.598C137.778 145.177 138.76 145.491 139.157 146.285C139.49 146.952 139.308 147.764 138.722 148.23L123.07 160.602L111.819 149.087Z" fill="#FFBE9D"/>
<path d="M123.077 160.596C123.077 160.596 123.014 160.539 122.881 160.413C122.743 160.275 122.554 160.086 122.308 159.841C121.792 159.324 121.049 158.575 120.086 157.605C118.134 155.628 115.301 152.757 111.743 149.156L111.681 149.093L111.731 149.024C112.757 147.576 113.865 146.02 115.074 144.377C115.679 143.559 116.308 142.715 116.963 141.859C117.63 141.002 118.31 140.14 118.953 139.208C119.601 138.276 120.224 137.3 120.76 136.249C121.282 135.191 121.773 134.077 121.654 132.83C121.654 130.349 121.647 127.768 121.647 125.111V124.985L121.767 124.96C122.617 124.802 123.53 124.897 124.292 125.375C124.67 125.621 124.965 125.967 125.211 126.339C125.419 126.729 125.583 127.151 125.671 127.585C125.841 128.454 125.897 129.31 125.954 130.198C125.979 130.639 125.985 131.086 125.967 131.533C125.935 131.986 125.929 132.414 125.753 132.905L125.52 132.704C127.679 131.256 129.914 129.789 132.225 128.328C133.383 127.598 134.555 126.867 135.757 126.156C136.966 125.451 138.169 124.733 139.491 124.154C139.667 124.084 139.843 124.015 140.032 123.959C140.127 123.933 140.221 123.908 140.334 123.902C140.391 123.896 140.454 123.902 140.523 123.914C140.624 123.952 140.662 123.99 140.693 124.022C141.033 124.248 141.229 124.727 141.166 125.13C141.046 125.948 140.53 126.546 140.045 127.088C139.535 127.636 138.956 128.083 138.439 128.574C137.904 129.058 137.375 129.537 136.846 130.015C134.731 131.93 132.653 133.799 130.632 135.632L130.475 135.361C131.432 135.059 132.376 134.763 133.314 134.461C133.78 134.309 134.252 134.165 134.712 134.02C134.945 133.951 135.172 133.869 135.411 133.806C135.656 133.737 135.921 133.705 136.173 133.718C137.212 133.749 138.143 134.524 138.395 135.499C138.672 136.475 138.244 137.571 137.426 138.112L137.438 138.1C136.462 138.943 135.505 139.775 134.561 140.587L134.41 140.341C134.882 140.152 135.354 139.963 135.814 139.781C136.299 139.579 136.859 139.542 137.363 139.68C138.383 139.951 139.119 140.946 139.088 141.966C139.082 142.469 138.912 142.96 138.609 143.351C138.295 143.729 137.98 144.037 137.665 144.377C137.042 145.038 136.431 145.687 135.833 146.323L135.682 146.121C136.122 145.888 136.563 145.655 136.998 145.429C137.476 145.202 138.043 145.227 138.496 145.46C138.956 145.687 139.283 146.134 139.384 146.625C139.485 147.116 139.359 147.632 139.063 148.016C138.912 148.211 138.716 148.35 138.546 148.488C138.37 148.627 138.194 148.766 138.024 148.898C137.677 149.168 137.338 149.439 137.004 149.704C136.33 150.233 135.682 150.743 135.052 151.234C132.54 153.204 130.368 154.904 128.586 156.302C126.817 157.681 125.438 158.758 124.487 159.501C124.027 159.859 123.668 160.13 123.423 160.325C123.196 160.514 123.077 160.596 123.077 160.596C123.077 160.596 123.203 160.483 123.442 160.288C123.694 160.086 124.046 159.796 124.506 159.425C125.45 158.669 126.823 157.568 128.58 156.164C130.342 154.753 132.489 153.041 134.976 151.057C135.6 150.56 136.242 150.05 136.903 149.521C137.237 149.257 137.57 148.992 137.91 148.715C138.08 148.577 138.25 148.444 138.427 148.306C138.603 148.161 138.773 148.041 138.899 147.871C139.157 147.544 139.264 147.091 139.17 146.675C139.082 146.26 138.798 145.876 138.402 145.68C138.011 145.479 137.52 145.46 137.117 145.655C136.689 145.882 136.255 146.115 135.814 146.348L135.14 146.707L135.663 146.153C136.261 145.517 136.865 144.862 137.489 144.201C137.791 143.867 138.131 143.533 138.414 143.193C138.679 142.847 138.83 142.413 138.836 141.966C138.861 141.072 138.213 140.19 137.312 139.957C136.865 139.838 136.38 139.869 135.946 140.052C135.48 140.24 135.014 140.429 134.542 140.618L133.736 140.939L134.391 140.373C135.329 139.56 136.286 138.729 137.262 137.879L137.268 137.873L137.275 137.867C137.992 137.388 138.364 136.431 138.118 135.581C137.898 134.725 137.079 134.051 136.173 134.026C135.726 133.982 135.291 134.171 134.819 134.316C134.353 134.461 133.887 134.612 133.421 134.757C132.483 135.052 131.539 135.355 130.582 135.657L129.883 135.877L130.424 135.386C132.445 133.554 134.523 131.678 136.645 129.764C137.174 129.285 137.709 128.807 138.244 128.322C138.773 127.824 139.34 127.384 139.824 126.861C140.297 126.345 140.769 125.747 140.857 125.092C140.895 124.771 140.782 124.462 140.504 124.273C140.467 124.179 140.303 124.229 140.133 124.273C139.969 124.317 139.799 124.387 139.629 124.456C138.351 125.016 137.136 125.734 135.94 126.433C134.743 127.144 133.572 127.868 132.414 128.599C130.103 130.06 127.868 131.52 125.708 132.962L125.305 133.233L125.475 132.761C125.601 132.408 125.639 131.936 125.658 131.514C125.677 131.08 125.671 130.645 125.645 130.211C125.595 129.348 125.532 128.467 125.375 127.648C125.293 127.239 125.142 126.855 124.953 126.496C124.733 126.156 124.468 125.847 124.134 125.633C123.467 125.205 122.604 125.111 121.843 125.256L121.962 125.111C121.962 127.774 121.956 130.349 121.956 132.83C121.95 133.145 121.962 133.441 121.937 133.768C121.893 134.083 121.83 134.391 121.736 134.687C121.547 135.279 121.295 135.833 121.024 136.368C120.476 137.439 119.84 138.421 119.186 139.353C118.537 140.291 117.838 141.16 117.177 142.01C116.516 142.86 115.886 143.697 115.282 144.516C114.067 146.153 112.946 147.701 111.92 149.143L111.907 149.011C115.408 152.631 118.203 155.509 120.124 157.498C121.074 158.487 121.817 159.255 122.327 159.79C122.573 160.048 122.762 160.243 122.894 160.388C123.014 160.52 123.077 160.596 123.077 160.596Z" fill="#EB996E"/>
<path d="M123.077 160.596L80.1744 217.237C73.6642 225.837 61.9281 228.979 52.1816 224.313C45.0543 220.901 39.8285 213.736 44.198 198.99L85.2932 170.871L110.27 146.763L123.077 160.596Z" fill="#F26522"/>
<path d="M52.1815 224.314C52.1815 224.314 52.3389 224.389 52.6474 224.546C52.9559 224.71 53.4029 224.949 53.9885 225.258C55.2162 225.768 57.061 226.53 59.5984 226.763C60.8576 226.857 62.2743 226.908 63.7979 226.687C64.5661 226.624 65.3468 226.429 66.1653 226.272C66.5746 226.177 66.9775 226.045 67.3931 225.932C67.8149 225.825 68.2305 225.68 68.6523 225.516C70.346 224.918 72.0963 224.093 73.8089 222.985C75.5214 221.889 77.2088 220.517 78.6444 218.76C81.5721 215.297 84.6005 211.343 87.8683 207.119C91.1297 202.894 94.58 198.342 98.2066 193.557C105.447 183.974 113.362 173.403 121.628 162.277C122.069 161.685 122.51 161.094 122.944 160.502L122.957 160.709C118.568 155.962 114.281 151.334 110.157 146.87L110.377 146.883C101.632 154.098 93.5411 160.993 86.1998 167.132C78.871 173.277 72.2978 178.672 66.7383 183.067C61.185 187.468 56.6707 190.893 53.5226 193.191C51.9611 194.356 50.7208 195.213 49.896 195.811C49.4867 196.1 49.1719 196.321 48.9515 196.478C48.7375 196.629 48.6241 196.698 48.6241 196.698C48.6241 196.698 48.7249 196.61 48.9326 196.453C49.1467 196.289 49.4552 196.063 49.8582 195.76C50.6704 195.15 51.8981 194.274 53.447 193.103C56.5699 190.78 61.0654 187.33 66.5997 182.91C72.1341 178.49 78.6884 173.081 86.0109 166.924C93.3334 160.772 101.418 153.872 110.163 146.644L110.283 146.549L110.383 146.663C114.514 151.12 118.801 155.754 123.19 160.495L123.284 160.596L123.202 160.703C122.762 161.295 122.327 161.887 121.887 162.479C113.613 173.604 105.693 184.169 98.4396 193.746C94.8067 198.531 91.3501 203.07 88.076 207.295C84.7957 211.513 81.761 215.455 78.8143 218.918C77.3599 220.687 75.6474 222.066 73.9159 223.168C72.1845 224.276 70.4152 225.101 68.709 225.699C68.2871 225.856 67.8653 226.001 67.4371 226.108C67.0153 226.221 66.606 226.353 66.1968 226.442C65.372 226.599 64.5787 226.788 63.8042 226.851C62.268 227.059 60.8387 227.008 59.5732 226.901C57.0232 226.643 55.1722 225.862 53.9507 225.334C53.3589 225.019 52.9181 224.761 52.6222 224.591C52.3263 224.408 52.1815 224.314 52.1815 224.314Z" fill="#00476F"/>
<path d="M84.7074 209.562C84.6822 209.599 84.2226 209.159 83.2089 208.699C82.2015 208.233 80.5771 207.912 78.5938 208.12C77.6053 208.214 76.535 208.441 75.4143 208.781C74.2935 209.121 73.1287 209.599 71.8947 210.084C70.6606 210.569 69.3573 211.085 67.9533 211.463C66.5492 211.834 65.0256 212.061 63.4767 211.897C61.9278 211.734 60.4797 211.249 59.1449 210.695C57.8038 210.141 56.5635 209.505 55.3609 208.963C52.9746 207.849 50.6514 207.131 48.6618 207.245C46.6722 207.333 45.1611 208.101 44.33 208.819C43.48 209.543 43.2219 210.134 43.1841 210.109C43.1715 210.103 43.247 209.964 43.3982 209.706C43.5681 209.461 43.82 209.096 44.2481 208.718C45.0729 207.956 46.6092 207.131 48.6492 207.012C50.6954 206.867 53.0754 207.585 55.4805 208.686C56.6957 209.228 57.936 209.851 59.2645 210.399C60.5867 210.947 62.0097 211.413 63.5082 211.57C65.0067 211.727 66.4926 211.513 67.8714 211.148C69.2566 210.783 70.5473 210.279 71.7814 209.801C73.0154 209.322 74.1865 208.85 75.3324 208.516C76.472 208.183 77.5613 207.969 78.5686 207.88C80.5897 207.698 82.2456 208.063 83.253 208.579C84.2793 209.083 84.7074 209.562 84.7074 209.562Z" fill="#FAFAFA"/>
<path d="M99.8688 190.566C99.8184 190.553 100.121 190.188 100.032 189.445C99.9381 188.734 99.3588 187.682 98.1373 187.141C97.5392 186.864 96.8277 186.681 96.0533 186.505C95.2852 186.329 94.4352 186.121 93.6167 185.724C91.9608 184.956 90.4371 183.628 89.0268 182.129C87.6101 180.624 86.3509 179.119 85.0035 177.967C83.675 176.802 82.2584 176.015 80.9676 175.663C79.6832 175.298 78.5751 175.31 77.8447 175.449C77.1081 175.581 76.724 175.764 76.7114 175.732C76.7051 175.72 76.7996 175.675 76.9822 175.594C77.1647 175.512 77.4418 175.405 77.8195 175.329C78.5562 175.147 79.7021 175.096 81.0243 175.442C82.3528 175.77 83.8324 176.563 85.1924 177.741C86.5712 178.905 87.8494 180.416 89.2534 181.909C90.6575 183.401 92.1434 184.698 93.7363 185.46C95.3104 186.24 96.9851 186.297 98.2255 186.939C99.5036 187.544 100.083 188.677 100.146 189.439C100.177 189.829 100.102 190.131 100.014 190.314C99.9381 190.49 99.8751 190.572 99.8688 190.566Z" fill="#FAFAFA"/>
<path d="M136.443 34.2064C136.437 34.2064 136.425 34.2064 136.418 34.2064C135.896 34.1938 135.486 33.7594 135.499 33.2368L135.713 24.8314C135.719 24.5355 135.864 24.2584 136.11 24.0884C136.349 23.9184 136.658 23.8681 136.941 23.9562C138.465 24.4284 140.183 24.2143 141.663 23.3644C143.036 22.5773 144.011 21.3307 144.339 19.9455C144.66 18.5667 144.345 17.0115 143.47 15.6704C142.532 14.2349 141.109 13.2464 139.573 12.9631C136.481 12.3901 133.088 14.449 132.011 17.5593C131.841 18.0504 131.299 18.3148 130.808 18.1448C130.317 17.9748 130.053 17.4334 130.223 16.9423C131.595 12.9882 135.94 10.3753 139.913 11.1057C141.953 11.4835 143.823 12.7742 145.044 14.6378C146.196 16.4071 146.612 18.4974 146.171 20.3737C145.73 22.2688 144.427 23.9499 142.595 25.0014C141.033 25.8954 139.258 26.2417 137.57 26.0214L137.382 33.2872C137.369 33.8034 136.953 34.2064 136.443 34.2064Z" fill="#00476F"/>
<path d="M137.904 38.3619C137.904 39.1238 137.287 39.7408 136.525 39.7408C135.763 39.7408 135.146 39.1238 135.146 38.3619C135.146 37.6001 135.763 36.9831 136.525 36.9831C137.287 36.9768 137.904 37.6001 137.904 38.3619Z" fill="#00476F"/>
<path d="M33.0983 131.117C31.6816 131.117 30.2839 130.708 29.1569 129.864C27.8347 128.87 26.9532 127.296 26.7454 125.533C26.5439 123.864 26.9973 122.227 27.9732 121.044C28.9617 119.847 30.4916 119.104 32.1601 119.004C33.4949 118.922 34.8045 119.249 35.8938 119.923L38.3808 115.207C38.6263 114.747 39.193 114.571 39.6589 114.81C40.1185 115.056 40.2948 115.623 40.0556 116.088L37.046 121.793C36.9075 122.057 36.6556 122.234 36.366 122.284C36.0764 122.334 35.7741 122.24 35.5601 122.038C34.7164 121.239 33.5264 120.823 32.2798 120.899C31.1276 120.968 30.0887 121.465 29.4339 122.259C28.7791 123.052 28.4832 124.166 28.6217 125.325C28.7728 126.572 29.3772 127.68 30.2902 128.366C32.1035 129.726 35.069 129.468 36.7626 127.799C37.1341 127.434 37.7323 127.44 38.0974 127.812C38.4626 128.183 38.4563 128.782 38.0848 129.147C36.7626 130.437 34.9179 131.117 33.0983 131.117Z" fill="#00476F"/>
<path d="M39.9549 111.637C40.2131 111.114 40.849 110.9 41.3779 111.159C41.9004 111.417 42.1145 112.053 41.8564 112.575C41.5982 113.098 40.9623 113.312 40.4397 113.054C39.9046 112.802 39.6905 112.166 39.9549 111.637Z" fill="#00476F"/>
<path d="M223.702 115.226C223.413 115.226 223.123 115.087 222.934 114.835L219.156 109.61C218.98 109.37 218.93 109.062 219.018 108.778C219.106 108.495 219.32 108.268 219.597 108.168C220.686 107.771 221.593 106.883 222.078 105.731C222.525 104.667 222.544 103.521 222.122 102.577C221.7 101.639 220.831 100.883 219.736 100.493C218.552 100.071 217.287 100.127 216.273 100.637C214.252 101.664 213.169 104.434 213.905 106.694C214.069 107.192 213.798 107.721 213.301 107.884C212.804 108.048 212.275 107.777 212.111 107.28C211.078 104.132 212.558 100.392 215.417 98.9501C216.89 98.2071 218.697 98.119 220.365 98.7108C221.946 99.2712 223.218 100.398 223.847 101.802C224.483 103.219 224.47 104.919 223.822 106.461C223.299 107.695 222.431 108.722 221.348 109.402L224.47 113.727C224.779 114.149 224.678 114.741 224.256 115.043C224.093 115.163 223.898 115.226 223.702 115.226Z" fill="#00476F"/>
<path d="M226.97 116.705C227.322 117.171 227.234 117.832 226.768 118.191C226.302 118.544 225.641 118.456 225.283 117.99C224.93 117.524 225.018 116.856 225.484 116.504C225.95 116.151 226.611 116.239 226.97 116.705Z" fill="#00476F"/>
</svg>
