<svg width="392" height="210" viewBox="0 0 392 210" fill="none" xmlns="http://www.w3.org/2000/svg">
<path d="M242.253 123.627C243.064 118.652 247.33 114.969 252.375 114.906C274.266 114.614 330.001 114.114 332.993 116.484C336.719 119.444 338.665 120.959 338.373 125.649C338.107 129.958 333.405 204.422 333.405 204.422H229.096L242.253 123.627Z" fill="#455A64"/>
<path d="M321.521 204.46C321.515 204.46 321.508 204.384 321.489 204.238C321.477 204.074 321.458 203.865 321.432 203.592C321.388 203.003 321.331 202.172 321.248 201.108C321.166 200.03 321.084 198.712 321.033 197.172C320.976 195.638 320.881 193.889 320.881 191.956C320.868 190.986 320.855 189.978 320.849 188.92C320.843 187.861 320.875 186.765 320.887 185.63C320.894 183.355 321.02 180.928 321.128 178.374C321.413 173.265 321.901 167.662 322.681 161.813C323.492 155.963 324.519 150.43 325.609 145.429C326.186 142.938 326.718 140.568 327.314 138.369C327.605 137.272 327.865 136.201 328.157 135.187C328.448 134.173 328.733 133.197 329 132.272C329.519 130.408 330.077 128.748 330.54 127.284C330.996 125.813 331.427 124.565 331.795 123.551C332.156 122.549 332.435 121.764 332.631 121.206C332.726 120.952 332.802 120.749 332.859 120.597C332.91 120.464 332.942 120.395 332.948 120.395C332.955 120.395 332.936 120.471 332.891 120.61C332.84 120.768 332.777 120.971 332.695 121.225C332.511 121.783 332.251 122.575 331.915 123.589C331.567 124.609 331.148 125.864 330.711 127.341C330.267 128.811 329.722 130.472 329.215 132.335C328.955 133.267 328.676 134.236 328.391 135.257C328.106 136.271 327.853 137.342 327.567 138.438C326.978 140.631 326.465 143.008 325.894 145.493C324.823 150.487 323.809 156.013 322.998 161.851C322.218 167.694 321.724 173.291 321.42 178.386C321.305 180.934 321.172 183.361 321.147 185.63C321.128 186.765 321.09 187.861 321.09 188.913C321.096 189.966 321.096 190.98 321.103 191.943C321.09 193.876 321.172 195.619 321.21 197.153C321.242 198.686 321.305 200.005 321.369 201.088C321.42 202.153 321.458 202.984 321.489 203.573C321.496 203.845 321.508 204.055 321.515 204.219C321.527 204.384 321.527 204.46 321.521 204.46Z" fill="#263238"/>
<path d="M262.864 152.382C262.864 152.369 262.914 152.35 263.022 152.318C263.13 152.293 263.295 152.274 263.51 152.293C263.935 152.325 264.562 152.572 265.038 153.193C265.532 153.808 265.652 154.866 265.19 155.792C264.968 156.254 264.626 156.685 264.169 157.015C263.713 157.344 263.143 157.541 262.553 157.579C261.964 157.617 261.362 157.484 260.886 157.148C260.405 156.825 260.119 156.299 260.024 155.792C259.847 154.759 260.265 153.827 260.823 153.294C261.995 152.293 263.035 152.261 263.01 152.356C263.003 152.369 262.953 152.363 262.851 152.388C262.75 152.414 262.598 152.458 262.414 152.54C262.046 152.699 261.501 152.965 260.994 153.466C260.512 153.96 260.151 154.835 260.329 155.735C260.417 156.178 260.671 156.616 261.076 156.888C261.476 157.173 262.008 157.287 262.534 157.256C263.067 157.224 263.58 157.047 263.986 156.755C264.398 156.463 264.714 156.077 264.917 155.665C265.342 154.835 265.266 153.903 264.848 153.339C264.442 152.756 263.878 152.496 263.491 152.426C263.092 152.344 262.864 152.414 262.864 152.382Z" fill="#263238"/>
<path d="M279.222 142.919C279.215 142.983 278.144 142.786 276.42 142.951C274.716 143.103 272.333 143.718 270.171 145.226C268.01 146.741 266.622 148.769 265.9 150.322C265.158 151.887 264.981 152.965 264.917 152.946C264.898 152.94 264.93 152.673 265.031 152.192C265.139 151.716 265.342 151.032 265.69 150.221C266.375 148.611 267.769 146.507 269.988 144.954C272.206 143.401 274.665 142.805 276.408 142.717C277.282 142.666 277.999 142.71 278.48 142.774C278.962 142.837 279.228 142.9 279.222 142.919Z" fill="#263238"/>
<path d="M248.971 162.294C248.952 162.288 249.034 162.091 249.212 161.756C249.396 161.42 249.694 160.957 250.131 160.437C250.993 159.392 252.495 158.13 254.485 157.452C256.475 156.774 258.44 156.856 259.758 157.161C260.424 157.306 260.943 157.49 261.292 157.642C261.641 157.794 261.818 157.902 261.812 157.921C261.786 157.978 261.026 157.623 259.714 157.389C258.408 157.148 256.52 157.11 254.593 157.763C252.672 158.422 251.196 159.607 250.308 160.589C249.408 161.578 249.022 162.326 248.971 162.294Z" fill="#263238"/>
<path d="M269.151 164.886C269.126 164.918 268.695 164.652 268.08 164.113C267.465 163.575 266.686 162.732 266.007 161.68C265.329 160.621 264.892 159.569 264.657 158.783C264.423 157.997 264.36 157.49 264.398 157.484C264.499 157.452 264.943 159.436 266.286 161.502C267.605 163.575 269.227 164.804 269.151 164.886Z" fill="#263238"/>
<path d="M298.09 153.263C298.09 153.25 298.141 153.231 298.248 153.199C298.356 153.174 298.521 153.155 298.736 153.174C299.161 153.206 299.788 153.453 300.264 154.074C300.758 154.689 300.879 155.747 300.416 156.673C300.194 157.135 299.852 157.566 299.395 157.896C298.939 158.225 298.369 158.422 297.779 158.46C297.19 158.498 296.588 158.365 296.112 158.029C295.631 157.706 295.346 157.18 295.25 156.673C295.073 155.64 295.491 154.708 296.049 154.175C297.222 153.174 298.261 153.142 298.236 153.237C298.229 153.25 298.179 153.244 298.077 153.269C297.976 153.295 297.824 153.339 297.64 153.421C297.272 153.58 296.727 153.846 296.22 154.347C295.738 154.841 295.377 155.716 295.555 156.616C295.643 157.059 295.897 157.497 296.303 157.769C296.702 158.054 297.234 158.168 297.76 158.137C298.293 158.105 298.806 157.927 299.212 157.636C299.624 157.344 299.941 156.958 300.143 156.546C300.568 155.716 300.492 154.784 300.074 154.22C299.668 153.637 299.104 153.377 298.717 153.307C298.324 153.225 298.09 153.294 298.09 153.263Z" fill="#263238"/>
<path d="M314.448 143.8C314.442 143.864 313.37 143.667 311.647 143.832C309.942 143.984 307.559 144.599 305.397 146.107C303.236 147.622 301.848 149.65 301.126 151.203C300.384 152.768 300.207 153.846 300.143 153.827C300.124 153.821 300.156 153.554 300.257 153.073C300.365 152.597 300.568 151.913 300.917 151.102C301.601 149.492 302.995 147.388 305.214 145.835C307.432 144.282 309.891 143.686 311.634 143.598C312.509 143.547 313.225 143.591 313.706 143.655C314.188 143.718 314.454 143.781 314.448 143.8Z" fill="#263238"/>
<path d="M284.197 163.175C284.178 163.163 284.261 162.972 284.438 162.637C284.622 162.301 284.92 161.838 285.357 161.318C286.219 160.273 287.721 159.011 289.711 158.333C291.701 157.655 293.666 157.737 294.984 158.042C295.65 158.187 296.169 158.371 296.518 158.523C296.867 158.675 297.044 158.783 297.038 158.802C297.012 158.859 296.252 158.504 294.94 158.27C293.634 158.029 291.746 157.991 289.819 158.644C287.898 159.303 286.422 160.488 285.534 161.47C284.634 162.459 284.248 163.207 284.197 163.175Z" fill="#263238"/>
<path d="M304.383 165.767C304.358 165.799 303.927 165.533 303.312 164.994C302.697 164.456 301.918 163.613 301.24 162.56C300.562 161.502 300.124 160.45 299.89 159.664C299.655 158.878 299.592 158.371 299.63 158.365C299.731 158.333 300.175 160.317 301.519 162.383C302.831 164.456 304.453 165.691 304.383 165.767Z" fill="#263238"/>
<path d="M342.062 100.551C313.979 72.8097 279.019 66.1929 279.019 66.1929C258.231 78.5835 244.205 99.3908 233.526 124.368C251.437 140.942 274.469 156.825 294.179 158.289C325.355 150.404 342.062 100.551 342.062 100.551Z" fill="#00476F"/>
<g opacity="0.4">
<path opacity="0.4" d="M342.062 100.551C313.979 72.8097 279.019 66.1929 279.019 66.1929C258.231 78.5835 244.205 99.3908 233.526 124.368C251.437 140.942 274.469 156.825 294.179 158.289C325.355 150.404 342.062 100.551 342.062 100.551Z" fill="black"/>
</g>
<path d="M332.054 122.581C332.048 122.581 332.029 122.518 331.985 122.391C331.94 122.252 331.883 122.061 331.807 121.821C331.649 121.301 331.427 120.553 331.135 119.59C330.559 117.625 329.722 114.779 328.67 111.205L328.797 111.274C325.013 112.504 320.342 114.019 315.025 115.743L315.113 115.66C315.101 115.685 315.101 115.692 315.075 115.73C315.037 115.781 314.942 115.8 314.904 115.774C314.853 115.762 314.809 115.679 314.815 115.685C314.796 115.641 314.796 115.609 314.79 115.584L314.777 115.438L314.765 115.159L314.758 114.602C314.758 114.228 314.758 113.854 314.758 113.474C314.765 112.713 314.765 111.946 314.771 111.16C314.777 109.595 314.777 107.985 314.752 106.331C314.727 104.677 314.682 102.984 314.587 101.254C314.486 99.5302 314.353 97.7619 314.042 96.0063L314.239 96.1331C310.233 97.0647 306.031 98.0408 301.715 99.0422C299.123 99.6443 296.575 100.234 294.084 100.81L293.919 100.848L293.888 100.684C292.76 94.7704 291.688 89.1487 290.693 83.9643L290.877 84.0784C283.196 86.1509 276.294 87.1269 270.875 87.5769L270.773 87.5833L270.761 87.4819C270.235 83.1721 269.816 79.7496 269.531 77.3856C269.398 76.2258 269.29 75.3195 269.221 74.6983C269.189 74.4005 269.164 74.1723 269.145 74.0012C269.132 73.8427 269.126 73.7667 269.132 73.7667C269.138 73.7667 269.151 73.8427 269.176 74.0012C269.202 74.1723 269.233 74.4005 269.278 74.692C269.366 75.3195 269.487 76.2131 269.645 77.3729C269.956 79.7306 270.406 83.1531 270.97 87.4565L270.856 87.3678C276.262 86.8861 283.145 85.8784 290.795 83.7932L290.953 83.7489L290.985 83.9073C291.98 89.0917 293.064 94.7071 294.205 100.62L294.008 100.494C296.499 99.9168 299.053 99.321 301.639 98.7189C305.955 97.7176 310.157 96.7479 314.163 95.8162L314.327 95.7782L314.359 95.9429C314.676 97.7302 314.803 99.4985 314.898 101.235C314.993 102.965 315.031 104.664 315.05 106.324C315.069 107.979 315.069 109.595 315.056 111.16C315.05 111.946 315.044 112.713 315.037 113.474C315.037 113.854 315.037 114.228 315.037 114.602L315.044 115.153L315.056 115.426L315.069 115.552L315.075 115.578C315.063 115.59 315.107 115.565 315.044 115.597C314.987 115.628 314.98 115.603 314.968 115.635C314.968 115.673 314.968 115.603 314.936 115.616C314.834 115.552 314.86 115.571 314.86 115.571L314.79 115.54L314.949 115.489C320.272 113.797 324.956 112.301 328.746 111.097L328.841 111.065L328.867 111.16C329.881 114.747 330.692 117.6 331.25 119.571C331.516 120.54 331.725 121.288 331.871 121.814C331.934 122.061 331.985 122.252 332.023 122.391C332.048 122.511 332.061 122.575 332.054 122.581Z" fill="#00476F"/>
<path d="M326.686 131.403C326.68 131.403 326.661 131.353 326.623 131.258C326.579 131.144 326.528 130.998 326.458 130.814C326.312 130.402 326.103 129.819 325.831 129.065C325.286 127.512 324.5 125.262 323.498 122.404L323.606 122.461C319.391 123.582 313.776 125.085 307.191 126.846L307.039 126.885L307.02 126.726C306.627 123.709 306.196 120.464 305.714 117.048C305.226 113.632 304.719 110.038 304.06 106.337L304.257 106.464C300.39 107.364 296.366 108.295 292.24 109.259C289.477 109.899 286.758 110.533 284.102 111.148L283.937 111.186L283.906 111.021C282.777 105.101 281.706 99.4858 280.711 94.3014L280.895 94.4155C273.214 96.488 266.312 97.464 260.893 97.914L260.791 97.9204L260.779 97.819C260.253 93.5092 259.834 90.0867 259.549 87.7227C259.416 86.5629 259.308 85.6566 259.238 85.0354C259.207 84.7376 259.181 84.5094 259.162 84.3446C259.15 84.1862 259.143 84.1101 259.15 84.1101C259.156 84.1101 259.169 84.1862 259.194 84.3446C259.219 84.5157 259.251 84.7439 259.296 85.0354C259.378 85.6566 259.505 86.5565 259.663 87.7164C259.974 90.0741 260.424 93.4965 260.988 97.7999L260.874 97.7112C266.28 97.2295 273.163 96.2218 280.813 94.1367L280.965 94.0923L280.996 94.2507C281.991 99.4351 283.075 105.05 284.216 110.964L284.02 110.837C286.675 110.222 289.394 109.588 292.157 108.948C296.283 107.991 300.308 107.06 304.174 106.16L304.339 106.122L304.371 106.286C305.03 109.994 305.53 113.594 306.012 117.01C306.487 120.433 306.912 123.671 307.292 126.694L307.121 126.58C313.719 124.856 319.347 123.392 323.562 122.29L323.644 122.271L323.669 122.347C324.639 125.218 325.4 127.48 325.919 129.033C326.173 129.794 326.363 130.383 326.502 130.795C326.566 130.985 326.61 131.137 326.648 131.251C326.674 131.353 326.686 131.403 326.686 131.403Z" fill="#FAFAFA"/>
<path d="M315.696 145.068C315.696 145.068 315.697 144.89 315.722 144.542C315.754 144.181 315.792 143.674 315.849 143.014C315.969 141.658 316.14 139.687 316.362 137.171L316.47 137.253C312.293 138.641 306.45 140.581 299.446 142.907L299.3 142.957L299.269 142.805C297.925 135.834 296.334 127.594 294.617 118.664L294.813 118.791C291.46 119.571 287.968 120.382 284.4 121.212C281.079 121.979 277.821 122.74 274.659 123.468L274.494 123.506L274.462 123.342C273.334 117.422 272.263 111.8 271.274 106.622L271.458 106.736C263.77 108.809 256.875 109.785 251.456 110.235L251.354 110.241L251.342 110.14C250.816 105.824 250.397 102.401 250.112 100.037C249.979 98.8774 249.871 97.9774 249.801 97.35C249.77 97.0584 249.744 96.8239 249.725 96.6591C249.713 96.5007 249.706 96.4246 249.713 96.4246C249.719 96.4246 249.732 96.5007 249.757 96.6591C249.782 96.8239 249.814 97.0521 249.859 97.35C249.941 97.9711 250.068 98.8711 250.226 100.031C250.537 102.389 250.987 105.811 251.551 110.121L251.437 110.032C256.837 109.55 263.713 108.543 271.376 106.458L271.528 106.413L271.559 106.572C272.555 111.75 273.638 117.365 274.779 123.285L274.583 123.158C277.745 122.423 281.003 121.668 284.324 120.895C287.892 120.071 291.384 119.26 294.737 118.48L294.902 118.442L294.934 118.607C296.632 127.537 298.204 135.783 299.535 142.755L299.364 142.653C306.38 140.365 312.236 138.464 316.419 137.101L316.539 137.063L316.527 137.184C316.273 139.7 316.07 141.664 315.937 143.021C315.868 143.68 315.811 144.187 315.773 144.548C315.728 144.89 315.696 145.068 315.696 145.068Z" fill="#00476F"/>
<path d="M293.032 158.181C293.026 158.181 293.013 158.143 292.988 158.061C292.962 157.966 292.931 157.851 292.886 157.699C292.798 157.363 292.677 156.894 292.525 156.292C292.215 155.044 291.771 153.237 291.213 150.956C290.668 148.655 290.009 145.866 289.248 142.691C288.52 139.503 287.67 135.916 286.916 131.98L287.094 132.094C281.079 133.495 274.215 135.092 266.945 136.791L266.781 136.829L266.749 136.658C266.641 136.106 266.527 135.51 266.413 134.915C265.412 129.686 264.448 124.647 263.548 119.938L263.745 120.059C256.177 122.106 249.256 123.101 243.742 123.557L243.635 123.563L243.622 123.456C243.109 119.209 242.69 115.787 242.399 113.404C242.266 112.238 242.158 111.325 242.082 110.685C242.05 110.387 242.025 110.152 242.006 109.981C241.993 109.823 241.987 109.741 241.993 109.741C241.999 109.741 242.012 109.823 242.038 109.975C242.063 110.146 242.101 110.381 242.145 110.679C242.234 111.312 242.361 112.225 242.519 113.391C242.83 115.768 243.286 119.19 243.844 123.43L243.723 123.329C249.218 122.835 256.12 121.808 263.662 119.754L263.827 119.71L263.859 119.875C264.765 124.584 265.735 129.622 266.736 134.851C266.85 135.447 266.964 136.043 267.072 136.594L266.876 136.467C274.152 134.788 281.016 133.197 287.037 131.809L287.189 131.777L287.214 131.929C287.956 135.859 288.786 139.446 289.496 142.641C290.224 145.828 290.865 148.617 291.391 150.924C291.917 153.212 292.335 155.018 292.627 156.273C292.76 156.882 292.867 157.351 292.943 157.693C292.975 157.845 293 157.966 293.019 158.061C293.032 158.137 293.038 158.181 293.032 158.181Z" fill="#FAFAFA"/>
<path d="M282.327 155.918C282.308 155.925 282.226 155.614 282.093 155.037C281.954 154.41 281.77 153.592 281.554 152.597C281.104 150.518 280.502 147.616 279.837 144.326L280.033 144.453C279.425 144.593 278.785 144.745 278.138 144.897C274.424 145.759 271.059 146.519 268.625 147.058C267.446 147.312 266.47 147.521 265.735 147.673C265.05 147.812 264.67 147.876 264.664 147.857C264.657 147.838 265.031 147.723 265.703 147.546C266.432 147.362 267.402 147.121 268.574 146.824C271.002 146.228 274.354 145.429 278.068 144.574C278.715 144.421 279.355 144.276 279.963 144.136L280.128 144.098L280.16 144.263C280.813 147.552 281.377 150.455 281.77 152.547C281.954 153.548 282.099 154.378 282.213 155.012C282.302 155.589 282.346 155.912 282.327 155.918Z" fill="#00476F"/>
<path d="M258.953 144.364C258.928 144.371 258.846 144.048 258.719 143.471C258.579 142.831 258.402 142 258.193 141.005C257.762 138.92 257.191 136.043 256.583 132.855C256.545 132.658 256.507 132.468 256.475 132.284L256.678 132.411C253.668 133.229 250.93 133.812 248.946 134.167C247.951 134.344 247.152 134.477 246.594 134.553C246.037 134.629 245.733 134.661 245.726 134.642C245.72 134.617 246.024 134.547 246.575 134.433C247.184 134.306 247.963 134.141 248.908 133.945C250.879 133.527 253.598 132.912 256.602 132.094L256.773 132.05L256.805 132.227C256.836 132.405 256.875 132.601 256.913 132.798C257.521 135.986 258.06 138.876 258.427 140.967C258.598 141.969 258.738 142.805 258.852 143.452C258.934 144.035 258.979 144.364 258.953 144.364Z" fill="#00476F"/>
<path d="M235.433 126.105C235.345 126.118 235.155 125.224 235.015 124.115C234.876 123.006 234.831 122.099 234.926 122.087C235.015 122.074 235.205 122.968 235.345 124.077C235.484 125.186 235.528 126.092 235.433 126.105Z" fill="#00476F"/>
<path d="M336.789 113.315C336.783 113.315 336.77 113.264 336.751 113.163C336.726 113.043 336.7 112.897 336.662 112.7C336.586 112.276 336.472 111.674 336.333 110.894C336.047 109.297 335.642 106.977 335.122 104.049L335.23 104.125C332.568 104.55 329.323 105.069 325.653 105.659L325.527 105.678L325.508 105.551C324.544 99.7964 323.391 92.8691 322.117 85.2573L322.307 85.384C318.187 86.341 313.776 87.3678 309.232 88.4262C306.976 88.9523 304.751 89.4656 302.571 89.9727L302.412 90.0107L302.374 89.8522C300.961 84.0974 299.643 78.6468 298.654 73.6146L298.825 73.735C291.023 74.9328 284.349 75.9596 279.374 76.7265L279.279 76.7391L279.266 76.6441C278.892 73.5258 278.594 71.0604 278.385 69.3555C278.29 68.5252 278.214 67.8788 278.164 67.4225C278.145 67.2133 278.125 67.0485 278.113 66.9218C278.1 66.8077 278.1 66.7506 278.106 66.7506C278.113 66.7506 278.125 66.8077 278.138 66.9154C278.157 67.0422 278.183 67.2006 278.214 67.4098C278.278 67.8661 278.366 68.5062 278.487 69.3365C278.715 71.0414 279.038 73.5068 279.456 76.6187L279.349 76.5363C284.324 75.7441 290.985 74.6857 298.781 73.4434L298.92 73.4181L298.945 73.5575C299.947 78.5645 301.271 84.0214 302.691 89.7698L302.495 89.6494C304.669 89.1424 306.893 88.629 309.156 88.103C313.7 87.0509 318.111 86.0305 322.231 85.0735L322.396 85.0354L322.421 85.2002C323.67 92.812 324.804 99.752 325.748 105.513L325.603 105.405C329.279 104.841 332.53 104.347 335.192 103.935L335.281 103.922L335.293 104.011C335.775 106.946 336.155 109.265 336.415 110.869C336.535 111.648 336.631 112.257 336.7 112.681C336.726 112.878 336.751 113.03 336.77 113.15C336.789 113.258 336.795 113.315 336.789 113.315Z" fill="#FAFAFA"/>
<path d="M338.931 100.082C338.931 100.088 338.874 100.107 338.754 100.145C338.621 100.189 338.443 100.24 338.228 100.303C337.771 100.456 337.074 100.608 336.219 100.925C334.482 101.489 332.023 102.477 329.171 104.055C326.312 105.627 323.118 107.877 319.93 110.78C316.742 113.683 313.599 117.27 310.753 121.352C307.926 125.452 305.619 129.616 303.718 133.489C301.817 137.367 300.289 140.948 299.047 143.971C297.805 146.995 296.841 149.46 296.163 151.159C295.827 151.989 295.567 152.648 295.384 153.111C295.295 153.32 295.225 153.485 295.174 153.618C295.124 153.732 295.098 153.789 295.092 153.789C295.086 153.789 295.105 153.725 295.143 153.611C295.187 153.478 295.25 153.307 295.32 153.092C295.491 152.616 295.738 151.957 296.043 151.114C296.683 149.403 297.614 146.925 298.825 143.889C300.042 140.853 301.55 137.26 303.439 133.362C305.328 129.47 307.635 125.287 310.474 121.168C313.339 117.067 316.501 113.467 319.721 110.564C322.941 107.655 326.167 105.418 329.057 103.865C331.94 102.306 334.425 101.343 336.181 100.81C337.049 100.513 337.746 100.379 338.209 100.246C338.43 100.196 338.602 100.151 338.741 100.12C338.868 100.088 338.925 100.075 338.931 100.082Z" fill="#263238"/>
<path d="M30.1874 187.202C29.8895 187.202 29.617 186.999 29.5346 186.702L7.00341 100.823C6.90835 100.462 7.12383 100.094 7.48509 99.9992C7.84635 99.9041 8.21395 100.12 8.30902 100.481L30.8402 186.359C30.9353 186.721 30.7198 187.088 30.3585 187.183C30.3015 187.196 30.2444 187.202 30.1874 187.202Z" fill="#263238"/>
<path d="M24.2361 189.325C23.9382 189.325 23.6657 189.123 23.5833 188.825L1.04577 102.94C0.950704 102.579 1.16619 102.211 1.52745 102.116C1.88871 102.021 2.25631 102.236 2.35138 102.598L24.8826 188.476C24.9776 188.837 24.7621 189.205 24.4009 189.3C24.3502 189.319 24.2931 189.325 24.2361 189.325Z" fill="#263238"/>
<path d="M3.75199 99.2133L2.66821 98.4084L60.5268 20.5411L113.309 30.6564L113.049 31.981L61.1035 22.0305L3.75199 99.2133Z" fill="#263238"/>
<path d="M64.582 23.0013L7.66357 99.8712L8.74855 100.675L65.6669 23.8046L64.582 23.0013Z" fill="#263238"/>
<path d="M59.0882 24.122C59.7663 26.1248 61.9402 27.1959 63.943 26.5114C65.9458 25.8332 67.0169 23.6594 66.3324 21.6566C65.6542 19.6538 63.4803 18.5827 61.4776 19.2672C59.4748 19.9453 58.4037 22.1192 59.0882 24.122Z" fill="#F26522"/>
<path d="M110.812 26.3022L109.867 20.801L113.936 20.4967L114.234 25.8079L110.812 26.3022Z" fill="#F26522"/>
<g opacity="0.3">
<g opacity="0.3">
<path opacity="0.3" d="M110.812 26.3022L109.867 20.801L113.936 20.4967L114.234 25.8079L110.812 26.3022Z" fill="black"/>
</g>
</g>
<path d="M107.478 25.922L103.713 46.33L94.2063 73.2977L147.787 65.5718L126.162 42.0329L117.137 24.5276L107.478 25.922Z" fill="#F26522"/>
<path d="M0 101.495C0 103.84 1.90137 105.748 4.25272 105.748C6.60408 105.748 8.50545 103.846 8.50545 101.495C8.50545 99.1499 6.60408 97.2422 4.25272 97.2422C1.90137 97.2422 0 99.1499 0 101.495Z" fill="#F26522"/>
<path d="M13.2208 204.384C13.2081 204.099 13.1764 203.82 13.1764 203.535C13.1764 194.142 20.7882 186.53 30.1809 186.53C39.5737 186.53 47.1855 194.142 47.1855 203.535C47.1855 203.82 47.1538 204.099 47.1411 204.384H13.2208Z" fill="#F26522"/>
<path d="M105.982 198.015C105.773 198.059 104.886 198.965 106.16 200.404C107.434 201.843 115.109 205.779 116.528 203.427C117.948 201.076 114.526 199.441 114.526 199.441L105.982 198.015Z" fill="#FFBE9D"/>
<path d="M114.418 195.479C114.418 195.479 122.34 194.605 125.573 195.017C129.084 195.467 132.798 193.692 135.003 191.277C137.209 188.856 137.786 185.675 137.786 185.675L142.824 182.145C142.824 182.145 143.369 170.16 135.377 172.099L126.042 172.429C126.042 172.429 107.674 175.471 104.829 177.759C104.829 177.759 101.368 181.118 100.36 182.423C99.9802 182.911 99.6506 187.855 103.162 189.535C103.162 189.535 101.096 192.184 102.915 193.673L103.77 194.326C103.77 194.326 102.585 196.963 103.7 197.723C104.816 198.477 113.632 201.152 116.135 199.409C118.645 197.666 115.742 195.657 114.418 195.479Z" fill="#FFBE9D"/>
<path d="M104.543 189.072C104.55 189.046 104.917 189.097 105.583 189.186C106.248 189.275 107.212 189.389 108.403 189.477C108.999 189.522 109.652 189.554 110.355 189.573C111.059 189.592 111.813 189.566 112.618 189.623C113.416 189.693 114.291 189.845 115.045 190.39C115.755 190.916 116.37 191.81 116.23 192.83C116.161 193.331 115.876 193.768 115.521 194.085C115.159 194.396 114.741 194.605 114.323 194.751C113.474 195.042 112.637 195.125 111.838 195.207C110.241 195.34 108.802 195.251 107.605 195.125C106.407 194.998 105.45 194.839 104.784 194.725C104.125 194.611 103.758 194.535 103.764 194.51C103.77 194.484 104.138 194.522 104.803 194.598C105.469 194.668 106.432 194.795 107.624 194.89C108.815 194.985 110.241 195.048 111.807 194.903C112.586 194.814 113.416 194.719 114.209 194.44C114.602 194.301 114.982 194.104 115.299 193.832C115.603 193.559 115.844 193.185 115.901 192.773C116.021 191.937 115.495 191.119 114.849 190.637C114.19 190.149 113.359 189.985 112.593 189.908C111.813 189.839 111.059 189.858 110.349 189.826C109.639 189.801 108.98 189.75 108.384 189.693C107.186 189.579 106.223 189.42 105.564 189.3C104.898 189.186 104.537 189.097 104.543 189.072Z" fill="#EB996E"/>
<path d="M103.897 183.349C103.903 183.323 104.271 183.374 104.93 183.463C105.589 183.552 106.553 183.678 107.738 183.78C108.923 183.881 110.343 183.964 111.921 183.964C112.7 183.976 113.581 183.919 114.424 184.337C114.836 184.547 115.197 184.908 115.375 185.358C115.559 185.801 115.59 186.302 115.508 186.778C115.331 187.747 114.652 188.508 113.904 188.977C113.15 189.458 112.301 189.68 111.502 189.763C109.893 189.902 108.473 189.655 107.288 189.566C106.141 189.452 105.19 189.351 104.474 189.281C103.808 189.205 103.441 189.154 103.447 189.129C103.447 189.104 103.821 189.116 104.486 189.148C105.209 189.192 106.16 189.256 107.313 189.332C108.505 189.389 109.931 189.611 111.477 189.458C112.244 189.376 113.043 189.154 113.74 188.704C114.431 188.267 115.039 187.57 115.191 186.72C115.362 185.878 115.026 184.971 114.285 184.629C113.562 184.261 112.713 184.287 111.933 184.274C110.349 184.255 108.923 184.154 107.731 184.021C106.54 183.887 105.583 183.723 104.924 183.596C104.252 183.463 103.897 183.368 103.897 183.349Z" fill="#EB996E"/>
<path d="M107.985 184.046C107.89 184.065 107.668 183.374 107.262 182.582C106.863 181.79 106.432 181.2 106.502 181.143C106.565 181.08 107.136 181.599 107.554 182.436C107.991 183.266 108.074 184.033 107.985 184.046Z" fill="#EB996E"/>
<path d="M132.221 172.581L124.73 171.586C124.73 171.586 103.561 167.27 103.352 167.827C103.143 168.385 102.103 168.581 102.883 170.85C103.669 173.119 115.882 175.135 116.427 175.857C116.972 176.58 117.359 180.782 122.156 182.715C126.954 184.642 129.927 183.995 129.927 183.995" fill="#FFBE9D"/>
<path d="M129.927 183.989C129.927 183.995 129.876 184.014 129.768 184.033C129.661 184.052 129.496 184.078 129.28 184.103C128.849 184.147 128.215 184.166 127.398 184.103C126.58 184.04 125.585 183.887 124.463 183.583C123.348 183.266 122.068 182.88 120.781 182.151C119.495 181.435 118.297 180.243 117.479 178.703C117.061 177.943 116.776 177.074 116.459 176.238C116.421 176.13 116.37 176.041 116.319 175.959C116.281 175.902 116.199 175.87 116.097 175.819C115.895 175.731 115.673 175.661 115.457 175.591C115.014 175.458 114.551 175.331 114.088 175.211C112.225 174.729 110.254 174.26 108.238 173.664C107.231 173.367 106.21 173.043 105.196 172.631C104.689 172.422 104.189 172.194 103.707 171.896C103.466 171.75 103.238 171.573 103.022 171.357C102.927 171.237 102.826 171.123 102.763 170.971C102.693 170.825 102.667 170.698 102.623 170.559C102.471 170.02 102.344 169.424 102.522 168.835C102.604 168.537 102.801 168.284 102.978 168.081C103.067 167.979 103.149 167.884 103.187 167.789C103.206 167.764 103.174 167.802 103.238 167.707C103.314 167.631 103.333 167.643 103.365 167.631C103.428 167.612 103.453 167.618 103.504 167.612C103.58 167.605 103.656 167.605 103.726 167.612C104.835 167.681 105.874 167.872 106.92 168.03C108.993 168.372 110.983 168.74 112.878 169.101C116.668 169.824 120.071 170.508 122.923 171.091C123.64 171.231 124.318 171.395 124.958 171.503C125.604 171.592 126.219 171.681 126.796 171.763C127.937 171.928 128.919 172.067 129.737 172.181C130.522 172.302 131.144 172.391 131.594 172.46C131.79 172.492 131.948 172.517 132.075 172.543C132.183 172.562 132.24 172.574 132.24 172.581C132.24 172.587 132.183 172.587 132.075 172.574C131.948 172.562 131.784 172.543 131.587 172.524C131.137 172.473 130.51 172.397 129.724 172.308C128.906 172.207 127.918 172.086 126.777 171.947C126.2 171.877 125.585 171.795 124.939 171.712C124.286 171.611 123.608 171.459 122.892 171.326C120.021 170.774 116.617 170.128 112.833 169.405C110.938 169.057 108.948 168.696 106.882 168.353C105.849 168.195 104.791 168.005 103.732 167.941C103.669 167.941 103.605 167.941 103.542 167.941C103.523 167.948 103.479 167.948 103.479 167.948C103.472 167.935 103.485 167.973 103.46 167.922C103.422 167.865 103.453 167.872 103.428 167.846C103.422 167.84 103.409 167.834 103.403 167.827C103.656 167.922 103.466 167.859 103.523 167.884L103.51 167.916C103.441 168.074 103.339 168.188 103.251 168.29C103.073 168.493 102.927 168.689 102.858 168.924C102.718 169.399 102.813 169.944 102.965 170.457C103.048 170.736 103.111 170.945 103.295 171.129C103.472 171.307 103.682 171.472 103.91 171.611C104.36 171.89 104.854 172.118 105.348 172.321C106.343 172.726 107.357 173.05 108.359 173.348C110.362 173.943 112.333 174.412 114.196 174.907C114.665 175.033 115.121 175.154 115.578 175.3C115.806 175.369 116.028 175.445 116.25 175.54C116.351 175.591 116.497 175.648 116.592 175.781C116.668 175.895 116.719 176.009 116.757 176.117C117.08 176.992 117.346 177.816 117.752 178.564C118.531 180.066 119.678 181.226 120.927 181.935C122.169 182.658 123.437 183.064 124.54 183.387C125.649 183.704 126.631 183.875 127.436 183.957C128.241 184.04 128.875 184.04 129.299 184.021C129.515 184.014 129.673 183.995 129.787 183.989C129.87 183.989 129.927 183.983 129.927 183.989Z" fill="#EB996E"/>
<path d="M112.111 195.105C112.111 195.086 112.39 195.074 112.89 195.144C113.391 195.213 114.107 195.372 114.938 195.752C115.35 195.948 115.787 196.177 116.218 196.512C116.63 196.842 117.086 197.311 117.156 197.983C117.232 198.655 116.795 199.308 116.218 199.656C115.622 200.03 114.893 200.093 114.209 200.074C111.471 199.91 109.024 199.504 107.288 199.054C106.419 198.832 105.729 198.604 105.26 198.433C104.791 198.262 104.537 198.141 104.543 198.122C104.55 198.097 104.816 198.173 105.298 198.312C105.779 198.452 106.47 198.636 107.338 198.832C109.069 199.219 111.515 199.586 114.215 199.751C114.874 199.777 115.54 199.707 116.04 199.39C116.547 199.086 116.902 198.547 116.845 198.015C116.801 197.482 116.421 197.045 116.04 196.728C115.647 196.405 115.223 196.17 114.83 195.967C113.239 195.182 112.092 195.175 112.111 195.105Z" fill="#EB996E"/>
<path d="M167.219 151.837C167.219 151.837 176.605 136.385 178.716 126.187C180.826 115.99 191.727 99.8154 195.245 95.5943C198.762 91.3733 212.826 86.4488 212.826 86.4488L218.011 83.6537L258.187 80.1235C258.187 80.1235 284.913 82.9376 293.001 90.3212C301.088 97.7048 307.419 114.589 307.419 123.025C307.419 131.467 315.589 204.555 315.589 204.555L216.585 204.422L218.803 168.385C218.803 168.385 206.843 160.298 203.681 153.263C200.518 146.228 202.274 149.745 202.274 149.745C202.274 149.745 191.049 173.607 187.183 176.421C183.317 179.235 138.35 193.033 138.35 193.033L132.189 169.437L167.219 151.837Z" fill="#F26522"/>
<path d="M284.108 93.262C283.025 93.5979 269.614 128.234 268.669 131.384C267.725 134.534 268.669 154.385 268.669 154.385L273.081 162.579C273.081 162.579 271.819 168.569 272.764 171.402L252.913 175.186C252.913 175.186 247.875 171.719 243.147 175.186L219.728 177.163C219.728 177.163 226.605 177.239 224.558 187.785C222.555 198.116 221.027 200.385 221.027 200.385L303.325 198.509C303.325 198.509 312.464 198.059 311.076 180.471C309.682 162.89 305.759 114.393 305.759 114.393C305.759 114.393 299.757 88.4072 284.108 93.262Z" fill="#F26522"/>
<path d="M268.486 151.621C268.473 151.628 268.41 151.475 268.289 151.197C268.162 150.88 267.998 150.468 267.788 149.948C267.573 149.409 267.313 148.738 267.06 147.952C266.8 147.166 266.47 146.278 266.204 145.271C265.912 144.269 265.596 143.173 265.329 141.969C265.025 140.777 264.784 139.491 264.524 138.134C264.062 135.415 263.694 132.392 263.561 129.204C263.447 126.016 263.574 122.974 263.834 120.223C263.998 118.854 264.131 117.542 264.353 116.338C264.455 115.736 264.537 115.147 264.651 114.589C264.772 114.031 264.879 113.499 264.987 112.985C265.184 111.959 265.45 111.052 265.653 110.248C265.849 109.443 266.058 108.758 266.242 108.207C266.413 107.674 266.553 107.25 266.654 106.926C266.755 106.635 266.806 106.483 266.819 106.489C266.831 106.495 266.793 106.648 266.717 106.945C266.629 107.275 266.508 107.7 266.362 108.238C266.198 108.796 266.007 109.481 265.824 110.292C265.634 111.097 265.386 112.003 265.209 113.03C265.108 113.543 265 114.076 264.892 114.633C264.784 115.191 264.708 115.78 264.613 116.383C264.404 117.587 264.284 118.892 264.131 120.255C263.891 122.993 263.777 126.016 263.884 129.191C264.017 132.36 264.372 135.371 264.816 138.084C265.063 139.433 265.291 140.72 265.589 141.912C265.843 143.109 266.147 144.206 266.426 145.207C266.679 146.215 266.996 147.102 267.237 147.895C267.472 148.687 267.712 149.359 267.909 149.904C268.093 150.43 268.238 150.848 268.353 151.171C268.448 151.456 268.492 151.615 268.486 151.621Z" fill="#263238"/>
<path d="M297.12 189.18C297.114 189.186 297.038 189.104 296.911 188.939C296.765 188.742 296.581 188.501 296.36 188.21C296.125 187.887 295.84 187.5 295.479 187.069C295.124 186.632 294.737 186.125 294.262 185.599C293.799 185.066 293.292 184.483 292.703 183.894C292.139 183.279 291.486 182.677 290.814 182.037C289.432 180.782 287.841 179.476 286.08 178.24C284.299 177.024 282.518 175.997 280.857 175.147C280.014 174.742 279.222 174.343 278.449 174.032C277.688 173.69 276.966 173.424 276.3 173.176C275.641 172.917 275.026 172.733 274.494 172.555C273.962 172.371 273.499 172.238 273.119 172.137C272.77 172.036 272.478 171.947 272.244 171.877C272.047 171.814 271.94 171.776 271.946 171.763C271.946 171.75 272.06 171.769 272.263 171.807C272.504 171.858 272.802 171.928 273.157 172.004C273.543 172.086 274.019 172.207 274.557 172.371C275.096 172.536 275.717 172.701 276.383 172.948C277.054 173.183 277.79 173.443 278.556 173.772C279.336 174.076 280.141 174.463 280.99 174.862C282.67 175.705 284.476 176.732 286.263 177.955C288.044 179.197 289.641 180.522 291.017 181.796C291.689 182.455 292.341 183.064 292.899 183.691C293.482 184.293 293.983 184.889 294.439 185.434C294.908 185.966 295.282 186.492 295.624 186.942C295.973 187.386 296.246 187.785 296.461 188.121C296.664 188.425 296.829 188.679 296.962 188.888C297.076 189.078 297.126 189.173 297.12 189.18Z" fill="#263238"/>
<path d="M304.047 184.559C303.997 184.604 303.268 183.773 301.899 182.658C301.214 182.094 300.352 181.492 299.357 180.883C298.35 180.294 297.203 179.717 295.941 179.235C294.68 178.766 293.438 178.437 292.291 178.209C291.144 178 290.091 177.879 289.21 177.847C287.442 177.771 286.346 177.911 286.339 177.847C286.339 177.822 286.606 177.778 287.106 177.721C287.353 177.683 287.658 177.651 288.013 177.645C288.368 177.632 288.773 177.6 289.217 177.619C290.11 177.619 291.175 177.714 292.348 177.911C293.514 178.126 294.775 178.45 296.062 178.931C297.336 179.426 298.502 180.021 299.516 180.63C300.517 181.257 301.379 181.891 302.051 182.487C302.4 182.766 302.678 183.063 302.938 183.304C303.198 183.545 303.401 183.773 303.566 183.963C303.889 184.331 304.066 184.547 304.047 184.559Z" fill="#263238"/>
<path d="M296.442 172.98C296.398 173.037 295.428 172.27 293.653 171.389C293.21 171.174 292.722 170.939 292.177 170.743C291.644 170.515 291.042 170.343 290.421 170.147C289.166 169.805 287.753 169.526 286.251 169.412C284.749 169.317 283.31 169.399 282.017 169.57C281.377 169.684 280.762 169.767 280.198 169.925C279.628 170.045 279.114 170.21 278.645 170.362C276.769 170.99 275.704 171.624 275.666 171.554C275.654 171.535 275.92 171.376 276.408 171.104C276.649 170.964 276.953 170.8 277.321 170.648C277.688 170.489 278.094 170.286 278.569 170.141C279.038 169.969 279.558 169.792 280.135 169.659C280.699 169.488 281.32 169.393 281.973 169.272C283.285 169.082 284.742 168.993 286.276 169.088C287.803 169.203 289.236 169.494 290.51 169.855C291.137 170.064 291.739 170.248 292.278 170.489C292.829 170.698 293.317 170.952 293.761 171.18C294.211 171.395 294.591 171.649 294.927 171.858C295.27 172.061 295.548 172.257 295.77 172.435C296.214 172.764 296.455 172.961 296.442 172.98Z" fill="#263238"/>
<path d="M248.306 198.953C248.23 198.934 248.718 197.628 248.889 195.429C248.997 194.332 248.971 193.014 248.857 191.556C248.724 190.105 248.445 188.52 248.027 186.885C247.596 185.256 247.032 183.748 246.449 182.411C245.815 181.099 245.207 179.926 244.566 179.026C243.331 177.195 242.278 176.288 242.335 176.231C242.348 176.212 242.608 176.44 243.058 176.871C243.292 177.074 243.546 177.366 243.831 177.702C243.977 177.873 244.129 178.05 244.294 178.24C244.446 178.437 244.598 178.659 244.763 178.887C245.435 179.78 246.075 180.953 246.734 182.278C247.336 183.628 247.913 185.149 248.356 186.797C248.775 188.451 249.047 190.054 249.168 191.525C249.263 192.995 249.269 194.332 249.13 195.441C249.098 195.714 249.073 195.98 249.041 196.234C248.99 196.481 248.946 196.709 248.902 196.931C248.813 197.368 248.743 197.742 248.635 198.034C248.439 198.636 248.325 198.965 248.306 198.953Z" fill="#263238"/>
<path d="M234.508 175.167C234.502 175.167 234.489 175.103 234.47 174.983C234.445 174.843 234.419 174.666 234.381 174.444C234.312 173.943 234.21 173.246 234.084 172.359C233.83 170.546 233.488 167.916 233.101 164.671C232.322 158.175 231.39 149.175 230.661 139.212C229.939 129.249 229.552 120.204 229.381 113.664C229.292 110.393 229.248 107.744 229.241 105.912C229.241 105.012 229.235 104.309 229.235 103.802C229.235 103.574 229.241 103.396 229.241 103.257C229.248 103.136 229.248 103.073 229.254 103.073C229.26 103.073 229.267 103.136 229.273 103.257C229.279 103.396 229.286 103.58 229.298 103.802C229.317 104.309 229.336 105.012 229.368 105.906C229.425 107.757 229.508 110.4 229.615 113.651C229.843 120.192 230.268 129.223 230.991 139.186C231.719 149.143 232.613 158.143 233.336 164.646C233.703 167.878 234.007 170.502 234.217 172.346C234.318 173.24 234.4 173.937 234.457 174.438C234.476 174.659 234.495 174.843 234.508 174.983C234.515 175.103 234.515 175.167 234.508 175.167Z" fill="#263238"/>
<path d="M202.179 150.202C202.16 150.208 202.008 149.866 201.748 149.232C201.494 148.598 201.114 147.692 200.639 146.57C199.688 144.333 198.268 141.284 196.57 137.976C194.871 134.699 193.331 131.733 192.184 129.521C191.632 128.437 191.195 127.55 190.904 126.935C190.612 126.32 190.46 125.972 190.479 125.965C190.498 125.953 190.688 126.282 191.018 126.878C191.366 127.525 191.835 128.38 192.393 129.413C193.546 131.562 195.163 134.509 196.861 137.824C198.56 141.138 199.948 144.212 200.848 146.475C201.298 147.609 201.646 148.535 201.862 149.181C202.09 149.834 202.198 150.195 202.179 150.202Z" fill="#263238"/>
<path d="M197.121 138.489C197.115 138.508 196.912 138.47 196.544 138.381C196.183 138.293 195.657 138.141 195.023 137.931C193.749 137.519 192.013 136.848 190.181 135.941C188.343 135.029 186.765 134.059 185.662 133.292C185.111 132.912 184.673 132.589 184.382 132.354C184.09 132.12 183.932 131.98 183.944 131.967C183.976 131.929 184.661 132.392 185.789 133.102C186.917 133.812 188.508 134.743 190.327 135.65C192.146 136.55 193.857 137.247 195.099 137.716C196.348 138.179 197.134 138.445 197.121 138.489Z" fill="#263238"/>
<path d="M188.622 160.139C188.609 160.158 188.368 160.006 187.944 159.727C187.519 159.442 186.898 159.037 186.125 158.568C184.572 157.617 182.335 156.432 179.736 155.456C177.131 154.486 174.672 153.909 172.872 153.605C171.972 153.453 171.243 153.345 170.736 153.282C170.229 153.218 169.95 153.168 169.95 153.149C169.95 153.123 170.236 153.13 170.749 153.155C171.262 153.174 172.004 153.25 172.91 153.371C174.729 153.618 177.22 154.163 179.85 155.145C182.48 156.134 184.718 157.363 186.251 158.365C187.018 158.865 187.627 159.296 188.026 159.62C188.419 159.937 188.635 160.12 188.622 160.139Z" fill="#263238"/>
<path d="M257.147 80.1742C257.16 80.1742 257.147 80.3517 257.109 80.6876C257.065 81.0552 257.014 81.5432 256.944 82.158C256.779 83.4319 256.551 85.2762 256.165 87.5452C255.778 89.8078 255.246 92.5014 254.39 95.4295C253.509 98.3386 252.292 101.495 250.404 104.48C249.428 106.052 248.274 107.446 247.102 108.714L246.975 108.853L246.861 108.695C245.162 106.419 242.995 104.753 240.846 103.707C239.781 103.155 238.691 102.82 237.677 102.541C236.65 102.312 235.681 102.16 234.793 102.154C233.019 102.11 231.605 102.414 230.686 102.731C229.767 103.054 229.279 103.295 229.267 103.263C229.26 103.257 229.381 103.193 229.615 103.079C229.85 102.978 230.179 102.775 230.655 102.623C231.574 102.268 233 101.926 234.806 101.945C235.706 101.939 236.695 102.078 237.74 102.3C238.774 102.572 239.883 102.908 240.973 103.453C243.166 104.499 245.378 106.185 247.127 108.505L246.88 108.486C248.033 107.231 249.174 105.855 250.137 104.303C252.001 101.355 253.218 98.2246 254.111 95.3408C254.98 92.4381 255.531 89.7635 255.949 87.5072C256.368 85.2509 256.627 83.4129 256.83 82.1453C256.925 81.5369 257.001 81.0489 257.058 80.6813C257.096 80.3454 257.134 80.1742 257.147 80.1742Z" fill="#263238"/>
<path d="M257.686 80.5735L251.582 72.48L244.947 72.6892L223.385 84.0784L257.686 80.5735Z" fill="#F26522"/>
<path d="M229.254 103.263C229.254 103.276 229.134 103.27 228.906 103.257C228.677 103.238 228.341 103.193 227.91 103.092C227.055 102.908 225.857 102.427 224.507 101.634C223.835 101.229 223.081 100.855 222.194 100.677C221.313 100.487 220.324 100.462 219.335 100.671C217.358 101.07 215.374 102.617 214.55 104.835L214.202 105.767L214.227 104.778C214.233 104.531 214.24 104.271 214.246 104.005C214.322 99.0168 214.328 94.4852 214.531 91.2149C214.62 89.5797 214.753 88.2551 214.886 87.3487C214.943 86.8924 215.013 86.5438 215.064 86.3093C215.114 86.0748 215.146 85.9481 215.152 85.9544C215.184 85.9607 215.095 86.4614 215.007 87.3678C214.911 88.2741 214.816 89.5987 214.753 91.2275C214.607 94.4979 214.639 99.0168 214.563 104.017C214.557 104.284 214.55 104.55 214.544 104.797L214.227 104.734C215.102 102.401 217.18 100.798 219.259 100.392C221.357 99.9548 223.322 100.576 224.608 101.451C225.939 102.262 227.093 102.762 227.929 102.984C228.779 103.206 229.26 103.231 229.254 103.263Z" fill="#263238"/>
<path d="M251.583 33.2866V81.8791C251.583 84.6551 250.6 87.3424 248.813 89.4656C246.069 92.7233 242.767 95.4612 239.059 97.5464L229.26 103.067L221.154 95.8288C218.771 93.6993 217.358 90.6951 217.231 87.5008C217.092 83.958 217.092 80.3961 217.092 80.3961C217.092 80.3961 203.358 79.4074 202.065 65.8633C201.456 59.4874 201.266 46.425 201.234 34.383C201.196 20.6488 211.73 9.19624 225.413 8.06176L225.8 8.03007C239.965 7.68149 251.627 19.1087 251.583 33.2866Z" fill="#FFBE9D"/>
<path d="M217.041 80.1996C217.041 80.1996 225.667 80.1869 234.305 73.7096C234.305 73.7096 230.934 83.8122 217.301 83.7108L217.041 80.1996Z" fill="#EB996E"/>
<path d="M205.785 43.4842C205.836 44.5109 206.742 45.3159 207.813 45.2842C208.884 45.2525 209.714 44.3969 209.664 43.3701C209.613 42.3434 208.707 41.5385 207.636 41.5702C206.565 41.6019 205.734 42.4575 205.785 43.4842Z" fill="#263238"/>
<path d="M204.682 39.8463C204.942 40.0808 206.317 38.8702 208.403 38.7054C210.481 38.509 212.098 39.4533 212.307 39.1808C212.408 39.0604 212.129 38.6231 211.419 38.1921C210.722 37.7611 209.569 37.3872 208.269 37.5012C206.97 37.6153 205.918 38.1857 205.335 38.7245C204.733 39.2695 204.555 39.7449 204.682 39.8463Z" fill="#263238"/>
<path d="M225.61 42.6476C225.661 43.6743 226.567 44.4793 227.638 44.4476C228.709 44.4159 229.539 43.5603 229.489 42.5335C229.438 41.5068 228.532 40.7019 227.461 40.7336C226.396 40.7653 225.565 41.6209 225.61 42.6476Z" fill="#263238"/>
<path d="M225.198 38.5407C225.458 38.7752 226.839 37.5646 228.918 37.3998C230.997 37.2034 232.613 38.1477 232.822 37.8752C232.924 37.7548 232.645 37.3174 231.935 36.8865C231.238 36.4555 230.084 36.0816 228.785 36.1956C227.486 36.3097 226.434 36.8801 225.851 37.4189C225.249 37.9639 225.071 38.4329 225.198 38.5407Z" fill="#263238"/>
<path d="M218.911 54.6199C218.911 54.4995 217.599 54.3854 215.476 54.2903C214.937 54.2776 214.424 54.2143 214.309 53.8593C214.151 53.4854 214.328 52.896 214.531 52.2559C214.924 50.9249 215.336 49.5369 215.767 48.0728C217.472 42.1216 218.664 37.2477 218.423 37.1844C218.182 37.121 216.604 41.8871 214.893 47.8383C214.487 49.3024 214.094 50.7031 213.72 52.0404C213.568 52.6615 213.276 53.3777 213.619 54.1509C213.796 54.5375 214.208 54.791 214.557 54.8544C214.905 54.9304 215.203 54.9114 215.469 54.9051C217.605 54.8354 218.917 54.7403 218.911 54.6199Z" fill="#263238"/>
<path d="M225.166 55.5516C224.824 55.5579 225.008 57.8205 223.208 59.5888C221.408 61.3571 218.974 61.3064 218.987 61.6233C218.968 61.769 219.557 62.0162 220.578 61.9592C221.579 61.9085 223.011 61.4711 224.114 60.3874C225.211 59.3036 225.61 57.9473 225.61 57.0156C225.616 56.0649 225.318 55.5262 225.166 55.5516Z" fill="#263238"/>
<path d="M223.981 30.4155C224.235 30.9669 226.294 30.5232 228.76 30.6183C231.232 30.6627 233.26 31.2141 233.545 30.6753C233.672 30.4218 233.279 29.9148 232.442 29.4331C231.605 28.9514 230.3 28.5331 228.823 28.4951C227.34 28.4571 226.015 28.7993 225.16 29.2366C224.285 29.674 223.873 30.1556 223.981 30.4155Z" fill="#263238"/>
<path d="M204.948 33.7492C205.354 34.1929 206.748 33.5844 208.472 33.4133C210.19 33.1851 211.685 33.4704 211.983 32.9443C212.11 32.6908 211.844 32.2345 211.166 31.8415C210.5 31.4486 209.416 31.1697 208.231 31.3028C207.046 31.4359 206.057 31.9556 205.493 32.488C204.929 33.033 204.771 33.5337 204.948 33.7492Z" fill="#263238"/>
<path d="M235.63 19.6347C235.655 19.6538 235.681 19.6728 235.706 19.6854C238.007 21.2129 239.635 23.5642 240.244 26.2578C240.263 26.3529 240.288 26.4416 240.307 26.5304C241.157 30.3521 241.385 34.2943 242.272 38.1097C243.159 41.9251 242.995 44.8405 246.816 45.7025C249.225 46.2475 251.278 44.9039 252.14 43.5413C252.47 43.0152 252.482 42.3497 252.476 41.7286C252.425 32.3295 254.314 28.6789 253.49 18.9186C253.268 16.263 251.811 13.8673 249.516 12.4983C247.349 11.2054 244.731 9.88707 242.545 11.1546C240.358 12.4222 237.772 16.9158 236.156 18.8615" fill="#263238"/>
<path d="M247.52 39.8019C247.742 39.6815 256.608 36.278 257.077 45.5694C257.546 54.8671 248.122 53.422 248.09 53.1558C248.059 52.8896 247.52 39.8019 247.52 39.8019Z" fill="#FFBE9D"/>
<path d="M250.752 49.4862C250.79 49.4545 250.917 49.5939 251.202 49.7017C251.475 49.8094 251.937 49.8728 252.413 49.6637C253.376 49.2517 254.124 47.6545 254.086 45.975C254.067 45.1257 253.851 44.3335 253.516 43.6807C253.199 43.0152 252.736 42.5652 252.235 42.5018C251.735 42.4131 251.405 42.7237 251.304 42.9962C251.19 43.2624 251.259 43.4462 251.215 43.4652C251.19 43.4906 251.006 43.3194 251.063 42.9328C251.094 42.749 251.19 42.5209 251.399 42.3307C251.614 42.1406 251.937 42.0265 252.28 42.0518C252.996 42.0645 253.68 42.692 254.042 43.4082C254.447 44.1243 254.713 45.018 254.732 45.9687C254.77 47.8447 253.896 49.6446 252.571 50.101C251.925 50.3038 251.373 50.1327 251.075 49.9298C250.778 49.708 250.721 49.5052 250.752 49.4862Z" fill="#EB996E"/>
<path d="M242.976 12.5617C244.953 8.66386 238.254 3.8534 233.564 2.79497C228.874 1.73655 223.03 4.4555 218.6 6.34419C215.805 7.53571 213.054 9.10117 210.019 9.22793C207.984 9.31032 205.988 8.73357 204.017 8.21387C202.045 7.69416 200.005 7.22516 197.989 7.53571C195.974 7.83993 193.977 9.08849 193.369 11.0342C192.754 12.9736 194.072 15.4581 196.101 15.5722C193.42 14.3743 189.858 16.5355 189.68 19.4636C189.503 22.3981 192.773 24.9649 195.581 24.103C194.18 23.2156 192.298 25.0283 192.596 26.6635C192.894 28.2986 194.484 29.3697 196.056 29.9085C200.062 31.2838 204.524 30.3711 208.415 28.6916C212.307 27.012 215.843 24.61 219.69 22.8354C223.537 21.0608 229.964 17.9172 234.064 18.9883C237.081 19.7805 239.414 23.1396 241.004 22.2269C242.545 21.3396 243.419 19.584 243.59 17.8158C243.774 16.0538 243.375 14.2919 242.976 12.5617Z" fill="#263238"/>
<path d="M194.96 15.4074C195.036 15.3567 195.492 16.0538 196.582 17.0552C197.666 18.0376 199.466 19.2925 202.007 19.9453C204.505 20.5918 207.832 20.5918 210.817 18.8552C213.853 17.182 216.318 14.1335 219.202 11.2117C222.08 8.27092 225.572 5.9766 229.21 5.34281C232.822 4.69635 236.302 5.75477 238.33 7.68149C240.371 9.62722 240.947 11.9913 240.928 13.4997C240.922 14.2729 240.776 14.856 240.669 15.2363C240.529 15.6165 240.44 15.8003 240.415 15.794C240.326 15.775 240.65 14.9764 240.574 13.5123C240.485 12.0863 239.838 9.89975 237.893 8.16317C235.972 6.45194 232.734 5.52661 229.362 6.17941C225.971 6.81954 222.663 8.99343 219.855 11.8645C217.022 14.7229 214.48 17.8538 211.229 19.5967C207.997 21.4157 204.429 21.3333 201.836 20.5728C199.187 19.8059 197.374 18.4052 196.335 17.3151C195.815 16.7573 195.454 16.2947 195.251 15.9524C195.036 15.6102 194.934 15.4264 194.96 15.4074Z" fill="#00476F"/>
<path d="M249.846 39.1998C249.814 39.2315 249.428 38.978 249.016 38.2681C248.604 37.571 248.23 36.4048 248.274 34.9471C248.23 31.9429 250.606 28.5205 250.6 24.3628C250.638 22.3093 250.112 20.3509 249.117 18.9122C248.128 17.4799 246.69 16.6116 245.428 16.2186C244.148 15.8067 243.033 15.8954 242.297 16.0538C241.562 16.2313 241.176 16.4405 241.138 16.3707C241.112 16.3327 241.442 16.0158 242.196 15.7116C242.944 15.4327 244.173 15.2236 245.606 15.5912C247.019 15.9398 248.642 16.8207 249.814 18.4179C250.974 20.0023 251.563 22.1572 251.525 24.3691C251.519 26.5811 250.885 28.6409 250.22 30.3585C249.567 32.0887 249.022 33.6288 248.927 34.9724C248.654 37.7421 249.979 39.1428 249.846 39.1998Z" fill="#00476F"/>
<path d="M247.742 52.8643L246.233 51.4636C245.682 50.9566 245.65 50.0946 246.157 49.5496L251.823 43.4335C252.33 42.8821 253.192 42.8504 253.737 43.3575L255.246 44.7581C255.797 45.2652 255.829 46.1271 255.322 46.6722L249.656 52.7882C249.149 53.3396 248.293 53.3713 247.742 52.8643Z" fill="#263238"/>
<path d="M307.489 125.11C307.489 125.11 307.508 125.237 307.527 125.477C307.546 125.731 307.571 126.092 307.609 126.568C307.679 127.537 307.78 128.963 307.907 130.82C308.161 134.547 308.522 139.991 308.991 146.887C309.447 153.795 309.999 162.155 310.632 171.706C310.791 174.095 310.949 176.555 311.12 179.09C311.216 180.351 311.26 181.644 311.323 182.949C311.374 183.602 311.323 184.261 311.304 184.927C311.266 185.586 311.298 186.258 311.19 186.923C311.108 187.589 311.025 188.261 310.943 188.939C310.797 189.604 310.658 190.276 310.512 190.948C310.322 191.607 310.094 192.266 309.885 192.932C309.593 193.565 309.352 194.231 309.01 194.846C307.685 197.311 305.607 199.618 302.729 200.569L302.716 200.575H302.691C284.203 200.569 263.054 200.569 240.688 200.562C234.014 200.556 227.441 200.556 221.027 200.55H220.812L220.869 200.341C221.471 198.198 222.067 196.075 222.656 193.971C222.954 192.919 223.246 191.873 223.537 190.827C223.835 189.782 224.133 188.755 224.272 187.703C224.589 185.605 224.374 183.45 223.727 181.479C223.398 180.497 222.922 179.565 222.244 178.804C221.585 178.044 220.666 177.467 219.715 177.321L218.416 177.119L219.715 177.011C227.904 176.32 235.738 175.667 243.134 175.046L243.064 175.071C244.541 174.007 246.341 173.424 248.109 173.519C249.871 173.601 251.551 174.165 252.996 175.071L252.894 175.052C260.05 173.696 266.686 172.441 272.745 171.294L272.656 171.446C272.402 170.673 272.345 169.881 272.314 169.114C272.288 168.347 272.314 167.586 272.377 166.845C272.497 165.362 272.707 163.942 272.979 162.567L272.992 162.637C271.401 159.664 269.937 156.945 268.593 154.435L268.581 154.416V154.397C268.27 147.09 268.162 141.329 268.213 137.399C268.232 135.434 268.308 133.926 268.416 132.912C268.467 132.405 268.517 132.025 268.587 131.771C268.644 131.517 268.676 131.391 268.676 131.391C268.676 131.391 268.657 131.524 268.612 131.777C268.555 132.031 268.511 132.411 268.466 132.918C268.378 133.932 268.321 135.434 268.314 137.399C268.295 141.329 268.428 147.083 268.764 154.385L268.752 154.347C270.108 156.85 271.572 159.563 273.176 162.529L273.195 162.56L273.188 162.598C272.922 163.961 272.713 165.381 272.599 166.851C272.542 167.586 272.516 168.334 272.542 169.095C272.573 169.849 272.637 170.629 272.878 171.364L272.922 171.491L272.789 171.516C266.73 172.676 260.094 173.95 252.945 175.319L252.894 175.331L252.844 175.3C251.456 174.431 249.801 173.874 248.103 173.804C246.398 173.715 244.668 174.273 243.242 175.306L243.21 175.331L243.172 175.338C235.776 175.965 227.942 176.631 219.754 177.328V177.017C220.85 177.188 221.782 177.803 222.491 178.602C223.201 179.407 223.696 180.376 224.038 181.384C224.703 183.412 224.919 185.605 224.602 187.76C224.463 188.837 224.152 189.889 223.86 190.929C223.569 191.975 223.277 193.02 222.979 194.072C222.39 196.177 221.794 198.3 221.199 200.442L221.04 200.233C227.46 200.233 234.026 200.239 240.7 200.239C263.067 200.258 284.21 200.271 302.704 200.284L302.672 200.29C304.022 199.872 305.252 199.035 306.266 198.072C307.28 197.083 308.123 195.948 308.769 194.719C309.105 194.11 309.346 193.458 309.631 192.837C309.84 192.177 310.062 191.531 310.252 190.878C310.398 190.213 310.537 189.554 310.683 188.894C310.766 188.229 310.848 187.563 310.93 186.904C311.038 186.245 311.006 185.58 311.044 184.927C311.063 184.268 311.114 183.615 311.063 182.968C311.006 181.669 310.962 180.389 310.873 179.121C310.715 176.586 310.556 174.127 310.404 171.738C309.796 162.187 309.27 153.82 308.833 146.912C308.402 140.01 308.066 134.566 307.831 130.839C307.723 128.982 307.635 127.556 307.578 126.587C307.552 126.111 307.533 125.744 307.521 125.496C307.489 125.23 307.489 125.11 307.489 125.11Z" fill="#263238"/>
<path d="M289.54 90.5747C289.553 90.6001 289.141 90.8282 288.412 91.2782C287.683 91.7219 286.656 92.4127 285.477 93.3824C283.107 95.2901 280.249 98.459 277.885 102.471C275.514 106.483 273.942 110.419 272.814 113.258C272.269 114.652 271.826 115.793 271.496 116.636C271.35 117.004 271.223 117.308 271.128 117.549C271.04 117.758 270.989 117.866 270.976 117.859C270.964 117.853 270.995 117.739 271.065 117.523C271.147 117.276 271.249 116.966 271.376 116.585C271.654 115.774 272.06 114.608 272.592 113.169C273.67 110.305 275.21 106.337 277.599 102.3C279.982 98.2562 282.898 95.0746 285.332 93.1986C286.542 92.2479 287.594 91.5824 288.348 91.1705C288.716 90.955 289.027 90.8156 289.223 90.7141C289.426 90.6064 289.54 90.562 289.54 90.5747Z" fill="#263238"/>
<g opacity="0.3">
<g opacity="0.3">
<path opacity="0.3" d="M264.734 114.773C262.04 120.629 260.95 127.284 261.191 133.729C261.431 140.175 262.205 146.633 261.571 153.047C260.937 159.461 258.713 166.015 253.921 170.331C253.344 170.85 252.723 171.351 252.375 172.048C252.032 172.739 252.058 173.696 252.673 174.171C253.218 174.596 253.984 174.495 254.663 174.381C259.251 173.582 263.884 173.018 268.473 172.219C269.455 172.048 272.764 171.402 272.764 171.402C272.764 171.402 272.326 168.886 272.485 167.631C272.631 166.484 273.081 162.579 273.081 162.579C272.947 161.977 272.51 161.521 272.2 160.951C269.183 155.348 268.397 151.197 268.397 151.197C266.831 147.99 266.128 144.776 265.405 141.779C263.396 133.476 263.453 125.294 264.734 114.773Z" fill="black"/>
</g>
</g>
<g opacity="0.3">
<g opacity="0.3">
<path opacity="0.3" d="M214.493 105.31C214.867 106.261 215.247 107.212 215.621 108.162C215.735 108.454 215.881 108.771 216.166 108.885C216.73 109.1 217.18 108.41 217.447 107.864C218.505 105.722 220.698 104.188 223.068 103.91C224.995 103.688 226.972 104.246 228.867 103.853C227.188 102.851 225.496 101.843 223.632 101.248C221.775 100.652 219.709 100.494 217.884 101.191C216.059 101.894 214.55 103.574 214.411 105.519" fill="black"/>
</g>
</g>
<g opacity="0.3">
<g opacity="0.3">
<path opacity="0.3" d="M230.16 102.908C232.41 102.946 234.686 102.991 236.872 103.51C239.059 104.03 241.195 105.082 242.621 106.825C244.154 108.695 244.725 111.141 245.346 113.48C245.466 113.93 245.682 114.462 246.145 114.513C246.423 114.545 246.677 114.373 246.905 114.209C250.695 111.426 253.199 107.155 254.574 102.661C255.943 98.1612 256.26 93.4141 256.336 88.7177C254.523 91.9564 253.737 95.645 252.539 99.1562C251.342 102.667 249.58 106.204 246.474 108.232C246.576 107.44 246.265 106.635 245.764 106.007C245.27 105.38 244.604 104.911 243.92 104.499C239.743 101.977 234.477 101.33 229.812 102.775" fill="black"/>
</g>
</g>
<path d="M220.311 177.562H212.554C212.554 177.562 195.042 171.237 191.442 171.839C188.197 172.384 176.326 180.269 174 181.834C173.741 182.005 173.544 182.259 173.436 182.55C172.961 183.837 173.588 185.263 174.85 185.782L175.097 185.884L174.989 186.239C174.856 186.676 174.786 187.17 174.812 187.658C174.9 189.325 177.138 189.832 177.993 188.4L177.543 189.192C177.359 189.515 177.277 189.883 177.296 190.257L177.334 190.98C177.378 191.784 177.911 192.475 178.678 192.722C179.407 192.957 180.205 192.754 180.719 192.19C182.227 190.536 185.478 187.215 187.678 186.847C189.636 186.524 192.894 186.48 194.865 186.486C195.866 186.492 196.76 187.107 197.127 188.039C195.822 188.134 186.721 192.875 183.501 194.573C182.506 195.099 181.758 196.044 181.631 197.165C181.511 198.173 182.024 199.231 184.014 198.762C188.292 197.761 195.993 194.225 195.993 194.225C195.993 194.225 199.967 193.09 202.54 194.903C206.159 197.457 207.819 198.395 210.925 197.362C214.03 196.329 216.325 194.852 216.325 194.852L222.447 194.244C222.435 194.25 228.227 179.78 220.311 177.562Z" fill="#FFBE9D"/>
<path d="M197.184 180.522C197.172 180.592 195.942 180.192 193.895 180.066C191.861 179.926 188.97 180.161 186.093 181.39C183.216 182.62 181.042 184.54 179.736 186.106C178.412 187.671 177.847 188.831 177.79 188.799C177.771 188.793 177.898 188.495 178.177 187.988C178.456 187.481 178.906 186.771 179.552 185.96C180.826 184.337 183.019 182.341 185.96 181.092C188.894 179.838 191.854 179.641 193.908 179.838C194.941 179.933 195.765 180.097 196.329 180.25C196.893 180.389 197.191 180.503 197.184 180.522Z" fill="#EB996E"/>
<path d="M195.334 176.269C195.315 176.352 194.066 175.737 191.911 175.674C189.769 175.578 186.758 176.225 183.944 177.93C181.13 179.641 179.026 181.809 177.524 183.361C176.814 184.116 176.225 184.743 175.762 185.231C175.344 185.675 175.109 185.909 175.09 185.897C175.071 185.884 175.281 185.618 175.667 185.149C176.054 184.68 176.624 184.014 177.353 183.203C178.811 181.606 180.909 179.388 183.773 177.651C186.644 175.914 189.737 175.293 191.918 175.445C193.014 175.509 193.882 175.712 194.459 175.908C194.751 175.99 194.966 176.105 195.112 176.162C195.264 176.219 195.334 176.257 195.334 176.269Z" fill="#EB996E"/>
<path d="M296.436 0.209152C282.118 0.209152 270.52 11.8138 270.52 26.1248C270.52 31.6387 272.244 36.7407 275.178 40.9428L272.067 50.608L281.592 47.363C285.801 50.3102 290.915 52.0404 296.442 52.0404C310.759 52.0404 322.358 40.4357 322.358 26.1248C322.358 11.8138 310.753 0.209152 296.436 0.209152Z" fill="white"/>
<path d="M289.603 25.9283C289.565 27.1642 288.539 28.1339 287.303 28.0959C286.067 28.0578 285.097 27.0311 285.135 25.7952C285.173 24.5593 286.2 23.5896 287.436 23.6276C288.672 23.6593 289.641 24.6924 289.603 25.9283Z" fill="#263238"/>
<path d="M298.546 26.1945C298.508 27.4304 297.481 28.4001 296.246 28.362C295.01 28.324 294.04 27.2973 294.078 26.0614C294.116 24.8255 295.143 23.8558 296.379 23.8938C297.615 23.9319 298.584 24.9586 298.546 26.1945Z" fill="#263238"/>
<path d="M307.502 25.3452C308.085 26.4353 307.679 27.7853 306.589 28.3747C305.499 28.9578 304.149 28.5522 303.559 27.4621C302.976 26.3719 303.382 25.022 304.472 24.4326C305.556 23.8495 306.912 24.2614 307.502 25.3452Z" fill="#263238"/>
<path d="M297.234 0.0316894C297.234 0.0190137 297.386 0.0253516 297.684 0.0380273C298.014 0.057041 298.451 0.0823925 299.009 0.114082C299.3 0.139434 299.63 0.145771 299.985 0.190137C300.34 0.253515 300.733 0.316894 301.151 0.392949C301.576 0.469004 302.026 0.545058 302.514 0.633789C302.989 0.766884 303.496 0.906318 304.028 1.05843C306.158 1.6732 308.731 2.6936 311.336 4.50624C313.941 6.29352 316.628 8.80966 318.77 12.1941C320.868 15.5785 322.44 19.7996 322.744 24.5023C322.751 25.6748 322.858 26.8726 322.706 28.0832C322.643 28.6853 322.637 29.3001 322.535 29.9085C322.427 30.5169 322.313 31.1254 322.199 31.7465C321.629 34.1739 320.824 36.6583 319.493 38.9527C318.194 41.2533 316.539 43.4335 314.537 45.3539C312.502 47.2363 310.145 48.8524 307.533 50.0693C304.935 51.2989 302.064 52.1165 299.104 52.3826C298.369 52.5031 297.621 52.4841 296.873 52.5031C296.125 52.5284 295.371 52.5348 294.617 52.4777C293.115 52.37 291.606 52.1355 290.123 51.7742C286.897 50.9883 283.887 49.575 281.256 47.7243L281.529 47.7623C278.379 48.9158 275.286 50.0503 272.269 51.1594L271.718 51.3622L271.889 50.8045C272.916 47.4771 273.911 44.2385 274.874 41.1012L274.912 41.342C272.447 37.8499 270.926 33.9077 270.368 30.0162C270.089 28.0705 270 26.1374 270.184 24.2804C270.254 23.3488 270.324 22.4298 270.526 21.5361C270.609 21.0862 270.691 20.6425 270.774 20.2052C270.869 19.7679 271.014 19.3432 271.135 18.9186C273.112 12.0864 277.504 7.13012 281.789 4.34145C283.937 2.92177 286.042 1.92672 287.962 1.31828C288.437 1.16617 288.9 1.01406 289.344 0.868291C289.8 0.766884 290.237 0.671816 290.656 0.576748C291.074 0.488017 291.473 0.399287 291.853 0.316894C292.234 0.253516 292.608 0.228164 292.95 0.183799C293.647 0.114082 294.255 0.0126758 294.788 0.00633789C295.314 0.00633789 295.758 0 296.131 0C296.474 0 296.74 0.00633789 296.955 0.00633789C297.139 0.0190137 297.234 0.0253515 297.234 0.0316894C297.234 0.0380273 297.139 0.0507031 296.955 0.0633789C296.746 0.0760547 296.474 0.0887304 296.138 0.101406C295.764 0.114082 295.32 0.133096 294.801 0.152109C294.268 0.177461 293.666 0.291543 292.975 0.373935C290.269 0.785898 286.2 1.73658 281.985 4.633C277.777 7.42167 273.493 12.3335 271.591 19.0517C271.477 19.47 271.338 19.8883 271.243 20.3129C271.167 20.7439 271.084 21.1812 271.008 21.6249C270.812 22.4995 270.748 23.3995 270.685 24.3185C270.514 26.1438 270.602 28.0388 270.888 29.9465C271.452 33.7556 272.954 37.6154 275.375 41.0252L275.451 41.1392L275.413 41.2723C274.456 44.4096 273.467 47.6482 272.447 50.982L272.073 50.627C275.09 49.5179 278.183 48.3771 281.326 47.2173L281.472 47.1666L281.599 47.2553C284.172 49.0616 287.119 50.4432 290.269 51.2101C291.72 51.5651 293.191 51.7932 294.661 51.901C295.396 51.958 296.131 51.9517 296.867 51.9263C297.602 51.9073 298.331 51.9263 299.053 51.8059C301.95 51.5524 304.751 50.7538 307.299 49.5559C309.853 48.3644 312.16 46.7926 314.156 44.9546C316.115 43.0786 317.737 40.9491 319.024 38.6991C320.336 36.4555 321.128 34.0281 321.699 31.6451C321.813 31.043 321.92 30.4409 322.034 29.8451C322.142 29.2494 322.149 28.6473 322.212 28.0515C322.364 26.8663 322.263 25.6875 322.263 24.5403C321.984 19.9263 320.463 15.7687 318.422 12.4223C316.337 9.08219 313.713 6.57239 311.159 4.78511C308.604 2.96613 306.076 1.92672 303.978 1.28025C303.452 1.12181 302.951 0.976035 302.482 0.830263C302 0.735195 301.557 0.646465 301.138 0.57041C300.72 0.488017 300.34 0.411963 299.985 0.342246C299.63 0.291543 299.307 0.272529 299.015 0.24084C298.457 0.183799 298.02 0.139434 297.697 0.107744C297.386 0.0633789 297.234 0.0443652 297.234 0.0316894Z" fill="#263238"/>
<path d="M353.705 198.198C352.076 198.427 350.485 199.219 349.496 200.537C348.508 201.855 348.197 203.712 348.907 205.195C349.617 206.679 351.404 207.629 352.995 207.192C353.046 208.358 354.104 209.391 355.27 209.41C356.436 209.429 357.533 208.434 357.622 207.268C358.376 208.13 359.7 208.434 360.759 207.997C361.817 207.553 362.527 206.393 362.445 205.252C362.394 204.53 362.058 203.852 361.969 203.129C361.874 202.343 362.077 201.545 362.058 200.753C362.039 199.96 361.697 199.073 360.943 198.82" fill="#D1D1D1"/>
<path d="M321.191 202.489C323.644 200.917 326.452 199.986 329.272 199.257C331.326 198.724 333.519 198.3 335.534 198.959C337.429 199.58 338.963 201.203 339.489 203.129C339.685 203.864 339.736 204.682 339.381 205.354C338.906 206.248 337.86 206.659 336.878 206.9C336.13 207.084 335.166 207.141 334.748 206.495C334.254 207.122 333.487 207.528 332.695 207.591C331.896 207.655 331.079 207.369 330.495 206.824C329.957 208.067 328.423 208.783 327.124 208.396C325.824 208.016 324.924 206.59 325.14 205.252C324.538 206.121 323.486 206.679 322.434 206.59C321.382 206.501 320.406 205.702 320.203 204.663C320 203.624 320.678 202.47 321.698 202.223" fill="#D1D1D1"/>
<path d="M297.481 202.084C296.835 199.346 297.9 196.487 300.181 194.839C302.723 193.008 304.51 190.878 307.825 188.907C310.183 187.5 314.137 186.023 315.918 185.434C322.415 183.279 326.807 182.728 329.475 181.333C332.403 179.8 336.301 177.397 336.301 177.397L369.467 179.964C369.467 179.964 373.454 204.46 367.414 206.85C367.414 206.85 339.318 207.148 337.106 206.165C334.71 205.107 298.147 205.126 298.255 205.367L297.481 202.084Z" fill="#D1D1D1"/>
<path d="M315.424 197.406C308.332 198.471 304.783 198.794 297.614 198.839C295.517 198.851 293.393 198.82 291.34 199.244C290.091 199.504 288.836 199.948 287.917 200.835C286.998 201.722 286.498 203.123 286.948 204.314C287.398 205.506 288.976 206.229 290.06 205.55C290.243 206.545 291.074 207.388 292.069 207.578C293.064 207.769 294.148 207.3 294.686 206.438C295.143 207.027 295.979 207.198 296.714 207.078C297.45 206.957 298.121 206.596 298.793 206.279C301.69 204.929 304.757 205.259 307.952 205.284C313.529 205.322 319.841 205.265 317.515 205.284" fill="#D1D1D1"/>
<path d="M317.522 205.291C317.522 205.278 317.68 205.272 317.991 205.259H318.003H318.01H318.016C318.023 205.373 318.01 205.291 318.016 205.316H317.984H317.921C317.877 205.316 317.832 205.316 317.782 205.322C317.687 205.322 317.579 205.329 317.471 205.329C317.243 205.335 316.977 205.341 316.685 205.348C315.475 205.36 313.757 205.379 311.615 205.405C310.531 205.405 309.34 205.411 308.053 205.411C306.76 205.411 305.378 205.348 303.914 205.386C302.457 205.43 300.904 205.595 299.414 206.191C298.673 206.476 297.963 206.932 297.107 207.167C296.683 207.281 296.22 207.325 295.77 207.236C295.32 207.154 294.87 206.932 294.566 206.545L294.826 206.533C294.268 207.414 293.165 207.933 292.094 207.756C291.023 207.572 290.11 206.691 289.901 205.588L290.148 205.696C289.35 206.197 288.241 205.988 287.525 205.373C287.049 204.993 286.739 204.416 286.656 203.826C286.561 203.237 286.663 202.635 286.878 202.096C287.303 201.006 288.241 200.214 289.223 199.751C290.225 199.282 291.283 199.06 292.31 198.915C293.343 198.769 294.363 198.724 295.352 198.699C299.307 198.68 302.85 198.655 305.828 198.439C308.801 198.236 311.197 197.92 312.851 197.71C313.662 197.609 314.296 197.527 314.759 197.463C314.961 197.438 315.126 197.419 315.253 197.406C315.367 197.394 315.424 197.394 315.424 197.4C315.424 197.406 315.367 197.419 315.259 197.444C315.132 197.47 314.968 197.495 314.765 197.533C314.309 197.609 313.668 197.71 312.863 197.837C311.209 198.084 308.82 198.433 305.835 198.667C302.856 198.921 299.288 198.965 295.352 199.003C294.37 199.029 293.362 199.079 292.348 199.225C291.34 199.371 290.307 199.593 289.356 200.043C288.412 200.486 287.563 201.215 287.176 202.217C286.764 203.18 286.865 204.435 287.727 205.113C288.361 205.652 289.318 205.823 289.965 205.411L290.167 205.278L290.212 205.519C290.383 206.476 291.207 207.268 292.139 207.426C293.07 207.585 294.065 207.128 294.547 206.355L294.667 206.165L294.807 206.343C295.308 206.97 296.258 207.071 297.019 206.856C297.811 206.647 298.521 206.197 299.294 205.905C300.834 205.303 302.425 205.145 303.895 205.107C305.372 205.075 306.754 205.157 308.04 205.164C309.327 205.176 310.518 205.189 311.602 205.195C313.744 205.208 315.462 205.221 316.673 205.233C316.964 205.24 317.224 205.24 317.458 205.24C317.573 205.24 317.674 205.246 317.769 205.246C317.813 205.246 317.864 205.246 317.908 205.246H317.972H318.003C318.01 205.271 317.997 205.189 318.003 205.303H317.997H317.984C317.68 205.31 317.522 205.303 317.522 205.291Z" fill="#455A64"/>
<path d="M361.887 203.991C361.887 203.991 362.058 204.124 362.261 204.479C362.451 204.828 362.66 205.424 362.565 206.19C362.521 206.571 362.4 206.989 362.147 207.382C361.9 207.781 361.513 208.143 361.012 208.358C360.036 208.795 358.572 208.688 357.641 207.636L357.875 207.591C357.571 208.504 356.671 209.277 355.574 209.353C354.484 209.429 353.337 208.707 352.957 207.572L353.147 207.68C351.391 208.117 349.427 206.932 348.685 205.157C348.108 203.814 348.356 202.305 348.958 201.133C349.572 199.948 350.536 199.01 351.607 198.427C352.678 197.831 353.813 197.533 354.877 197.393C355.942 197.254 356.95 197.273 357.856 197.343C359.669 197.501 361.101 197.818 362.096 198.002C362.565 198.097 362.945 198.167 363.237 198.224C363.497 198.274 363.636 198.306 363.63 198.319C363.63 198.331 363.49 198.319 363.224 198.287C362.958 198.255 362.571 198.198 362.071 198.122C361.069 197.977 359.631 197.698 357.837 197.571C356.069 197.463 353.825 197.539 351.759 198.686C350.739 199.25 349.826 200.144 349.249 201.272C348.679 202.381 348.457 203.801 348.989 205.024C349.674 206.672 351.506 207.756 353.071 207.363L353.217 207.325L353.261 207.464C353.584 208.453 354.611 209.112 355.562 209.049C356.519 208.992 357.349 208.301 357.622 207.496L357.698 207.274L357.85 207.452C358.667 208.402 360.024 208.535 360.93 208.149C361.881 207.769 362.324 206.862 362.419 206.159C362.533 205.436 362.356 204.86 362.198 204.511C362.02 204.162 361.868 204.01 361.887 203.991Z" fill="#455A64"/>
<path d="M366.85 197.641C366.812 197.679 366.469 197.343 365.804 196.982C365.151 196.62 364.137 196.265 362.996 196.322C361.855 196.379 360.886 196.836 360.271 197.26C359.65 197.685 359.339 198.059 359.301 198.021C359.269 198.002 359.517 197.571 360.131 197.07C360.734 196.576 361.754 196.05 362.977 195.986C364.2 195.923 365.265 196.341 365.918 196.772C366.59 197.216 366.875 197.622 366.85 197.641Z" fill="#455A64"/>
<path d="M321.071 206.368C321.065 206.374 320.982 206.324 320.824 206.203C320.684 206.07 320.469 205.874 320.279 205.55C319.892 204.929 319.569 203.807 319.924 202.502C320.279 201.196 321.401 199.929 322.903 199.054C324.405 198.148 326.262 197.647 328.055 196.855C331.662 195.226 334.178 192.494 335.528 190.314C336.219 189.224 336.669 188.273 336.941 187.601C337.22 186.93 337.353 186.556 337.378 186.562C337.391 186.568 337.366 186.663 337.315 186.847C337.258 187.031 337.195 187.31 337.062 187.646C336.821 188.337 336.396 189.306 335.724 190.434C334.412 192.672 331.871 195.492 328.189 197.153C326.357 197.964 324.519 198.452 323.055 199.314C321.584 200.144 320.507 201.342 320.146 202.565C319.778 203.788 320.044 204.872 320.387 205.487C320.742 206.114 321.096 206.336 321.071 206.368Z" fill="#455A64"/>
<path d="M334.279 206.171C334.311 206.14 334.476 206.463 334.995 206.736C335.496 207.008 336.415 207.198 337.366 206.767C338.316 206.362 339.052 205.151 339.007 203.776C339.001 203.091 338.798 202.381 338.424 201.735C338.044 201.095 337.505 200.512 336.846 200.062C335.528 199.149 333.969 198.775 332.587 198.781C331.186 198.775 329.938 199.06 328.911 199.346C327.884 199.637 327.067 199.929 326.496 200.119C325.926 200.315 325.609 200.417 325.603 200.391C325.596 200.372 325.894 200.227 326.452 199.998C327.01 199.77 327.814 199.441 328.848 199.124C329.874 198.807 331.142 198.49 332.587 198.484C334.026 198.465 335.648 198.839 337.036 199.802C337.727 200.277 338.304 200.898 338.703 201.583C339.096 202.274 339.311 203.047 339.311 203.782C339.343 205.259 338.519 206.571 337.454 206.989C336.402 207.42 335.433 207.173 334.926 206.85C334.659 206.691 334.495 206.507 334.393 206.387C334.317 206.248 334.273 206.178 334.279 206.171Z" fill="#455A64"/>
<path d="M330.584 206.628C330.616 206.609 330.888 207.046 331.643 207.312C332.004 207.445 332.479 207.585 332.961 207.54C333.443 207.483 333.956 207.173 334.241 206.685C334.526 206.197 334.507 205.607 334.368 205.119C334.228 204.631 333.975 204.232 333.74 203.909C333.252 203.281 332.891 202.92 332.936 202.882C332.961 202.857 333.373 203.148 333.924 203.763C334.19 204.074 334.495 204.486 334.659 205.031C334.831 205.557 334.869 206.248 334.526 206.843C334.184 207.433 333.576 207.781 332.999 207.832C332.409 207.87 331.934 207.686 331.554 207.521C331.174 207.344 330.901 207.135 330.749 206.951C330.591 206.767 330.565 206.634 330.584 206.628Z" fill="#455A64"/>
<path d="M325.26 205.443C325.286 205.449 325.241 205.626 325.235 205.943C325.229 206.254 325.298 206.723 325.584 207.211C325.856 207.693 326.376 208.174 327.098 208.32C327.802 208.478 328.67 208.326 329.329 207.8C329.988 207.274 330.337 206.476 330.413 205.753C330.495 205.018 330.299 204.352 330.045 203.852C329.513 202.838 328.848 202.457 328.892 202.413C328.905 202.394 329.069 202.47 329.336 202.679C329.595 202.882 329.95 203.224 330.255 203.744C330.553 204.257 330.793 204.98 330.717 205.791C330.648 206.59 330.274 207.471 329.532 208.066C328.784 208.656 327.821 208.814 327.029 208.624C326.217 208.44 325.647 207.87 325.381 207.331C325.102 206.786 325.064 206.273 325.108 205.943C325.153 205.601 325.248 205.436 325.26 205.443Z" fill="#455A64"/>
<path d="M338.43 183.102C338.43 183.102 345.447 190.827 354.142 189.845C362.838 188.863 369.53 180.433 369.53 180.433C370.868 178.31 370.316 176.111 369.898 174.488C369.48 172.866 368.681 171.313 368.675 169.634C368.669 168.201 369.239 166.839 369.651 165.47C370.576 162.402 370.716 159.157 370.855 155.956C370.912 154.581 370.842 152.946 369.683 152.211C368.96 151.754 368.009 151.818 367.23 152.166C366.45 152.515 365.81 153.104 365.195 153.694C362.578 156.21 360.112 158.891 357.831 161.718C354.307 159.214 349.015 159.645 345.941 162.675C342.214 161.109 340.991 155.893 337.176 154.562C336.345 154.271 335.357 154.22 334.653 154.746C333.728 155.443 333.677 156.787 333.709 157.946C333.867 163.163 334.057 168.531 336.181 173.297C335.255 176.504 336.041 180.161 338.215 182.702" fill="#D1D1D1"/>
<path d="M351.157 184.198C351.613 183.526 352.317 183.026 353.096 182.804C353.876 182.582 354.738 182.639 355.479 182.968C355.663 183.051 355.847 183.152 355.967 183.317C356.088 183.482 356.126 183.716 356.012 183.887C355.879 183.678 355.543 183.704 355.365 183.881C355.194 184.059 355.15 184.325 355.143 184.572C355.137 184.819 355.15 185.073 355.061 185.307C354.953 185.586 354.7 185.795 354.408 185.852C354.117 185.909 353.8 185.802 353.603 185.586C353.426 185.396 353.344 185.136 353.229 184.902C353.115 184.667 352.932 184.439 352.672 184.394C352.469 184.356 352.266 184.445 352.07 184.521C351.88 184.597 351.658 184.661 351.468 184.578C351.277 184.496 351.189 184.198 351.36 184.078" fill="#455A64"/>
<path d="M354.402 185.161C354.453 185.168 354.44 185.44 354.541 185.852C354.636 186.258 354.89 186.809 355.372 187.221C355.853 187.627 356.443 187.785 356.855 187.811C357.279 187.842 357.546 187.779 357.558 187.83C357.571 187.868 357.317 188.013 356.848 188.039C356.392 188.07 355.714 187.937 355.15 187.468C354.592 186.993 354.351 186.347 354.307 185.89C354.263 185.428 354.364 185.155 354.402 185.161Z" fill="#455A64"/>
<path d="M354.453 184.749C354.484 184.737 354.674 185.041 354.693 185.605C354.719 186.156 354.516 186.98 353.87 187.589C353.217 188.191 352.38 188.337 351.835 188.273C351.271 188.216 350.979 188.007 350.998 187.975C351.018 187.925 351.334 188.045 351.848 188.039C352.355 188.039 353.084 187.868 353.648 187.342C354.205 186.816 354.427 186.093 354.465 185.592C354.497 185.085 354.396 184.768 354.453 184.749Z" fill="#455A64"/>
<path d="M367.876 187.652C367.832 187.754 365.893 186.701 363.243 186.391C360.594 186.049 358.458 186.6 358.439 186.492C358.427 186.454 358.946 186.271 359.821 186.125C360.695 185.979 361.931 185.903 363.281 186.068C364.631 186.232 365.81 186.606 366.621 186.961C367.439 187.316 367.895 187.62 367.876 187.652Z" fill="#455A64"/>
<path d="M371.914 185.935C371.901 185.985 371.121 185.789 369.847 185.567C368.574 185.339 366.799 185.111 364.828 185.079C362.857 185.047 361.076 185.218 359.796 185.402C358.515 185.586 357.729 185.751 357.717 185.7C357.71 185.681 357.901 185.611 358.255 185.516C358.604 185.415 359.117 185.294 359.758 185.174C361.038 184.927 362.838 184.724 364.834 184.756C366.831 184.794 368.624 185.06 369.892 185.345C370.526 185.491 371.039 185.624 371.381 185.738C371.73 185.84 371.92 185.916 371.914 185.935Z" fill="#455A64"/>
<path d="M374.049 181.441C374.043 181.492 373.092 181.447 371.552 181.447C370.012 181.454 367.876 181.517 365.576 181.942C363.269 182.36 361.266 183.108 359.897 183.799C358.522 184.49 357.755 185.066 357.723 185.016C357.71 184.997 357.888 184.838 358.236 184.578C358.585 184.318 359.111 183.97 359.789 183.596C361.146 182.835 363.174 182.043 365.512 181.618C367.851 181.188 370.006 181.162 371.552 181.213C372.326 181.238 372.953 181.289 373.384 181.333C373.815 181.384 374.049 181.422 374.049 181.441Z" fill="#455A64"/>
<path d="M337.708 191.512C337.695 191.493 337.828 191.366 338.076 191.144C338.323 190.923 338.709 190.631 339.204 190.289C340.186 189.611 341.65 188.806 343.387 188.216C345.123 187.633 346.778 187.386 347.969 187.323C348.565 187.291 349.053 187.291 349.382 187.316C349.718 187.335 349.902 187.361 349.896 187.38C349.896 187.437 349.161 187.43 347.982 187.551C346.809 187.671 345.193 187.95 343.488 188.52C341.783 189.097 340.332 189.858 339.324 190.473C338.329 191.106 337.746 191.556 337.708 191.512Z" fill="#455A64"/>
<path d="M337.176 187.994C337.169 187.975 337.34 187.887 337.657 187.741C337.974 187.595 338.443 187.411 339.033 187.215C340.211 186.816 341.885 186.391 343.78 186.182C345.675 185.979 347.405 186.036 348.641 186.175C349.262 186.245 349.756 186.321 350.099 186.397C350.441 186.467 350.625 186.518 350.618 186.543C350.612 186.594 349.851 186.492 348.622 186.41C347.392 186.334 345.687 186.309 343.818 186.511C341.948 186.714 340.287 187.094 339.102 187.437C337.917 187.779 337.195 188.045 337.176 187.994Z" fill="#455A64"/>
<path d="M332.758 186.511C332.752 186.492 332.986 186.385 333.417 186.213C333.848 186.036 334.488 185.821 335.287 185.586C336.884 185.117 339.159 184.667 341.701 184.578C344.249 184.496 346.549 184.781 348.172 185.136C348.983 185.313 349.636 185.485 350.08 185.63C350.523 185.77 350.764 185.859 350.758 185.884C350.739 185.941 349.756 185.656 348.127 185.364C346.505 185.073 344.23 184.819 341.714 184.908C339.197 184.997 336.947 185.409 335.344 185.814C333.747 186.213 332.777 186.562 332.758 186.511Z" fill="#455A64"/>
<path d="M349.655 177.828C349.68 177.854 349.363 178.209 348.679 178.519C348.007 178.836 346.93 179.064 345.801 178.773C344.673 178.475 343.843 177.752 343.406 177.15C342.962 176.542 342.854 176.079 342.892 176.073C342.943 176.047 343.127 176.466 343.59 177.004C344.046 177.543 344.838 178.177 345.884 178.45C346.923 178.716 347.931 178.545 348.59 178.304C349.262 178.057 349.623 177.778 349.655 177.828Z" fill="#455A64"/>
<path d="M363.769 174.78C363.801 174.774 363.909 175.236 363.662 175.927C363.44 176.612 362.755 177.467 361.729 177.904C360.715 178.354 359.701 178.399 359.003 178.405C358.3 178.405 357.869 178.354 357.869 178.31C357.869 178.259 358.3 178.228 358.997 178.171C359.682 178.107 360.651 178.019 361.596 177.6C362.553 177.195 363.18 176.453 363.446 175.838C363.725 175.224 363.712 174.78 363.769 174.78Z" fill="#455A64"/>
<path d="M339.216 165.438C339.603 165.026 339.99 164.608 340.275 164.088C340.56 163.568 340.738 162.947 340.661 162.332C340.579 161.673 340.224 161.115 339.857 160.608C338.849 159.233 337.676 158.035 336.377 157.078C336.377 157.078 335.369 156.318 334.919 157.078C334.621 157.585 334.812 165.913 335.965 166.439C337.131 166.978 339.216 165.438 339.216 165.438Z" fill="#455A64"/>
<path d="M367.971 153.542C366.121 154.993 365.411 157.49 364.023 159.392C363.776 159.734 363.522 160.082 363.357 160.469C363.193 160.856 363.123 161.306 363.25 161.711C363.383 162.129 363.712 162.453 364.048 162.732C364.783 163.353 365.614 163.853 366.501 164.221C366.501 164.221 368.421 164.817 368.928 163.068C369.435 161.325 369.214 152.572 367.971 153.542Z" fill="#455A64"/>
<path d="M309.08 189.446C306.849 189.788 301.696 188.932 300.194 187.38C298.622 185.763 299.11 183.393 299.928 181.295C300.745 179.191 302.007 177.302 303.078 175.319C304.878 172.004 306.183 168.353 306.285 164.582C306.38 160.818 305.163 156.92 302.495 154.258C299.826 151.596 295.618 150.392 292.101 151.754C289.21 152.876 286.967 156.216 288.089 159.106C288.792 160.919 290.548 162.072 291.784 163.575C293.527 165.691 294.217 168.626 293.609 171.3C292.943 174.203 290.89 176.624 290.11 179.502C288.925 183.887 291.074 188.755 294.693 191.499C298.312 194.244 303.128 195.067 307.641 194.541" fill="#D1D1D1"/>
<path d="M355.961 187.925C355.961 187.925 356.234 189.623 355.651 190.314C355.391 190.625 355.029 190.872 354.624 190.916C354.028 190.98 353.451 190.574 353.153 190.054C352.856 189.535 352.779 188.913 352.748 188.318C352.748 188.318 354.256 187.773 354.472 186.892C354.478 186.892 355.08 187.836 355.961 187.925Z" fill="#F26522"/>
<path d="M363.643 188.616C363.655 188.628 363.491 188.837 363.155 189.173C362.819 189.509 362.293 189.972 361.583 190.46C360.182 191.436 357.951 192.475 355.315 192.684C352.678 192.894 350.308 192.228 348.768 191.487C347.994 191.119 347.399 190.751 347.012 190.473C346.625 190.194 346.429 190.016 346.435 189.997C346.473 189.94 347.31 190.599 348.863 191.271C350.396 191.949 352.716 192.558 355.283 192.355C357.85 192.146 360.043 191.176 361.45 190.263C362.876 189.351 363.598 188.565 363.643 188.616Z" fill="#455A64"/>
<path d="M354.592 200.03C354.617 200.081 354.155 200.315 353.578 200.892C353.008 201.456 352.348 202.426 352.158 203.643C351.968 204.86 352.298 205.981 352.672 206.698C353.046 207.42 353.42 207.788 353.375 207.826C353.356 207.851 352.913 207.54 352.469 206.812C352.025 206.095 351.632 204.904 351.835 203.592C352.044 202.28 352.779 201.266 353.42 200.721C354.066 200.163 354.579 199.998 354.592 200.03Z" fill="#455A64"/>
<path d="M360.765 200.765C360.765 200.829 360.246 200.778 359.529 201.107C358.826 201.424 357.951 202.198 357.565 203.332C357.184 204.473 357.33 205.607 357.52 206.374C357.71 207.154 357.92 207.61 357.875 207.636C357.843 207.655 357.552 207.23 357.298 206.438C357.045 205.664 356.848 204.467 357.254 203.231C357.672 201.988 358.655 201.184 359.441 200.898C360.239 200.594 360.778 200.74 360.765 200.765Z" fill="#455A64"/>
<path d="M343.583 196.665C343.621 196.69 343.431 197.045 343.057 197.577C342.683 198.103 342.119 198.813 341.365 199.466C340.604 200.119 339.8 200.55 339.204 200.797C338.602 201.044 338.209 201.133 338.196 201.095C338.152 200.987 339.686 200.474 341.156 199.212C342.607 197.939 343.488 196.589 343.583 196.665Z" fill="#455A64"/>
<path d="M335.921 177.626C335.927 177.632 335.8 177.733 335.559 177.904C335.319 178.082 334.951 178.323 334.476 178.627C333.519 179.229 332.08 180.034 330.242 180.883C328.398 181.726 326.154 182.614 323.606 183.45C321.058 184.287 318.232 185.066 315.304 186.036C312.382 186.999 309.644 188.083 307.305 189.357C304.966 190.625 303.021 192.057 301.563 193.445C300.105 194.833 299.104 196.132 298.495 197.077C297.881 198.021 297.608 198.585 297.576 198.572C297.564 198.566 297.627 198.427 297.76 198.154C297.881 197.882 298.096 197.495 298.388 197.007C298.971 196.037 299.947 194.694 301.405 193.274C302.856 191.854 304.808 190.384 307.159 189.091C309.511 187.792 312.261 186.695 315.196 185.725C318.13 184.756 320.97 183.976 323.505 183.165C326.046 182.347 328.29 181.492 330.134 180.674C331.979 179.857 333.424 179.09 334.4 178.526C334.888 178.24 335.262 178.019 335.515 177.86C335.775 177.689 335.914 177.613 335.921 177.626Z" fill="#455A64"/>
<path d="M339.267 183.26C339.242 183.285 338.817 182.892 338.278 182.138C337.74 181.384 337.112 180.25 336.688 178.887C336.269 177.524 336.155 176.231 336.181 175.306C336.206 174.374 336.333 173.817 336.371 173.823C336.485 173.823 336.168 176.13 337.011 178.792C337.809 181.466 339.362 183.203 339.267 183.26Z" fill="#455A64"/>
<path d="M110.812 204.733L89.7825 151.944C87.9191 147.407 91.2592 142.425 96.1647 142.425H161.679C164.633 142.425 167.263 144.307 168.214 147.109L186.277 200.353L207.376 200.455C209.087 200.461 210.475 202.971 210.475 204.682L187.253 204.416L110.812 204.733Z" fill="#00476F"/>
<path d="M111.325 154.625C109.836 154.568 108.346 154.949 107.091 155.76C106.679 156.026 106.274 156.343 105.938 156.717C104.816 157.978 102.813 160.431 103.612 164.259C104.41 168.087 106.882 168.613 108.029 168.74C109.183 168.867 117.232 166.579 117.232 166.579C117.232 166.579 120.154 164.094 119.114 160.843C118.221 158.054 115.635 154.784 111.325 154.625Z" fill="#F26522"/>
<path d="M107.484 167.599C107.484 167.599 107.776 169.646 108.802 170.166C109.829 170.686 111.743 170.591 113.207 170.223C114.671 169.855 116.858 169.012 117.111 167.878C117.371 166.743 117.149 165.362 116.985 165.21C116.82 165.058 114.583 163.796 111.585 164.715C108.587 165.628 107.484 167.599 107.484 167.599Z" fill="#F5F5F5"/>
<g opacity="0.4">
<g opacity="0.4">
<path opacity="0.4" d="M114.006 157.826C114.526 159.892 113.271 161.984 111.205 162.503C109.138 163.023 107.047 161.768 106.527 159.702C106.007 157.636 107.262 155.544 109.329 155.025C111.395 154.505 113.493 155.76 114.006 157.826Z" fill="white"/>
</g>
</g>
<g opacity="0.4">
<g opacity="0.4">
<g opacity="0.4">
<path opacity="0.4" d="M104.277 166.211C104.993 165.298 105.45 164.094 105.367 162.941C105.291 161.787 104.772 160.665 103.941 159.861C103.941 159.861 103.206 162.041 103.523 163.758C103.853 165.59 104.277 166.211 104.277 166.211Z" fill="white"/>
</g>
</g>
</g>
<g opacity="0.4">
<g opacity="0.4">
<g opacity="0.4">
<path opacity="0.4" d="M119.342 162.427C118.284 161.965 117.314 161.115 116.833 160.063C116.357 159.011 116.237 157.94 116.585 156.837C116.585 156.837 118.062 158.238 118.772 159.911C119.526 161.673 119.342 162.427 119.342 162.427Z" fill="white"/>
</g>
</g>
</g>
<path d="M141.094 175.762C141.094 178.114 139.186 180.015 136.841 180.015C134.49 180.015 132.589 178.107 132.589 175.762C132.589 173.411 134.496 171.51 136.841 171.51C139.186 171.503 141.094 173.411 141.094 175.762Z" fill="#F5F5F5"/>
<path d="M391.295 204.422C391.295 204.511 304.174 204.587 196.734 204.587C89.2565 204.587 2.15491 204.511 2.15491 204.422C2.15491 204.334 89.2565 204.257 196.734 204.257C304.174 204.257 391.295 204.327 391.295 204.422Z" fill="#263238"/>
<path d="M60.0578 182.658C53.8593 179.064 50.5446 170.705 50.2974 163.866C50.0503 157.028 52.896 149.885 58.5113 145.962C64.4182 141.829 72.835 141.905 78.913 145.79C84.9847 149.682 88.5402 157.021 88.2677 164.227C87.9952 171.434 84.0657 178.316 78.2539 182.588" fill="#F26522"/>
<path d="M69.9512 183.317C69.9132 183.317 69.8751 182.759 69.8371 181.752C69.8054 180.63 69.7674 179.197 69.7167 177.486C69.6216 173.886 69.4822 168.911 69.2413 163.416C69.0005 157.921 68.7026 152.952 68.4808 149.359C68.3794 147.647 68.2907 146.215 68.2273 145.1C68.1766 144.092 68.1639 143.534 68.2019 143.528C68.2399 143.521 68.3287 144.079 68.4491 145.081C68.5695 146.082 68.7216 147.533 68.8864 149.327C69.216 152.921 69.5772 157.889 69.8181 163.391C70.0589 168.892 70.135 173.874 70.1223 177.48C70.116 179.286 70.0969 180.744 70.0589 181.752C70.0272 182.759 69.9892 183.317 69.9512 183.317Z" fill="white"/>
<path d="M52.1291 162.313C52.1165 162.472 51.1277 162.522 49.9235 162.421C48.7193 162.32 47.7497 162.11 47.7623 161.952C47.775 161.794 48.7637 161.743 49.9679 161.844C51.1784 161.946 52.1418 162.155 52.1291 162.313Z" fill="#00476F"/>
<path d="M52.4713 156.178C52.4079 156.324 51.5523 156.089 50.5699 155.652C49.5812 155.215 48.8333 154.74 48.9031 154.594C48.9664 154.448 49.8221 154.682 50.8044 155.12C51.7868 155.557 52.5347 156.026 52.4713 156.178Z" fill="#00476F"/>
<path d="M55.6276 151.621C55.5452 151.754 54.5882 151.304 53.5868 150.474C52.5854 149.65 51.9643 148.795 52.0784 148.687C52.1988 148.573 52.9847 149.232 53.9544 150.03C54.9241 150.829 55.7163 151.482 55.6276 151.621Z" fill="#00476F"/>
<path d="M58.8028 147.318C58.6571 147.381 58.1944 146.665 57.7761 145.714C57.3578 144.764 57.136 143.94 57.2817 143.876C57.4275 143.813 57.8902 144.529 58.3085 145.48C58.7331 146.431 58.9486 147.254 58.8028 147.318Z" fill="#00476F"/>
<path d="M63.7908 144.269C63.645 144.339 63.1507 143.572 62.8274 142.514C62.4979 141.455 62.4725 140.543 62.6246 140.517C62.7831 140.492 63.0619 141.322 63.3788 142.336C63.6894 143.357 63.9366 144.2 63.7908 144.269Z" fill="#00476F"/>
<path d="M72.1061 140.828C72.2583 140.879 72.1632 141.531 71.897 142.286C71.6308 143.04 71.2949 143.604 71.1428 143.547C70.9907 143.496 71.0857 142.843 71.3519 142.089C71.6181 141.341 71.954 140.777 72.1061 140.828Z" fill="#00476F"/>
<path d="M78.2729 143.477C78.3806 143.598 77.9877 144.136 77.3919 144.688C76.7961 145.239 76.2257 145.594 76.1117 145.474C76.0039 145.353 76.3969 144.814 76.9926 144.263C77.5947 143.712 78.1651 143.363 78.2729 143.477Z" fill="#00476F"/>
<path d="M83.7045 146.982C83.7932 147.115 83.3115 147.597 82.627 148.066C81.9425 148.528 81.3151 148.801 81.2264 148.668C81.1376 148.535 81.6193 148.053 82.3038 147.584C82.9883 147.121 83.6157 146.849 83.7045 146.982Z" fill="#00476F"/>
<path d="M87.5579 152.211C87.6213 152.356 86.8608 152.825 85.8594 153.25C84.858 153.675 83.996 153.903 83.9326 153.757C83.8693 153.611 84.6298 153.142 85.6312 152.718C86.6326 152.293 87.4945 152.065 87.5579 152.211Z" fill="#00476F"/>
<path d="M89.079 157.915C89.098 158.073 88.3248 158.301 87.3488 158.422C86.3727 158.542 85.5678 158.511 85.5488 158.352C85.5298 158.194 86.303 157.966 87.2791 157.845C88.2551 157.725 89.06 157.756 89.079 157.915Z" fill="#00476F"/>
<path d="M89.8649 164.937C89.8015 165.083 88.9776 164.867 88.0269 164.456C87.0762 164.044 86.3537 163.587 86.4171 163.441C86.4805 163.296 87.3044 163.511 88.2614 163.923C89.2121 164.335 89.9346 164.785 89.8649 164.937Z" fill="#00476F"/>
<path d="M89.1741 170.958C89.1234 171.104 88.084 170.857 86.9939 170.141C85.9038 169.431 85.2573 168.575 85.3714 168.467C85.4918 168.353 86.284 168.981 87.3108 169.653C88.3375 170.331 89.2311 170.806 89.1741 170.958Z" fill="#00476F"/>
<path d="M86.0368 176.44C85.9417 176.567 85.1114 176.079 84.3129 175.217C83.5143 174.362 83.0897 173.5 83.2228 173.411C83.3558 173.316 83.977 174 84.7439 174.824C85.5044 175.648 86.1382 176.314 86.0368 176.44Z" fill="#00476F"/>
<path d="M56.255 177.087C56.3311 177.226 55.4565 177.828 54.3093 178.424C53.1621 179.02 52.1671 179.394 52.0974 179.248C52.0213 179.109 52.896 178.507 54.0431 177.911C55.1903 177.315 56.179 176.941 56.255 177.087Z" fill="#00476F"/>
<path d="M53.5361 172.124C53.5994 172.27 52.9023 172.733 51.9769 173.151C51.0516 173.569 50.2404 173.798 50.177 173.645C50.1136 173.5 50.8108 173.037 51.7361 172.619C52.6614 172.2 53.4663 171.979 53.5361 172.124Z" fill="#00476F"/>
<path d="M51.5333 167.732C51.5587 167.891 50.6967 168.144 49.6129 168.296C48.5292 168.448 47.6355 168.448 47.6102 168.29C47.5848 168.131 48.4468 167.878 49.5305 167.726C50.6143 167.574 51.5143 167.574 51.5333 167.732Z" fill="#00476F"/>
<path d="M58.093 165.311C58.1437 165.463 57.3007 165.85 56.1853 165.977C55.0635 166.103 54.1635 165.913 54.1762 165.755C54.1888 165.59 55.0635 165.52 56.1219 165.4C57.1803 165.286 58.0486 165.153 58.093 165.311Z" fill="#00476F"/>
<path d="M63.5436 159.892C63.588 160.044 62.9225 160.38 62.0226 160.469C61.1226 160.558 60.4001 160.355 60.4191 160.203C60.4317 160.038 61.1289 159.975 61.9655 159.892C62.8021 159.81 63.4993 159.734 63.5436 159.892Z" fill="#00476F"/>
<path d="M64.5831 155.551C64.5324 155.703 63.8099 155.589 62.9669 155.297C62.1303 155.006 61.4902 154.651 61.5409 154.499C61.5916 154.347 62.3141 154.461 63.1571 154.752C64 155.037 64.6338 155.399 64.5831 155.551Z" fill="#00476F"/>
<path d="M66.5794 151.159C66.4653 151.273 65.971 150.943 65.6161 150.328C65.2611 149.714 65.2231 149.118 65.3752 149.08C65.5337 149.035 65.7999 149.492 66.1167 150.037C66.4336 150.582 66.6998 151.045 66.5794 151.159Z" fill="#00476F"/>
<path d="M64.171 169.139C64.2091 169.298 63.5816 169.583 62.7767 169.779C62.3077 169.893 61.8831 169.95 61.6042 169.95L61.4901 169.615C61.6993 169.577 61.8324 169.583 61.8641 169.646C61.8894 169.71 61.807 169.811 61.6359 169.944L61.5218 169.608C61.769 169.481 62.1746 169.336 62.6436 169.222C63.4485 169.012 64.133 168.981 64.171 169.139Z" fill="#00476F"/>
<path d="M65.2992 176.833C65.3562 176.986 64.5576 177.436 63.5182 177.847C62.4725 178.259 61.5852 178.469 61.5218 178.316C61.4648 178.164 62.2633 177.714 63.3027 177.302C64.3422 176.897 65.2358 176.688 65.2992 176.833Z" fill="#00476F"/>
<path d="M59.1388 173.417C59.1895 173.569 58.6571 173.886 57.9473 174.127C57.2374 174.368 56.6226 174.438 56.5719 174.286C56.5212 174.133 57.0536 173.817 57.7635 173.576C58.4733 173.335 59.0881 173.265 59.1388 173.417Z" fill="#00476F"/>
<path d="M59.6142 157.744C59.5761 157.896 58.6508 157.807 57.5797 157.427C56.5086 157.047 55.729 156.539 55.7988 156.394C55.8685 156.248 56.7304 156.514 57.7762 156.882C58.8093 157.249 59.6522 157.585 59.6142 157.744Z" fill="#00476F"/>
<path d="M74.5081 156.039C74.5968 156.172 74.0771 156.673 73.3419 157.154C72.6131 157.636 71.9476 157.921 71.8589 157.788C71.7701 157.655 72.2898 157.154 73.025 156.673C73.7539 156.191 74.4194 155.906 74.5081 156.039Z" fill="#00476F"/>
<path d="M75.3194 163.771C75.3511 163.929 74.806 164.177 74.0962 164.322C73.3863 164.468 72.7842 164.462 72.7525 164.303C72.7208 164.145 73.2659 163.898 73.9757 163.752C74.6856 163.606 75.2813 163.613 75.3194 163.771Z" fill="#00476F"/>
<path d="M76.2575 172.467C76.1877 172.612 75.4019 172.391 74.4955 171.972C73.5892 171.554 72.9111 171.091 72.9744 170.952C73.0442 170.806 73.8301 171.028 74.7364 171.446C75.6427 171.864 76.3272 172.321 76.2575 172.467Z" fill="#00476F"/>
<path d="M74.2673 180.928C74.1406 181.029 73.6335 180.611 73.1202 179.99C72.6131 179.369 72.3026 178.785 72.423 178.684C72.5498 178.583 73.0568 179.001 73.5702 179.622C74.0772 180.243 74.3878 180.826 74.2673 180.928Z" fill="#00476F"/>
<path d="M73.8617 150.347C73.9568 150.474 73.6209 150.899 73.0378 151.19C72.461 151.482 71.916 151.501 71.8716 151.349C71.8272 151.19 72.2519 150.937 72.7779 150.671C73.304 150.404 73.7603 150.221 73.8617 150.347Z" fill="#00476F"/>
<path d="M81.1566 158.143C81.2073 158.289 80.5355 158.663 79.6101 158.789C78.6848 158.923 77.9369 158.745 77.9496 158.587C77.956 158.422 78.6721 158.333 79.5341 158.213C80.3897 158.099 81.1059 157.991 81.1566 158.143Z" fill="#00476F"/>
<path d="M79.7052 151.146C79.7749 151.285 79.1031 151.767 78.1524 152.065C77.2017 152.369 76.3778 152.369 76.3524 152.217C76.3271 152.059 77.0686 151.805 77.9749 151.514C78.8813 151.228 79.6291 151 79.7052 151.146Z" fill="#00476F"/>
<path d="M82.7538 168.987C82.7538 169.146 81.6066 169.247 80.2249 168.993C78.8433 168.746 77.8039 168.246 77.8546 168.1C77.9053 167.941 78.989 168.182 80.3263 168.423C81.6573 168.664 82.7538 168.822 82.7538 168.987Z" fill="#00476F"/>
<path d="M80.0411 179.159C79.946 179.286 79.1031 178.785 78.2601 177.936C77.4172 177.087 76.9229 176.244 77.0496 176.149C77.1764 176.048 77.8545 176.713 78.6721 177.531C79.4834 178.348 80.1425 179.026 80.0411 179.159Z" fill="#00476F"/>
<path d="M68.1132 142.869C68.202 142.995 65.7999 143.965 63.0239 146.893C60.2479 149.752 57.3895 154.809 56.6797 160.913C56.3438 163.948 56.629 166.883 57.06 169.5C57.5099 172.124 58.112 174.45 58.6698 176.396C59.2275 178.335 59.7409 179.888 60.0831 180.972C60.4254 182.049 60.6092 182.652 60.5711 182.664C60.5331 182.677 60.2796 182.107 59.8676 181.048C59.4557 179.99 58.8853 178.456 58.2768 176.517C57.6684 174.583 57.0219 172.245 56.5339 169.596C56.0712 166.953 55.7544 163.967 56.1029 160.849C56.8255 154.606 59.8169 149.46 62.726 146.614C64.1711 145.169 65.5337 144.206 66.5224 143.648C67.0041 143.344 67.4224 143.179 67.6823 143.046C67.9548 142.907 68.1006 142.85 68.1132 142.869Z" fill="white"/>
<path d="M76.0293 183.032C75.9025 182.968 77.3349 180.763 78.6405 176.795C79.9841 172.872 81.0933 167.067 80.1996 160.754C79.7813 157.611 78.8687 154.695 77.7278 152.204C76.5426 149.745 75.0089 147.736 73.5131 146.329C71.9667 144.96 70.4393 144.174 69.3808 143.718C68.3097 143.268 67.6633 143.167 67.6696 143.116C67.6759 143.097 67.8344 143.103 68.1449 143.154C68.4492 143.211 68.8992 143.312 69.4632 143.509C70.5724 143.908 72.1505 144.65 73.7857 146.025C75.3765 147.445 76.9609 149.454 78.2159 151.976C79.4137 154.511 80.3517 157.471 80.7827 160.678C81.6953 167.105 80.4911 172.999 79.0334 176.935C78.7039 177.936 78.2856 178.798 77.9687 179.571C77.5947 180.319 77.2842 180.972 77.0053 181.485C76.4096 182.499 76.0673 183.051 76.0293 183.032Z" fill="white"/>
<path d="M53.536 181.657H85.5487L85.7452 188.064H53.536V181.657Z" fill="#00476F"/>
<path d="M56.255 184.864L58.093 204.422H81.4988L83.3812 185.073L56.255 184.864Z" fill="#00476F"/>
<path d="M85.7452 188.14C85.7452 188.299 78.5326 188.432 69.6469 188.432C60.7549 188.432 53.5424 188.299 53.5424 188.14C53.5424 187.982 60.7485 187.849 69.6469 187.849C78.539 187.849 85.7452 187.982 85.7452 188.14Z" fill="#455A64"/>
<path d="M82.4939 194.098C82.5256 194.117 82.3101 194.567 81.8094 195.321C81.3087 196.069 80.5101 197.121 79.3249 198.255L79.1792 198.395L79.0334 198.243C77.4933 196.627 75.3764 194.643 72.7589 192.748L73.1138 192.735C72.2202 193.521 71.2885 194.339 70.3315 195.175C69.197 196.164 68.0942 197.127 67.0421 198.04L66.8583 198.198L66.6745 198.046C64.6781 196.373 62.8654 194.846 61.3317 193.553L61.6422 193.521C60.5394 194.871 59.6078 195.999 58.8789 196.893C58.2134 197.685 57.8268 198.11 57.7951 198.078C57.7634 198.053 58.0803 197.577 58.6888 196.741C59.3796 195.815 60.2606 194.643 61.3 193.249L61.4331 193.071L61.6105 193.217C63.1697 194.484 65.014 195.974 67.0358 197.615L66.6745 197.622C67.7203 196.703 68.8167 195.739 69.9512 194.744C70.9082 193.908 71.8462 193.096 72.7399 192.311L72.911 192.158L73.0948 192.292C75.7314 194.231 77.8355 196.278 79.3376 197.964L79.0461 197.951C81.4164 195.796 82.3988 194.028 82.4939 194.098Z" fill="#455A64"/>
</svg>
