<svg width="24" height="24" viewBox="0 0 24 24" fill="none" xmlns="http://www.w3.org/2000/svg">
<path d="M15 16C16.0608 16 17.0783 15.5786 17.8284 14.8284C18.5785 14.0783 19 13.0609 19 12V6C19 4.93913 18.5785 3.92172 17.8284 3.17157C17.0783 2.42143 16.0608 2 15 2H4.99997C3.9391 2 2.92169 2.42143 2.17154 3.17157C1.4214 3.92172 0.999969 4.93913 0.999969 6V18.5C0.999969 18.6326 1.05265 18.7598 1.14642 18.8536C1.24018 18.9473 1.36736 19 1.49997 19C1.56537 18.9996 1.63003 18.9862 1.69014 18.9604C1.75025 18.9346 1.80459 18.8971 1.84997 18.85L3.84997 16.85C4.13431 16.5732 4.47075 16.3555 4.8398 16.2096C5.20886 16.0637 5.60319 15.9924 5.99997 16H15ZM13 8.5C13 8.36739 13.0526 8.24021 13.1464 8.14645C13.2402 8.05268 13.3674 8 13.5 8H14.5C14.6326 8 14.7598 8.05268 14.8535 8.14645C14.9473 8.24021 15 8.36739 15 8.5V9.5C15 9.63261 14.9473 9.75979 14.8535 9.85355C14.7598 9.94732 14.6326 10 14.5 10H13.5C13.3674 10 13.2402 9.94732 13.1464 9.85355C13.0526 9.75979 13 9.63261 13 9.5V8.5ZM8.99997 8.5C8.99997 8.36739 9.05265 8.24021 9.14642 8.14645C9.24018 8.05268 9.36736 8 9.49997 8H10.5C10.6326 8 10.7598 8.05268 10.8535 8.14645C10.9473 8.24021 11 8.36739 11 8.5V9.5C11 9.63261 10.9473 9.75979 10.8535 9.85355C10.7598 9.94732 10.6326 10 10.5 10H9.49997C9.36736 10 9.24018 9.94732 9.14642 9.85355C9.05265 9.75979 8.99997 9.63261 8.99997 9.5V8.5ZM4.99997 9.5V8.5C4.99997 8.36739 5.05265 8.24021 5.14642 8.14645C5.24018 8.05268 5.36736 8 5.49997 8H6.49997C6.63258 8 6.75975 8.05268 6.85352 8.14645C6.94729 8.24021 6.99997 8.36739 6.99997 8.5V9.5C6.99997 9.63261 6.94729 9.75979 6.85352 9.85355C6.75975 9.94732 6.63258 10 6.49997 10H5.49997C5.36736 10 5.24018 9.94732 5.14642 9.85355C5.05265 9.75979 4.99997 9.63261 4.99997 9.5ZM21 6V14C21 15.0609 20.5785 16.0783 19.8284 16.8284C19.0783 17.5786 18.0608 18 17 18H4.99997C4.99997 18.5304 5.21068 19.0391 5.58576 19.4142C5.96083 19.7893 6.46954 20 6.99997 20H18C18.3955 19.999 18.7873 20.0763 19.1528 20.2273C19.5184 20.3783 19.8505 20.6001 20.13 20.88L22.13 22.88C22.1753 22.9271 22.2297 22.9646 22.2898 22.9904C22.3499 23.0162 22.4146 23.0296 22.48 23.03C22.6126 23.03 22.7398 22.9773 22.8335 22.8836C22.9273 22.7898 22.98 22.6626 22.98 22.53V8C22.98 7.47301 22.772 6.96731 22.4013 6.59281C22.0305 6.21831 21.5269 6.00527 21 6Z" fill="#141414"/>
</svg>
