<svg width="16" height="16" viewBox="0 0 16 16" fill="none" xmlns="http://www.w3.org/2000/svg">
<path fill-rule="evenodd" clip-rule="evenodd" d="M12 10.5V7.16667C12 5.12 10.9133 3.40667 8.99999 2.95333V2.5C8.99999 1.94667 8.55332 1.5 7.99999 1.5C7.44666 1.5 6.99999 1.94667 6.99999 2.5V2.95333C5.09332 3.40667 3.99999 5.11333 3.99999 7.16667V10.5L2.66666 11.8333V12.5H13.3333V11.8333L12 10.5ZM7.99999 14.5C8.73332 14.5 9.33332 13.9 9.33332 13.1667H6.66666C6.66666 13.9 7.26666 14.5 7.99999 14.5ZM5.33332 11.1667H10.6667V7.16667C10.6667 5.51333 9.65999 4.16667 7.99999 4.16667C6.33999 4.16667 5.33332 5.51333 5.33332 7.16667V11.1667Z" fill="#757575" fill-opacity="0.54"/>
</svg>
