<svg width="16" height="16" viewBox="0 0 16 16" fill="none" xmlns="http://www.w3.org/2000/svg">
<path d="M8 8C9.933 8 11.5 6.433 11.5 4.5C11.5 2.567 9.933 1 8 1C6.067 1 4.5 2.567 4.5 4.5C4.5 6.433 6.067 8 8 8Z" fill="#141414"/>
<path d="M7.12502 12.7317C7.12502 12.5991 7.1777 12.4719 7.27146 12.3782L9.06333 10.5863C9.3595 10.2901 9.18121 9.78927 8.76286 9.76899C8.50881 9.75668 8.25446 9.75035 8.00002 9.75C5.20702 9.75 3.15339 10.4456 2.01764 10.9592C1.71292 11.0984 1.45482 11.3224 1.27432 11.6046C1.09381 11.8868 0.998566 12.215 1.00002 12.55V14.5C1.00002 14.7761 1.22387 15 1.50002 15H6.62502C6.90116 15 7.12502 14.7761 7.12502 14.5V12.7317Z" fill="#141414"/>
<path d="M10.7714 14.8536C10.6777 14.9473 10.5505 15 10.4179 15H9.375C9.09886 15 8.875 14.7761 8.875 14.5V13.4571C8.875 13.3245 8.92768 13.1973 9.02145 13.1036L12.8964 9.22855C13.0917 9.03329 13.4083 9.03329 13.6036 9.22855L14.6464 10.2714C14.8417 10.4667 14.8417 10.7833 14.6464 10.9786L10.7714 14.8536Z" fill="#141414"/>
</svg>
