<svg width="16" height="16" viewBox="0 0 16 16" fill="none" xmlns="http://www.w3.org/2000/svg">
<path fill-rule="evenodd" clip-rule="evenodd" d="M9.97668 9.50335H10.5033L13.83 12.8367L12.8367 13.83L9.50335 10.5033V9.97668L9.32335 9.79001C8.56335 10.4433 7.57668 10.8367 6.50335 10.8367C4.11001 10.8367 2.17001 8.89668 2.17001 6.50335C2.17001 4.11001 4.11001 2.17001 6.50335 2.17001C8.89668 2.17001 10.8367 4.11001 10.8367 6.50335C10.8367 7.57668 10.4433 8.56335 9.79001 9.32335L9.97668 9.50335ZM3.50335 6.50335C3.50335 8.16335 4.84335 9.50335 6.50335 9.50335C8.16335 9.50335 9.50335 8.16335 9.50335 6.50335C9.50335 4.84335 8.16335 3.50335 6.50335 3.50335C4.84335 3.50335 3.50335 4.84335 3.50335 6.50335Z" fill="#757575" fill-opacity="0.54"/>
</svg>
